<?xml version="1.0" encoding="utf-8"?>
<svg xmlns="http://www.w3.org/2000/svg" xmlns:xlink="http://www.w3.org/1999/xlink" version= "1.1" width="720px" height="1424px" viewBox="0 0 720 1424">
<g id="layer1">
<g style="fill:rgb(0,0,0); fill-opacity:1.0; stroke-linejoin: miter">
<path d="M582.0215,541.43616L582.0364,541.4365L582.05286,541.4369Q582.07007,541.4382,582.08997,541.4393Q582.10974,541.44147,582.1322,541.44366Q582.18994,541.4508,582.20386,541.45337Q582.2294,541.4576,582.2565,541.4626L582.28394,541.4681Q582.28235,541.4688,582.28064,541.46954Q582.28186,541.47485,582.2831,541.48016L582.27136,541.4816Q582.271,541.4818,582.2429,541.47906L582.23596,541.4789L582.20935,541.47705L582.1904,541.47595L582.18713,541.4776Q582.18225,541.4725,582.1166,541.4552Q582.1041,541.45264,582.0919,541.4495Q582.0796,541.4468,582.06714,541.4444Q582.0548,541.44183,582.04236,541.4398Q582.0299,541.4382,582.01746,541.43616L582.0215,541.4376"/>
</g>
<g style="fill:rgb(0,0,0); fill-opacity:1.0; stroke-linejoin: miter">
<path d="M366.96478,575.8313L366.21277,575.8401Q362.87506,575.91846,357.3526,576.7112Q355.98956,577.1513,355.93915,578.50836Q356.09998,580.06305,357.54578,580.3209Q367.92133,578.7961,371.72534,580.14197Q375.07245,581.1195,375.73926,585.4926Q376.52167,587.80945,374.81726,598.2598Q374.65088,599.6317,372.59082,608.377L366.82343,630.7314Q365.86383,636.17816,366.02545,637.0041Q365.98584,638.92303,366.39142,640.4317Q366.79694,641.94037,367.77686,642.8743Q368.98914,644.0152,371.08472,644.0267Q372.57074,644.5572,384.7876,639.8636Q386.32263,639.45123,387.00824,639.6938Q387.39856,640.06354,387.50494,641.7093Q387.60352,650.5141,387.86566,650.9843Q388.26733,653.7856,389.17462,655.5723Q390.0641,657.45734,392.05737,659.5164Q393.01202,660.69147,399.74573,665.7165Q401.10382,666.8648,401.14612,667.7148Q401.14355,668.76483,399.27783,670.38995Q396.9245,672.11163,394.14496,672.8538Q393.74072,673.0931,393.7093,673.6718Q393.50476,673.2172,392.97357,673.11957Q389.82935,674.0444,382.9029,672.0358Q380.22406,671.38934,369.52393,665.8177Q367.21185,665.6928,367.39893,668.1534Q367.80768,669.1364,368.55383,669.38055Q375.9131,673.3802,380.19568,674.96844Q385.33478,676.98773,390.20886,677.02606Q394.128,677.11395,393.7682,675.889Q394.22833,676.79816,395.54657,676.236Q399.8161,674.76056,401.37183,673.3879Q403.52356,671.8194,404.4488,669.7454Q405.13422,667.08075,404.6571,666.4432Q404.05737,664.3621,401.30255,662.2214Q396.04016,658.3505,394.9677,657.2681Q394.10583,656.91376,393.65063,657.7193L393.58575,655.81586Q391.66162,653.0236,391.49164,650.3874Q391.20233,648.3256,391.2658,642.6331L391.05298,640.29156Q390.4319,637.5776,389.42853,636.9284Q387.97235,635.62067,385.31702,636.01605Q385.10657,635.6309,372.5114,640.18304Q369.8037,640.8035,369.72803,639.31476Q369.1914,637.0638,370.67102,630.61786Q377.9577,603.10425,378.502,598.53564Q379.7315,591.9245,379.54932,586.9447Q379.64178,582.36426,376.47888,578.7838Q374.21368,576.07434,366.96478,575.8313"/>
</g>
<g style="fill:rgb(0,0,0); fill-opacity:1.0; stroke-linejoin: miter">
</g>
<g style="fill:rgb(0,0,0); fill-opacity:1.0; stroke-linejoin: miter">
<path d="M618.2167,575.18823L617.6975,575.19464Q615.6067,575.1981,610.4513,576.0247Q603.70435,577.50757,600.8722,578.2767Q596.2202,579.4628,586.22424,582.3218Q585.35596,582.5205,584.9475,583.6306Q584.63794,584.7096,585.7079,585.61957Q596.61975,592.89966,599.7883,594.1891Q603.12976,595.8324,606.13086,596.48444Q606.8319,596.6414,608.03015,596.75916L611.5287,596.96155Q613.07776,597.0779,615.7886,596.0218Q616.375,595.7586,616.9269,595.4267Q618.12866,594.6697,618.7484,594.01874L621.55493,592.3573Q623.79126,588.28876,624.8699,584.8043Q626.19104,580.9739,624.8502,578.0527Q624.4109,577.1619,622.86694,575.95935Q620.43286,575.12317,618.2167,575.18823 M607.77795,580.3863L607.3683,581.44183Q604.49585,588.6569,605.2324,592.45325Q604.2185,592.1331,603.14014,591.6796Q602.6367,591.5232,599.7743,590.06506Q596.9227,588.59424,591.0703,584.76843Q603.0165,581.39606,607.77795,580.3863"/>
</g>
<g style="fill:rgb(0,0,0); fill-opacity:1.0; stroke-linejoin: miter">
<path d="M681.12524,669.3184L680.19275,669.3387Q678.30786,669.4207,676.4165,669.79926Q673.1378,670.55304,671.87683,671.1491Q669.1355,672.0782,665.4121,675.2248Q661.4591,679.0289,658.36633,683.95184Q657.96387,684.8686,658.4624,685.7144Q658.98,686.53094,660.02295,686.5821Q660.9437,686.5191,661.3906,685.9727Q664.7754,681.0528,666.49805,679.3056Q679.36694,682.94135,683.2383,683.1778Q689.1377,683.7951,691.10266,681.8234Q691.9603,681.0523,692.3324,680.2658Q692.72034,679.8881,692.876,677.7463Q693.03455,676.37836,691.33765,673.63043Q687.95215,669.24176,681.12524,669.3184 M681.1183,672.9943L681.635,673.002Q683.3959,673.09674,684.0349,673.268Q684.9269,673.44965,685.67993,673.7504Q687.37195,674.4151,688.459,675.8731Q689.5803,677.5887,688.9147,678.82306Q688.3722,679.6451,685.82544,679.67633Q684.9088,679.6751,683.8214,679.55914Q683.3689,679.561,680.2263,678.9943Q677.0797,678.4091,669.8085,676.4124Q670.77686,675.737,671.8705,675.18256Q673.26636,674.4809,674.82117,673.99286Q677.9863,673.0074,681.1183,672.9943"/>
</g>
<g style="fill:rgb(0,0,0); fill-opacity:1.0; stroke-linejoin: miter">
<path d="M613.7987,518.0402L612.8545,518.0481Q604.6963,518.2983,600.1666,520.202L597.5083,521.40173Q594.9906,522.7291,592.9418,524.46216Q591.69556,525.1542,587.6123,530.31433Q585.1852,533.50134,581.1998,541.6906Q580.81445,541.93146,580.5249,542.39905Q579.76624,544.7474,582.28296,545.1564Q582.50037,545.19446,584.4828,544.8997Q598.3638,542.4806,601.2135,542.2071Q608.02356,541.39404,610.7257,541.3801Q614.44104,541.2411,617.548,541.6813Q619.0696,541.9018,620.4226,542.21Q627.25354,543.99164,627.42883,543.9241Q629.2706,544.2786,631.1344,544.1453Q635.59863,543.64764,639.2394,540.4273Q643.3384,537.10535,644.0437,532.2263Q644.18225,527.98413,640.9197,525.24115Q637.8793,522.3423,629.11255,519.9385Q624.9957,518.8976,620.49194,518.4084Q614.8937,517.9398,613.7987,518.0402 M581.60046,541.42664L581.6018,541.42847Q581.60254,541.43286,581.5808,541.45154Q581.5592,541.4697,581.5112,541.50195Q581.5039,541.5076,581.42224,541.55853L581.39795,541.5697Q581.3887,541.5741,581.35254,541.5944Q581.3817,541.5686,581.4094,541.5459Q581.4767,541.493,581.4866,541.48804Q581.53406,541.45557,581.56445,541.4398Q581.595,541.42426,581.60046,541.42664 M583.0825,544.8411L583.0824,544.8413L583.08215,544.8428Q583.08057,544.84204,583.07886,544.8428L583.0792,544.84204L583.0796,544.8411L583.0825,544.8426 M582.9874,544.918L582.9835,544.9206Q582.97986,544.9224,582.97644,544.9246L582.97327,544.9263L582.9702,544.9283L582.9629,544.9318Q582.96094,544.9324,582.9595,544.9333Q582.9579,544.9335,582.95715,544.93365L582.9569,544.93384L582.9568,544.9335L582.95667,544.93365L582.95654,544.9335L582.9563,544.93365Q582.9563,544.9335,582.9562,544.9335Q582.95593,544.9331,582.95593,544.93274L582.9525,544.9342Q582.9552,544.93274,582.95776,544.9311L582.96045,544.9298L582.963,544.9281L582.9656,544.927Q582.96826,544.9257,582.9707,544.92426L582.9834,544.918L582.9874,544.9195"/>
</g>
<g style="fill:rgb(0,0,0); fill-opacity:1.0; stroke-linejoin: miter">
<path d="M580.4518,544.0026L580.45215,544.0041L580.4525,544.005L580.45276,544.00555L580.4531,544.00684L580.45325,544.00757L580.4529,544.0061L580.4525,544.0043L580.45215,544.00354L580.4518,544.0026"/>
</g>
<g style="fill:rgb(0,0,0); fill-opacity:1.0; stroke-linejoin: miter">
<path d="M398.2738,584.33105L398.27374,584.3318L398.27368,584.33234Q398.27374,584.33307,398.2738,584.3338L398.2738,584.33105"/>
</g>
<g style="fill:rgb(0,0,0); fill-opacity:1.0; stroke-linejoin: miter">
<path d="M398.27216,584.3309L398.27228,584.3318L398.27252,584.3325L398.2727,584.33215L398.27295,584.3318Q398.27252,584.33124,398.27216,584.3309"/>
</g>
<g style="fill:rgb(0,0,0); fill-opacity:1.0; stroke-linejoin: miter">
<path d="M382.11078,331.11658L374.2141,331.32892Q260.7212,335.81592,208.02719,433.61725Q177.13077,489.4029,173.56592,555.4031Q171.93616,591.47504,209.25742,668.5413Q204.96045,702.57196,219.74747,765.0063Q207.21643,765.0345,205.2557,772.3835Q202.89725,780.0462,208.3274,800.49786Q198.75616,811.87665,198.43253,841.15375Q176.46893,846.05707,147.62143,918.841Q89.667816,952.30255,67.9928,975.4014Q51.14505,987.4415,-16.143433,1088.694L-11.817368,1088.6954Q38.486557,1009.6454,79.352585,969.47345Q100.32794,950.0975,149.63583,921.9212L187.21524,917.21344Q210.50024,916.23114,230.62714,927.1407Q257.32574,942.82404,295.44952,988.38293L345.71826,1009.0504L328.8436,1032.4718L388.36725,1088.6932L393.7105,1088.6947L332.9919,1031.4865L350.18536,1009.27527Q350.8167,1007.7528,349.9566,1006.9591L297.61923,985.3544Q271.81512,953.638,239.86444,928.3426Q207.83289,905.5987,152.06345,917.7767Q180.68893,847.3757,194.28256,849.3879Q252.74911,866.8857,301.94363,908.8309Q353.6317,950.77423,483.2154,1088.6932L488.22156,1088.6947Q356.13397,948.25287,305.36023,906.4942Q255.2168,864.4001,198.16675,846.7989Q200.6181,845.59064,203.04285,839.89374Q201.68564,813.544,211.90948,801.4451Q206.91837,780.99493,208.79639,773.60333Q210.20782,768.0468,223.32642,768.4582Q243.63937,766.54767,312.9035,791.32404L527.6002,878.38824L517.83545,890.79694Q516.6053,892.6965,519.1681,898.6386L509.11774,914.2863L514.01996,927.9827Q494.11346,943.7659,494.21198,945.9842Q491.79242,948.74176,503.61176,960.52167Q483.03424,983.92365,483.40002,987.3605L476.3938,1027.0546Q478.32477,1039.1886,491.30206,1057.4974Q504.56927,1073.6034,522.38904,1088.693L529.1802,1088.6945Q499.71265,1069.3275,480.96375,1032.0668L486.8271,988.33777Q490.248,981.11676,507.1632,961.06415Q507.03363,955.9124,498.19855,947.03265L517.492,929.27875Q518.4842,925.42377,512.82166,915.1353Q529.7041,891.368,521.4723,892.0622L530.98755,879.8156Q532.9314,876.2048,528.4176,874.7182Q540.18286,863.30914,566.14307,864.00385L665.7186,870.623Q676.58374,868.91327,686.9878,856.64594Q696.70374,846.305,698.89136,830.6036Q700.68274,818.72626,684.4889,788.44037Q697.7969,777.2658,698.79675,768.1646Q702.19604,751.5538,689.3002,742.0511Q709.37854,735.5878,694.9263,694.07916Q723.1913,677.149,721.0741,659.0545Q719.91675,651.41315,682.7068,608.6001Q672.949,593.57367,668.6188,583.3068Q664.3457,573.51105,664.08765,566.57916Q677.2444,519.7923,667.07605,492.77124Q646.3356,438.88885,619.2019,411.45148Q573.35266,367.28192,513.3067,347.12842Q467.3042,333.77936,382.11078,331.11658 Z M398.27325,584.33105L398.27307,584.3314L398.27295,584.3316L398.27332,584.3318L398.27368,584.33215L398.27362,584.3318L398.27362,584.33124L398.27344,584.33105L398.27325,584.3325 M691.5337,727.0744L691.76624,727.0756Q693.5222,727.10333,694.896,727.41376Q695.776,727.71747,696.1467,728.16473Q696.5398,729.58685,695.6234,731.1878Q694.371,733.5562,691.9313,735.6978Q687.49585,738.6574,684.0801,740.0433L648.7551,741.3067Q655.1018,735.778,666.75256,731.9389Q681.9756,727.2658,691.5337,727.0744 M684.46265,743.70514L684.76685,743.8504Q691.4332,746.98553,693.0574,750.5114Q695.9962,757.14386,695.2217,763.1972Q693.73975,765.5024,687.4133,764.93854Q684.6935,764.6873,682.01624,763.86383Q680.0503,763.4134,674.1322,760.7646Q666.6986,757.4122,649.70276,744.95135L684.46265,743.70514 M406.3069,335.24646L415.51477,335.45282Q525.7095,343.3003,584.03894,385.7945Q565.6315,381.5287,529.30676,387.58954Q498.08014,394.5476,469.32953,415.42267Q459.3003,427.9707,465.64673,436.27985Q468.71173,441.175,471.7912,443.88293Q494.27435,459.6308,501.88043,467.48157Q506.60382,473.04797,503.2301,480.47827Q502.2019,483.33392,493.8083,490.03778Q444.70538,519.92,427.60522,535.9683Q405.55127,556.43024,398.31036,580.0242Q354.57898,544.9459,332.46838,572.16223Q311.77896,607.36707,311.2578,618.91425Q307.64194,635.5489,311.8154,648.8787Q315.19934,663.8288,339.90384,689.8007Q355.34137,703.94183,377.50226,714.5184Q377.58057,716.6049,366.56506,717.77716Q343.4741,719.5131,321.6916,719.2769Q316.53906,719.64557,304.26517,727.58356Q294.29935,732.51996,284.64706,777.9825Q240.33304,763.29584,223.51474,764.9179Q208.53638,702.0373,212.89194,667.7332Q185.54727,611.48236,180.52063,582.6498Q175.48828,534.1583,182.7875,510.0852Q193.39783,468.8756,218.8898,423.00525Q229.74298,401.20276,263.47668,370.89703Q299.77274,337.17755,406.3069,335.24646 M696.9326,717.58673L697.0255,718.2226Q697.55457,722.24664,697.4625,724.54974Q684.6256,721.73615,664.20764,728.9295Q648.52893,734.564,641.448,743.2702Q641.39734,744.1325,642.27795,744.8675Q643.187,745.44354,643.8927,745.2575Q654.76697,753.2509,661.49805,757.6779Q669.8445,763.00397,674.6432,765.06146Q689.8318,770.77594,694.8237,767.9393Q693.42786,773.9709,690.79333,777.2098Q689.3247,779.67816,680.8522,786.6789Q680.4026,787.20917,680.36255,787.6457Q680.31335,788.3682,680.4973,788.7275Q685.04346,797.28156,689.5515,807.2139Q664.224,806.5782,651.79456,798.06036Q644.4407,792.9959,640.35254,786.96234Q634.9741,777.6048,634.38025,771.0052Q633.6687,765.674,633.79346,760.96356L634.1272,756.4091Q634.67017,752.0101,636.04956,748.2325Q638.655,740.86066,645.21826,735.243Q659.3329,724.18427,696.9326,717.58673 M561.1935,386.55188L564.35974,386.60223Q571.3037,386.06,591.9418,391.76752L598.6752,397.3322Q625.2909,420.352,646.8246,455.54248Q665.40295,490.70044,667.6345,512.13367Q669.959,532.9403,660.51086,563.2866Q660.24,570.9924,661.93396,575.9135Q667.45386,592.64484,678.5835,609.3368Q686.38806,621.72845,713.48596,652.5822Q718.1669,661.05133,717.52124,664.01776Q716.7942,670.54694,712.47864,675.2365Q707.9066,680.7712,691.2538,692.22577L691.5242,695.54193Q631.9269,719.40497,627.5746,733.1868Q623.6443,740.9649,622.3727,749.60016L615.88513,814.05316Q613.70593,846.7414,615.6399,863.72186Q541.16724,852.86664,524.229,873.37054Q513.35364,870.4462,488.8216,860.384L328.6946,793.1656L288.17255,779.14667Q296.16443,735.8593,310.5145,726.7878Q311.10132,721.1036,365.42346,721.5616Q376.79865,719.87274,381.74445,716.33905Q391.58173,720.37006,398.53497,718.95416Q403.1397,718.00836,407.8963,709.4965Q408.07782,707.0964,405.44708,707.37714Q399.05634,716.6845,395.76935,715.8005Q387.83685,715.75214,376.46008,710.3189Q326.4501,678.3682,322.963,665.71356Q312.4611,649.1042,313.67252,630.1042Q318.77756,595.8108,334.86673,574.6675Q341.70206,564.1193,362.3958,564.72534Q370.6424,566.4579,381.672,573.1929L413.591,594.5805Q414.96594,593.55133,413.8424,591.7743L401.44092,582.3282Q406.9245,564.649,418.75055,550.2834Q431.66357,532.19446,498.13123,491.30267Q507.2254,483.64764,508.09247,478.49756Q509.6413,470.97333,502.42322,462.80878Q495.52142,456.1258,475.65662,442.37317Q472.62317,440.00104,468.99036,434.84125Q464.96948,429.66766,469.22412,421.35486Q479.1371,410.08105,498.40533,401.9538Q510.2254,394.9732,561.1935,386.55188"/>
</g>
<g style="fill:rgb(0,0,0); fill-opacity:1.0; stroke-linejoin: miter">
<path d="M394.68237,334.41943C343.8494,334.41943,303.44223,343.88226,272.07468,364.6222C239.2013,386.3576,216.1456,420.55096,199.94846,456.9469C183.75177,493.3418,174.4786,531.7924,177.6005,567.2103L177.6005,567.2105C180.72375,602.6421,196.2479,635.1193,211.86267,667.7658L211.86276,667.76605C211.91846,667.88226,211.94684,668.0109,211.94556,668.1391L211.94556,668.13947C211.77713,685.90753,211.61066,703.61066,213.46725,720.1143C215.23648,735.8422,218.84631,750.50006,222.55511,765.1606C222.66629,765.60016,223.06174,765.90765,223.51443,765.90765L223.52325,765.90765C223.86023,765.9047,224.06296,765.904,224.41003,765.904C231.88153,765.904,240.66122,766.68414,253.35416,769.7663L253.35419,769.7663C262.10245,771.89044,272.7171,775.1108,284.3385,778.92303C284.4391,778.956,284.54318,778.97235,284.64685,778.97235C284.82263,778.97235,284.99722,778.92535,285.15167,778.83405C285.39722,778.68854,285.56796,778.44403,285.62015,778.1635C290.3652,752.64703,296.49014,728.08466,317.13876,721.587C317.13895,721.587,317.13913,721.58673,317.13937,721.58673L317.13873,721.58673C323.02875,719.73334,330.07672,719.367,337.39636,719.367C339.70914,719.367,342.0198,719.40314,344.35815,719.4406L344.3529,719.4406L344.6178,719.44635C344.62503,719.4465,344.6322,719.4465,344.6394,719.4465C344.64505,719.4465,344.65073,719.4465,344.65634,719.44635L344.6628,719.44635L344.6982,719.4476C344.70932,719.44794,344.72046,719.4482,344.73157,719.4482C344.74353,719.4482,344.75543,719.44794,344.7673,719.4476L344.77374,719.4476C347.20526,719.48663,349.61847,719.5234,352.0122,719.5234C361.69226,719.5234,370.85938,718.91693,377.94043,715.4067C378.05664,715.3492,378.1604,715.26935,378.24573,715.1717L378.247,715.1702C378.45264,714.93524,378.53528,714.6169,378.47003,714.3116C378.4048,714.0063,378.19928,713.74945,377.91565,713.6191C359.69147,705.2386,330.2481,685.054,318.14075,662.31793C305.3141,638.2309,312.00882,611.482,321.236,592.08203C329.9965,573.6632,341.3305,561.2798,356.28973,561.2798C357.05,561.2798,357.81573,561.31165,358.5937,561.37756C358.61395,561.3792,358.63416,561.3803,358.65436,561.38086L358.648,561.38086C359.69324,561.46936,360.7682,561.6197,361.83954,561.82227L361.83936,561.82227C372.6784,563.87366,385.03107,571.5776,397.72766,580.8242C397.8991,580.94916,398.10364,581.014,398.3105,581.014C398.4137,581.014,398.51752,580.99786,398.6181,580.9649C398.92035,580.866,399.15662,580.62805,399.2533,580.32513C400.57178,576.1949,402.1383,572.18713,403.9959,568.345C408.3805,559.27655,414.37494,551.1479,421.2641,543.807C437.07666,526.95807,457.66418,514.20685,474.4289,503.8297L474.42377,503.8297C474.43073,503.82605,474.43774,503.8224,474.4447,503.81854L474.44708,503.81854L474.4878,503.79327C474.5008,503.78522,474.51355,503.77698,474.52606,503.76837L474.5282,503.76837C486.19733,496.5454,495.90424,490.52863,501.0246,485.0741C501.0251,485.07355,501.02563,485.073,501.02618,485.07245L501.02478,485.07245C501.46643,484.60175,501.8828,484.12463,502.25342,483.6676C502.2541,483.6667,502.25482,483.66595,502.2555,483.66504L502.2544,483.66504C509.44073,474.77667,504.29742,467.35242,495.37915,460.14178L495.37915,460.14178C492.17242,457.54932,488.57593,455.06824,485.01947,452.61646L485.0144,452.61646C484.9948,452.60052,484.97455,452.58533,484.95355,452.57086L484.93378,452.55713L484.914,452.5434L484.91113,452.54156C481.55566,450.22852,478.2544,447.95154,475.4627,445.69446L475.4627,445.69446C472.34674,443.1753,469.84912,440.6684,468.01434,438.15997L468.0091,438.15997C467.99377,438.13416,467.97717,438.109,467.9594,438.08453C461.25385,428.85004,463.77075,419.93097,475.77405,411.21484C491.0271,400.13898,522.10016,388.89062,544.4944,385.2779C550.65356,384.2843,556.1582,383.86707,561.1941,383.86707C569.83264,383.86707,577.073,385.09607,583.802,386.7556C583.8811,386.77515,583.9607,386.78455,584.0393,386.78455C584.4177,386.78455,584.7726,386.56635,584.9374,386.20996C585.13635,385.77966,585.0023,385.2688,584.6177,384.99158C580.01587,381.67523,575.239,378.52008,570.2693,375.54602L570.2521,375.53595L570.25183,375.53577L570.2522,375.53577C570.21875,375.5158,570.19666,375.5025,570.15796,375.47943L570.1537,375.47943C570.1492,375.47626,570.14453,375.47314,570.1399,375.47003L570.1422,375.47003C570.13025,375.4629,570.1229,375.4585,570.11865,375.456L570.11816,375.456C570.11084,375.45135,570.1033,375.44678,570.0958,375.44226L570.07776,375.43158L570.07776,375.43158C521.8305,346.63354,456.28186,335.42444,402.02728,334.48376L402.02722,334.48376C399.5677,334.44122,397.0943,334.41943,394.68237,334.41943 Z"/>
</g>
<g style="fill:rgb(236,154,94); fill-opacity:1.0; stroke-linejoin: miter">
<path d="M627.4071,543.4004Q627.41565,543.4004,627.41907,543.4006L627.41455,543.4006L627.24585,543.4306Q627.32764,543.4004,627.4071,543.4004 Z M582.9552,544.40796L583.05457,544.569L583.05054,544.569Q582.82117,544.59753,582.6598,544.61383L582.6279,544.5228L582.9552,544.40796 Z M614.3253,518.54846Q615.8594,518.54846,620.4481,518.93256L620.4452,518.93256Q624.9072,519.4178,628.98364,520.4486L628.9835,520.4486Q637.6139,522.8161,640.55664,525.62195L640.58105,525.6439Q643.6481,528.2225,643.5178,532.2091L643.5145,532.2091Q642.82275,536.846,638.9081,540.0185L638.89075,540.0332Q635.37585,543.14233,631.07886,543.622L631.0752,543.622Q630.5947,543.6557,630.11743,543.6557Q628.81824,543.6557,627.5282,543.40735C627.4806,543.3982,627.432,543.3958,627.4076,543.3956L627.40393,543.3956C627.38354,543.3956,627.38525,543.39764,627.42883,543.398L627.42847,543.398L627.4159,543.4002Q626.8733,543.34875,620.5554,541.70105L620.53955,541.697Q619.16614,541.38416,617.62354,541.1605L617.6217,541.16034Q615.2245,540.82074,612.47424,540.82074Q611.61145,540.82074,610.714,540.8541L610.7101,540.8541Q607.9746,540.87006,601.1511,541.68475L601.1499,541.68475Q598.26013,541.9646,584.39246,544.3814L584.39185,544.3814Q583.74915,544.4768,583.30164,544.5364C583.208,544.455,583.0864,544.4074,582.95654,544.4074L582.9551,544.4074Q582.67285,544.4074,582.526,544.6263L582.52185,544.6263Q582.41614,544.6347,582.35583,544.6347L582.3528,544.6347Q580.6914,544.3589,580.90405,543.0502Q580.9359,542.85455,581.0023,542.63495L580.9983,542.63495Q581.2134,542.30237,581.47864,542.1368C581.5624,542.0844,581.62976,542.00964,581.673,541.92084Q585.6305,533.7883,588.025,530.6407L588.0249,530.6407Q592.04285,525.5632,593.19727,524.92206L593.2816,524.86383Q595.27576,523.1771,597.7269,521.8813L597.7246,521.8813L600.38306,520.6816L600.38367,520.6816Q604.82056,518.8214,612.8655,518.5741L612.8617,518.5741L613.8031,518.5662L613.8469,518.564Q614.01624,518.54846,614.3253,518.54846 Z M618.5376,575.7095Q620.48535,575.7095,622.6195,576.43097L622.61584,576.43097Q624.0021,577.5224,624.3784,578.28546L624.3783,578.28546Q625.6218,581.0105,624.37244,584.6327L624.3673,584.6488Q623.3208,588.0296,621.161,591.98126L621.15735,591.98126L618.48047,593.566L618.36743,593.6559Q617.7925,594.25977,616.6465,594.9816L616.646,594.9816Q616.1255,595.2939,615.5731,595.5417L615.57117,595.5417Q613.2395,596.4471,611.8473,596.4471Q611.70215,596.4471,611.568,596.437L611.55896,596.4363L608.0803,596.235L608.07654,596.235Q606.9332,596.1225,606.2687,595.9762L606.2648,595.9762L606.26733,595.9769L606.24133,595.97Q603.30396,595.3316,600.0205,593.7169L599.9867,593.70166Q596.8733,592.4346,586.04456,585.21185L586.0405,585.21185Q585.25793,584.5417,585.44336,583.8123L585.4413,583.8123Q585.75134,582.9698,586.34155,582.8346L586.3689,582.82764Q596.3529,579.97217,600.99426,578.7884L601.0116,578.784Q603.82764,578.01935,610.53845,576.5441L610.53467,576.5441Q615.6493,575.7241,617.69824,575.72064L617.704,575.72064L618.22327,575.71423L618.2324,575.71405Q618.3861,575.7095,618.5376,575.7095 Z M384.94843,636.3914C384.9878,636.43024,385.0329,636.4621,385.0818,636.48663L385.07715,636.48663Q385.00323,636.4566,384.94232,636.3914 Z M366.95892,576.3575Q373.96277,576.59454,376.07526,579.1212L376.0846,579.1322Q379.1117,582.5588,379.02332,586.9341L379.02356,586.9639Q379.20367,591.8855,377.9848,598.4395L377.9796,598.4734Q377.43964,603.0053,370.16248,630.4832L370.15826,630.50006Q368.65265,637.0588,369.21503,639.4317L369.2088,639.4317Q369.33636,640.89166,371.146,640.89166Q371.77484,640.89166,372.62897,640.69586L372.69873,640.6746L372.70447,640.6724L372.70465,640.6724Q383.89484,636.62836,385.14508,636.51544L385.15118,636.51544C385.20404,636.533,385.25995,636.5422,385.3169,636.5422C385.3426,636.5422,385.36853,636.54034,385.39447,636.53644Q385.97284,636.4504,386.4854,636.4504Q388.10883,636.4504,389.07703,637.3199L389.14276,637.3702Q389.96674,637.90326,390.54016,640.409L390.5354,640.409L390.74188,642.6807L390.73914,642.6807Q390.67712,648.3692,390.97064,650.4605L390.96918,650.4605Q391.1562,653.1663,393.0714,655.9958L393.0655,655.9958L393.12482,657.73724C393.1328,657.97284,393.2965,658.17426,393.52545,658.2303C393.56714,658.24054,393.60913,658.24554,393.65063,658.24554C393.8371,658.24554,394.0138,658.14594,394.10864,657.9781Q394.2738,657.686,394.479,657.686Q394.5702,657.686,394.68762,657.72504L394.6817,657.72504Q395.8922,658.89484,400.99084,662.6452L400.9906,662.6452Q403.60046,664.67645,404.15155,666.5888C404.1692,666.64996,404.19775,666.7076,404.2359,666.7585Q404.5609,667.1927,403.94275,669.6005L403.9369,669.6005Q403.06384,671.50336,401.0619,672.9628L401.02368,672.99335Q399.54602,674.2972,395.3747,675.73883L395.34015,675.75214Q394.93524,675.92487,394.66455,675.92487Q394.38263,675.92487,394.24597,675.6689C394.15454,675.4974,393.97607,675.39044,393.7818,675.39044L393.77582,675.39044C393.61316,675.39044,393.45966,675.4655,393.36005,675.59406C393.26038,675.7227,393.22577,675.88995,393.2663,676.04755Q393.27386,676.07697,393.27216,676.0888L393.27148,676.0888Q393.2072,676.2093,392.7544,676.32587L392.75452,676.32587Q392.0537,676.5059,390.71454,676.5059Q390.48303,676.5059,390.22064,676.50006L390.21295,676.50006Q385.4364,676.46246,380.38812,674.4788L380.3402,674.4626L380.33893,674.4622L380.34338,674.4622Q376.10126,672.8837,368.8051,668.9183L368.71747,668.88055Q368.23315,668.7221,367.9251,668.04425L367.91888,668.04425Q367.82373,666.4421,369.09198,666.34564L369.09204,666.34564Q369.19543,666.3377,369.30634,666.3377Q369.34827,666.3377,369.39172,666.3388L369.3855,666.3388Q380.0512,671.88873,382.77948,672.5472L382.77728,672.5472Q387.5771,673.9372,390.6151,673.9372Q391.96143,673.9372,392.97723,673.6651L392.98322,673.6651Q393.15796,673.7288,393.2295,673.88776C393.31555,674.07904,393.50513,674.19806,393.70905,674.19806C393.7411,674.19806,393.77338,674.1951,393.80573,674.189C394.0443,674.1446,394.22144,673.9427,394.23462,673.7004Q394.24835,673.4478,394.36707,673.3405L394.36108,673.3405Q397.18958,672.5695,399.58844,670.8145L399.6234,670.7867Q401.66907,669.0047,401.6723,667.716L401.67163,667.68854Q401.61798,666.61066,400.0854,665.31476L400.06036,665.29486Q393.37897,660.3088,392.46564,659.18475L392.43536,659.1506Q390.5028,657.1541,389.65045,655.3477L389.64374,655.33405Q388.77576,653.6246,388.38647,650.9096C388.3797,650.86273,388.3667,650.81696,388.3479,650.77386L388.3463,650.77386Q388.12488,650.07965,388.03107,641.7089L388.02997,641.675Q387.91107,639.8359,387.37866,639.3199L387.37616,639.31757L387.37195,639.31354C387.31805,639.262,387.25385,639.2227,387.1836,639.1978Q386.84473,639.07794,386.3839,639.07794Q385.6845,639.07794,384.65112,639.3555L384.59888,639.3725Q373.71393,643.5544,371.49725,643.5544Q371.32672,643.5544,371.26147,643.5312L371.08752,643.50055Q369.20135,643.4903,368.14,642.4936L368.13983,642.4936Q367.26685,641.66144,366.89948,640.2951Q366.51337,638.8587,366.55145,637.01483L366.54175,636.903Q366.39954,636.17584,367.33447,630.86285L367.33282,630.86285L373.10022,608.50854L373.10297,608.49774Q375.15424,599.78937,375.3369,598.3444L375.3365,598.3444Q377.03278,587.9442,376.26495,585.4093L376.2588,585.4093Q375.54346,580.7277,371.90332,579.646L371.90082,579.646Q370.03247,578.9849,366.714,578.9849Q363.0478,578.9849,357.5592,579.7872Q356.61084,579.57764,356.47113,578.52795L356.4649,578.52795Q356.50085,577.56104,357.46918,577.2268L357.46283,577.2268Q362.92847,576.4436,366.22516,576.36615L366.21893,576.36615L366.9527,576.3575 Z M681.3589,669.8432Q687.74963,669.8432,690.91895,673.9489L690.916,673.9489Q692.4896,676.509,692.3533,677.6856L692.3512,677.7082Q692.21423,679.59235,691.9612,679.8934L691.9608,679.8934C691.9447,679.9095,691.9324,679.9251,691.94714,679.9251C691.97046,679.9251,692.06116,679.88666,692.3108,679.7515L692.3137,679.7515L691.8568,680.04083Q691.53,680.73175,690.751,681.4322L690.73,681.45197Q689.3876,682.7989,685.82764,682.7989Q684.6732,682.7989,683.29297,682.6546L683.27026,682.6528Q679.45544,682.41974,666.6411,678.7994C666.5939,678.7861,666.5458,678.7796,666.49805,678.7796C666.35913,678.7796,666.22363,678.83453,666.1234,678.9362Q664.3688,680.716,660.95874,685.6722L660.95544,685.6722Q660.65686,686.00385,660.01794,686.0549Q659.2804,686.0076,658.91614,685.4473L658.91565,685.4473Q658.567,684.8558,658.82764,684.212L658.82434,684.212Q661.8689,679.37054,665.7533,675.62665L665.7516,675.62665Q669.39905,672.54425,672.0458,671.6474L672.1018,671.6248Q673.30896,671.05414,676.52,670.31525L676.5198,670.31525Q678.3673,669.9455,680.20715,669.8647L680.2041,669.8647L681.1366,669.84454L681.1311,669.84454Q681.2484,669.8432,681.3589,669.8432 Z M561.2025,386.02582L561.1229,386.03046Q491.26294,395.4939,468.82892,421.0074L468.7785,421.07507Q464.3258,428.1654,468.5406,435.114L468.55267,435.13312Q471.48022,439.52454,475.31653,442.77454L475.35455,442.80396Q498.2599,458.8639,502.02777,463.15588L502.0271,463.15588Q509.73175,472.839,507.60223,478.3067L507.58777,478.349Q505.70013,484.7591,497.81354,490.88324L497.8086,490.88324Q438.00012,527.51416,421.41077,546.39655L421.41077,546.39655Q407.1407,562.17596,400.93842,582.1723C400.87292,582.3833,400.9463,582.6128,401.12213,582.7467L413.47217,592.1536L413.46637,592.1536Q414.224,593.2573,413.32593,594.11633L413.32574,594.11633Q413.04462,594.3706,412.66467,594.3706Q412.29663,594.3706,411.8155,594.15155L411.80975,594.15155Q400.28217,582.9989,376.87585,569.8339L376.87122,569.83136Q368.92914,565.4697,360.68976,563.8116L360.5937,563.80133Q360.18365,563.7953,359.77087,563.7953Q340.62396,563.7953,332.51468,577.14233L332.51395,577.14233Q317.0059,600.07056,313.1507,630.03705L313.1505,630.03705Q310.80005,645.22186,322.5047,665.972L322.50443,665.972Q331.79694,683.6495,376.1858,710.7679L376.22363,710.7889Q386.04614,715.7293,394.8969,716.2485L394.89093,716.2485Q395.32544,716.3266,395.7693,716.3266Q400.35687,716.3266,405.75323,707.8763L405.74738,707.8763Q405.88275,707.86676,406.00726,707.86676Q407.37744,707.86676,407.37744,709.25287Q407.37744,709.30524,407.3758,709.3597L407.36993,709.3597Q402.20502,718.5463,397.38623,718.5463Q397.30908,718.5463,397.2257,718.5435L397.0951,718.5556Q395.91376,718.8161,394.4781,718.8161Q389.62085,718.8161,381.93402,715.8481C381.87256,715.8245,381.8084,715.8129,381.7448,715.8129C381.61096,715.8129,381.47937,715.8641,381.37946,715.96027Q378.43152,718.80084,365.37897,721.0356Q364.64655,721.03485,363.92407,721.03485Q316.7107,721.03485,313.85352,724.6164L313.84674,724.6164Q296.65213,730.31903,287.65512,779.0511C287.60785,779.30695,287.7546,779.559,288.00046,779.644L328.50854,793.65814L482.27148,858.24164L482.27252,858.24225Q511.82343,870.5799,524.0924,873.8786C524.1376,873.8907,524.1835,873.8968,524.2289,873.8968C524.3927,873.8968,524.5503,873.82,524.65125,873.68427Q534.3949,860.57465,570.3479,860.57465Q589.32825,860.57465,615.56714,864.243C615.59143,864.2464,615.6157,864.2481,615.6399,864.2481C615.7737,864.2481,615.90356,864.19696,616.00195,864.1036C616.11816,863.9932,616.17773,863.83636,616.1642,863.6768Q614.2361,841.2547,616.4087,814.1059L616.40857,814.1059L622.89624,749.6529L622.8967,749.6529Q624.3131,740.0632,629.04224,731.54034L629.041,731.54034Q638.4861,716.86774,691.71594,696.0318C691.9852,695.92633,692.119,695.6232,692.01526,695.3532Q691.07947,692.91815,691.7377,692.49725L691.7516,692.4881Q710.16296,679.8813,713.87646,674.2492L713.87366,674.2492Q717.272,670.3326,718.04346,664.08234L718.04675,664.04584Q718.2799,659.6685,713.93896,652.31476L713.8812,652.2349Q683.43604,617.5699,677.3977,606.2793L677.3761,606.2427Q666.87683,589.94214,662.8911,576.94617L662.87244,576.8949Q660.7462,571.88184,661.0338,563.3874L661.0305,563.3874Q671.6748,529.16974,667.3887,506.99512L667.38855,506.99512Q664.14734,487.40833,647.2904,455.2979L647.2733,455.26788Q622.9989,415.5982,592.2676,391.3545C592.2147,391.31274,592.1544,391.28162,592.0897,391.26263Q574.3966,386.0761,564.35974,386.0761Q564.2665,386.0761,564.1764,386.07654L561.2025,386.02582 Z"/>
</g>
<g style="fill:rgb(236,154,94); fill-opacity:1.0; stroke-linejoin: miter">
<path d="M696.93286,717.41473C696.923,717.41473,696.91296,717.41547,696.9031,717.4173Q679.96265,720.3693,667.7943,724.2603Q661.7073,726.207,656.8131,728.38934L656.80554,728.39276Q645.67505,734.02423,644.77576,735.5018L644.7722,735.5018Q630.9984,746.96783,634.2097,771.0279L634.2103,771.0318Q634.81055,774.8737,636.0077,778.3503L636.0117,778.3608Q639.52,786.7161,640.9646,787.9842L640.9612,787.9842Q645.1427,793.8245,651.699,798.2034L651.6992,798.2034Q657.4531,802.0549,665.5747,804.2966Q669.6321,805.41644,674.28015,806.1348L674.286,806.13556Q684.98425,807.4086,688.6897,807.4086Q689.1875,807.4086,689.56213,807.38556C689.6183,807.38214,689.6693,807.3514,689.6985,807.30316C689.72766,807.25494,689.73157,807.1956,689.7086,807.1442Q686.21936,799.28253,680.65674,788.66095L680.656,788.66095Q680.4741,788.22723,680.5325,787.6746L680.5321,787.6746Q680.6145,787.19073,680.9635,786.8117L680.9614,786.8117Q686.4426,782.3066,688.9574,779.6712L688.9575,779.6712L688.96216,779.6663Q690.45874,778.0461,691.3589,776.70514L691.35876,776.70514Q693.7822,773.39703,694.9916,767.9766C695.0088,767.89935,694.97107,767.8204,694.90015,767.7852L694.8972,767.78375L694.74927,767.78143Q692.845,768.6518,690.05664,768.6518Q684.26917,768.6518,674.7158,764.9052L674.71484,764.9052Q668.4735,762.0439,661.59656,757.5369L661.5967,757.5369L661.5908,757.5329L661.5879,757.5308Q652.9077,751.7327,643.99524,745.1193L643.84973,745.091L643.8484,745.0914L643.84827,745.0914Q643.69543,745.1292,643.5337,745.1292Q643.01184,745.1292,642.39075,744.7354L642.3882,744.7354Q641.50244,743.99603,641.635,743.13824L641.6315,743.13824Q651.1343,733.21136,664.25916,729.09357L664.2622,729.09247Q680.02295,723.8233,690.0962,723.8233Q694.2396,723.8233,697.416,724.7153C697.4313,724.71954,697.4468,724.72174,697.4623,724.72174C697.4968,724.72174,697.5309,724.71124,697.56006,724.69135C697.60205,724.6624,697.629,724.6164,697.6338,724.5655Q697.7805,722.9665,697.1963,718.2017L697.1957,718.1977L697.1028,717.5618C697.09607,717.5158,697.0709,717.47455,697.03345,717.4473C697.0039,717.42584,696.96875,717.41473,696.93286,717.41473 Z"/>
</g>
<g style="fill:rgb(180,97,53); fill-opacity:1.0; stroke-linejoin: miter">
<path d="M684.458,743.57635L649.6981,744.8226C649.64343,744.82465,649.5958,744.8609,649.5797,744.91327C649.5635,744.96564,649.58215,745.0224,649.6262,745.0551Q656.48267,750.1163,662.07336,753.8044L662.07336,753.8044Q666.62683,756.95953,674.07227,760.8786L674.0774,760.88116Q681.94214,764.57904,687.1145,765.0334L687.1146,765.0334Q688.42126,765.19366,689.6113,765.19366Q690.92834,765.19366,692.1068,764.99774L692.1072,764.99774Q694.1964,764.6624,695.32166,763.2786L695.3324,763.26324Q695.56177,762.87823,695.5593,762.57965L695.55945,762.57965Q695.55176,760.03937,695.345,758.08014L695.3447,758.0787Q694.749,753.0301,692.74243,749.6862L692.7423,749.6861Q690.8884,746.60846,684.8224,743.7341L684.82227,743.7341L684.5182,743.5888L684.458,743.57635 Z"/>
</g>
<g style="fill:rgb(180,97,53); fill-opacity:1.0; stroke-linejoin: miter">
<path d="M691.53345,726.9455Q689.67444,726.9484,686.9397,727.22675L686.93567,727.22736Q684.3661,727.5695,680.5365,728.25946L680.53284,728.25995Q671.01965,730.2552,665.41797,732.263L665.4177,732.263Q660.631,733.9184,656.7921,735.86835L656.7894,735.8698L656.7853,735.872L656.78516,735.872Q654.86816,736.846,653.1885,737.89325L653.183,737.8968L653.1798,737.899L653.17993,737.899Q649.1803,740.58685,648.65564,741.2248C648.6234,741.264,648.6172,741.3184,648.63965,741.36383C648.6614,741.4078,648.7062,741.4355,648.7551,741.4355L648.75977,741.4355Q666.42224,740.8034,684.0847,740.17206L684.1315,740.16144Q688.4359,738.2913,692.0049,735.8034L692.0154,735.79535Q694.2162,733.89935,695.48145,731.6624L695.4811,731.6624Q696.7289,729.78705,696.2709,728.13055L696.23865,728.0744Q695.5066,727.3287,694.50806,727.20685L694.50586,727.20685Q693.4452,726.9854,691.76917,726.94696L691.76697,726.9467L691.5344,726.9455 Z"/>
</g>
<g style="fill:rgb(0,0,0); fill-opacity:1.0; stroke-linejoin: miter">
<path d="M681.1179,672.9167Q677.97485,672.9296,674.7981,673.9189L674.798,673.9189Q673.2374,674.4086,671.8356,675.11334L671.8353,675.11334Q670.7374,675.67,669.76416,676.34894L669.78796,676.48724Q677.0624,678.4847,680.21216,679.0705L680.21265,679.0706Q683.3523,679.6368,683.8185,679.6368L683.81836,679.6368Q684.90796,679.75275,685.82544,679.7541L685.82654,679.7541Q688.4142,679.7221,688.9794,678.86566L688.98303,678.8598Q689.6704,677.5849,688.5238,675.8305L688.5211,675.8267Q687.42114,674.35114,685.70874,673.6784L685.70874,673.6784Q684.9512,673.3758,684.05566,673.19305L684.05493,673.19305Q683.40796,673.0196,681.6393,672.9245L681.6362,672.9245L681.1194,672.9168L681.1179,672.9167 Z"/>
</g>
<g style="fill:rgb(138,18,39); fill-opacity:1.0; stroke-linejoin: miter">
<path d="M223.32645,768.0019L220.7435,768.0479Q208.51532,768.5767,208.37164,773.43427Q206.44598,780.9288,211.43079,801.40814L204.16763,816.9134Q204.56418,846.0302,197.84842,847.1259Q255.08713,864.8637,305.06918,906.84564Q355.78503,948.5621,487.6004,1088.6932L523.1173,1088.6945Q483.349,1056.5844,476.84882,1027.0221Q476.3346,1026.1058,480.5866,1014.73987Q480.7707,997.1559,483.8203,987.53796Q483.28522,984.4255,504.0996,960.5026Q504.253,958.25836,495.73016,950.7299Q494.66547,948.6728,494.67957,945.89264Q493.09918,945.4382,514.5162,928.06696Q515.6673,927.5146,509.74475,919.0472Q509.0019,916.2918,509.55365,914.4207Q509.52167,912.59906,519.59314,898.8045Q517.1423,892.62384,518.1785,891.1004L527.93555,878.07916Q511.86823,873.4069,488.50958,863.7205L327.52356,796.1639L313.04996,790.892Q243.73703,766.096,223.32645,768.0019 Z"/>
</g>
<g style="fill:rgb(83,93,102); fill-opacity:1.0; stroke-linejoin: miter">
<path d="M187.21515,916.67377L184.79156,916.7321Q174.3006,917.1684,149.37564,921.4484Q100.00943,949.658,78.9989,969.06586Q37.995316,1009.37537,-12.462097,1088.694L389.1535,1088.6947L329.31268,1032.2028L346.06494,1008.63684L295.7878,987.943Q257.66116,942.39996,230.88953,926.6694Q210.61096,915.68475,187.21515,916.67377 Z"/>
</g>
<g style="fill:rgb(83,93,102); fill-opacity:1.0; stroke-linejoin: miter">
<path d="M194.28265,848.8483L194.21985,848.852Q186.004,851.99005,176.48477,865.175Q163.47845,886.6944,151.70746,918.1823Q208.0054,906.236,239.5777,928.79974Q271.35483,953.95795,297.3141,985.79944L349.60794,1007.37805Q350.11792,1007.8976,349.74765,1008.9125L332.50385,1031.7164L392.92963,1088.693L483.95654,1088.6947Q354.04803,950.41266,302.28085,908.41095Q253.09988,866.4201,194.28265,848.8483 Z"/>
</g>
<g style="fill:rgb(255,255,255); fill-opacity:1.0; stroke-linejoin: miter">
<path d="M607.7738,580.34106L607.7643,580.342Q603.00037,581.35266,591.05774,584.7239L591.04504,584.80707Q596.8993,588.6342,599.7532,590.1061L599.7533,590.10626Q602.61914,591.56604,603.12646,591.72375L603.12585,591.72375L603.1262,591.72394Q604.20447,592.17706,605.2185,592.49725L605.27783,592.44446Q604.5437,588.6613,607.41113,581.45886L607.4114,581.4585L607.8207,580.4039L607.7777,580.34106 Z"/>
</g>
<g style="fill:rgb(0,0,0); fill-opacity:1.0; stroke-linejoin: miter">
<path d="M204.17929,818.9809L204.16132,818.9958Q202.54312,827.3149,202.94577,838.12225L202.96402,838.13983L202.96411,838.13983L202.98206,838.1248Q204.26498,831.20636,204.20529,819.0007L204.20529,818.9992L204.18707,818.9809 Z"/>
</g>
<g style="fill:rgb(0,0,0); fill-opacity:1.0; stroke-linejoin: miter">
<path d="M205.17657,814.7364L205.17639,814.73676L205.1773,814.73676L205.17657,814.7364 Z M205.17657,814.7369L205.17667,814.7371L205.17795,814.7371L205.17722,814.7369 Z M205.195,814.7409L205.19473,814.7413L205.19455,814.7409 Z M205.19565,814.7426L205.1961,814.7431Q205.1961,814.7431,205.1962,814.7426 Z M205.18823,814.7413L205.19382,814.74225L205.19208,814.74384L205.18668,814.7413 Z M210.66104,803.024L210.66104,803.0324L210.65948,803.0301L210.65665,803.0361L210.65262,803.02826Q207.10645,807.8863,205.17667,814.7349L205.17804,814.73676L205.1784,814.73676L205.17822,814.7369L205.17804,814.73676L205.1773,814.73676L205.17804,814.7371L205.17584,814.7393L205.1753,814.7398L205.1753,814.7413L205.1806,814.7426L205.17859,814.7398L205.1806,814.74005L205.18289,814.7431L205.19107,814.74493L205.19006,814.7459L205.19153,814.74493L205.1951,814.7459L205.19528,814.74554L205.19272,814.7442L205.19556,814.7424L205.1962,814.742L210.67838,803.0389L210.66891,803.024 Z M205.1806,814.7426L205.18604,814.75006L205.19006,814.7459L205.18677,814.7481L205.18289,814.7431L205.1806,814.7426 Z M205.18604,814.75006L205.18576,814.7503L205.18622,814.7503L205.18604,814.75006 Z"/>
</g>
<g style="fill:rgb(0,0,0); fill-opacity:1.0; stroke-linejoin: miter">
<path d="M193.0271,849.3454L193.02637,849.34564Q187.9018,849.79474,180.84344,859.5716L180.85004,859.58466L180.85626,859.5817Q187.26285,852.043,193.03854,849.361L193.03506,849.3454 Z M180.85114,859.58466L180.85004,859.58575L180.85114,859.5861L180.85114,859.58466 Z M180.84839,859.58514L180.84912,859.5866L180.85004,859.58575L180.84839,859.58514 Z M180.84299,859.57635L180.83832,859.5811L180.83759,859.57965L180.83649,859.5811L180.83786,859.5815L180.83484,859.58466L180.83484,859.5861L180.84189,859.58844L180.83868,859.58185L180.84674,859.58466L180.84299,859.58466L180.84299,859.5861Q180.84335,859.58575,180.84363,859.58514L180.84839,859.58514L180.84409,859.57635 Z M180.84912,859.5866L180.84601,859.5899L180.84949,859.591L180.85059,859.58954L180.84912,859.5866 Z M180.84189,859.58844L180.84372,859.5921L180.84601,859.5899L180.84189,859.58844 Z M180.84372,859.5921L180.84299,859.59283L180.84409,859.59283L180.84372,859.5921 Z"/>
</g>
<g style="fill:rgb(0,0,0); fill-opacity:1.0; stroke-linejoin: miter">
<path d="M201.87027,842.3787L201.86624,842.38104Q200.02292,845.8787,198.16473,846.79474L198.16537,846.8033Q198.36136,846.8637,198.55734,846.9261L198.55872,846.9262L198.5632,846.9262L198.56494,846.92584Q200.58704,846.08466,201.88254,842.3847L201.87823,842.3787 Z"/>
</g>
<g style="fill:rgb(0,0,0); fill-opacity:1.0; stroke-linejoin: miter">
<path d="M509.40173,915.0805L509.40173,915.10236L509.3946,915.09735L509.39465,915.0976L509.39325,915.0959L509.38843,915.0959Q509.1181,916.7714,509.73254,919.0505L509.73444,919.0545Q511.0517,920.9378,512.0196,922.4318L512.04285,922.42487L512.04285,922.4234L512.0421,922.41925L509.41846,915.0889L509.4065,915.0805 Z"/>
</g>
<g style="fill:rgb(0,0,0); fill-opacity:1.0; stroke-linejoin: miter">
<path d="M404.64026,828.50995L404.62946,828.5362L404.6297,828.53644L404.62964,828.53644L404.63715,828.5395L488.5041,863.7336L488.50415,863.7337Q508.82275,872.1595,523.6256,876.7933L523.64417,876.7797L523.64417,876.77826L523.63525,876.7651L404.64026,828.50995 Z"/>
</g>
</g>
</svg>