<?xml version="1.0" encoding="UTF-8"?>
<svg version="1.1" viewBox="0 0 414.72 417.44" xmlns="http://www.w3.org/2000/svg" xmlns:xlink="http://www.w3.org/1999/xlink">
 <defs>
  <linearGradient id="ac">
   <stop stop-color="#f55" offset="0"/>
   <stop stop-color="#792d2d" offset="1"/>
  </linearGradient>
  <linearGradient id="ab">
   <stop stop-color="#bad0e2" offset="0"/>
   <stop stop-color="#fff" offset="1"/>
  </linearGradient>
  <linearGradient id="a">
   <stop stop-color="#e9afaf" offset="0"/>
   <stop stop-color="#f6dddd" offset="1"/>
  </linearGradient>
  <linearGradient id="b">
   <stop stop-color="#fff" offset="0"/>
   <stop stop-color="#cedb84" offset="1"/>
  </linearGradient>
  <linearGradient id="aa">
   <stop stop-color="#65962b" offset="0"/>
   <stop offset="1"/>
  </linearGradient>
  <linearGradient id="ae" x1="447.59" x2="485.62" y1="496.85" y2="475.13" gradientTransform="translate(-115.12 -172.25)" gradientUnits="userSpaceOnUse">
   <stop stop-color="#f00" offset="0"/>
   <stop stop-color="#ff9292" offset="1"/>
  </linearGradient>
  <linearGradient id="af" x1="417.26" x2="393.88" y1="278.13" y2="284.19" gradientTransform="translate(-115.12 -172.25)" gradientUnits="userSpaceOnUse" xlink:href="#ab"/>
  <linearGradient id="ag" x1="274.91" x2="298.52" y1="311.77" y2="303.19" gradientTransform="translate(-115.12 -172.25)" gradientUnits="userSpaceOnUse" xlink:href="#ab"/>
  <linearGradient id="ah" x1="344.37" x2="358.44" y1="289.95" y2="338.94" gradientTransform="translate(-115.12 -172.25)" gradientUnits="userSpaceOnUse">
   <stop stop-color="#faa" offset="0"/>
   <stop stop-color="#ff4e4e" offset="1"/>
  </linearGradient>
  <linearGradient id="ai" x1="473.88" x2="510.53" y1="208.66" y2="191.52" gradientTransform="translate(-115.12 -172.25)" gradientUnits="userSpaceOnUse" xlink:href="#a"/>
  <linearGradient id="aj" x1="188.5" x2="170.52" y1="269.1" y2="248.74" gradientTransform="translate(-115.12 -172.25)" gradientUnits="userSpaceOnUse" xlink:href="#a"/>
  <linearGradient id="ak" x1="349.96" x2="348.45" y1="392.9" y2="335.9" gradientTransform="matrix(.76223 -.19551 .17522 .85049 -96.696 -54.906)" gradientUnits="userSpaceOnUse" xlink:href="#a"/>
  <linearGradient id="al" x1="452.26" x2="470.63" y1="230.41" y2="221.49" gradientTransform="translate(-115.12 -172.25)" gradientUnits="userSpaceOnUse" xlink:href="#ac"/>
  <linearGradient id="am" x1="224.91" x2="210" y1="271.43" y2="263.22" gradientTransform="translate(-115.12 -172.25)" gradientUnits="userSpaceOnUse" xlink:href="#ac"/>
  <linearGradient id="an" x1="307.56" x2="303.29" y1="357.27" y2="304.58" gradientTransform="matrix(.22487 0 .083087 .31731 174.54 27.577)" gradientUnits="userSpaceOnUse" xlink:href="#aa"/>
  <linearGradient id="ao" x1="452.55" x2="437.81" y1="367.51" y2="360.18" gradientTransform="translate(-115.12 -172.25)" gradientUnits="userSpaceOnUse" xlink:href="#b"/>
  <linearGradient id="ap" x1="304.73" x2="301.18" y1="355.46" y2="304.94" gradientTransform="matrix(.24014 0 .042248 .3112 120.04 47.545)" gradientUnits="userSpaceOnUse" xlink:href="#aa"/>
  <linearGradient id="aq" x1="298.49" x2="292.38" y1="421.45" y2="400.24" gradientTransform="translate(-115.12 -172.25)" gradientUnits="userSpaceOnUse" xlink:href="#b"/>
  <linearGradient id="ar" x1="288.21" x2="280.18" y1="265.67" y2="229.06" gradientTransform="matrix(.94726 0 .027231 1 -12.069 -198.14)" gradientUnits="userSpaceOnUse" xlink:href="#a"/>
  <linearGradient id="as" x1="423.03" x2="396.72" y1="395.54" y2="400.34" gradientTransform="translate(-115.12 -172.25)" gradientUnits="userSpaceOnUse" xlink:href="#b"/>
  <linearGradient id="at" x1="396.1" x2="377.26" y1="462.76" y2="410.62" gradientTransform="translate(-115.12 -172.25)" gradientUnits="userSpaceOnUse">
   <stop stop-color="#500" offset="0"/>
   <stop offset="1"/>
  </linearGradient>
  <linearGradient id="au" x1="340.91" x2="361.96" y1="417.69" y2="410.11" gradientTransform="translate(-115.12 -172.25)" gradientUnits="userSpaceOnUse" xlink:href="#b"/>
  <linearGradient id="av" x1="290.21" x2="259.69" y1="399.99" y2="370.13" gradientTransform="matrix(1 -.16162 0 .95308 58.08 -158.93)" gradientUnits="userSpaceOnUse" xlink:href="#a"/>
  <linearGradient id="aw" x1="288.21" x2="280.18" y1="265.67" y2="229.06" gradientTransform="translate(-111.01 -176.89)" gradientUnits="userSpaceOnUse" xlink:href="#a"/>
  <linearGradient id="ax" x1="270.92" x2="291.12" y1="394.92" y2="367.59" gradientTransform="matrix(1 0 0 .95308 -114.66 -164.18)" gradientUnits="userSpaceOnUse" xlink:href="#a"/>
  <filter id="ad" color-interpolation-filters="sRGB">
   <feGaussianBlur stdDeviation="7.5661132"/>
  </filter>
 </defs>
 <rect x="62.405" y="15.55" width="347.31" height="347.31" ry=".80977" fill="#87663b" stroke="#fff" stroke-linecap="round" stroke-linejoin="round" stroke-width="10"/>
 <path d="m363.39 18.159c-0.83955 1e-3 -1.6539 0.0147-2.4688 0.0625-25.041 0.0197-50.37 12.554-63.469 34.219-0.5754 0.5405-0.95194 1.109-1.1875 1.6875-0.16749-0.0833-0.33112-0.16839-0.5-0.25-9.1343-5.1025-19.886-6.1934-29.438-9.8438-5.4235-5.1244-12.466-9.1189-20.156-8.6562-6.6096 0.14141-12.278 4.5355-17.031 8.2188-22.792 0.45672-45.753 4.1836-66.812 12.906-12.875-2.826-24.332 7.0008-30.438 17.312-5.729 4.4063-11.529 9.1825-16.875 14.406-1.8862-2.1603-5.3474-3.6029-7.0938-5.5938-12.227-8.6169-27.173-13.102-42.156-12.688-16.321 1.0492-36.034 3.8666-45.344 19-5.9212 11.164 1.0449 23.161 6.3125 32.969 6.4698 12.741 13.773 27.098 27.562 33 11.249 3.3972 23.01-7.2624 21.969-18.688 0.78567-1.7542-1.2664-7.1434 0.9375-6.5625 5.1354 1.9631 9.6488 5.0016 13.813 8.5-0.98021 21.706 7.5098 43.228 4.3125 64.875-11.016 15.167-6.3359 35.707-0.21875 51.969 6.99 19.743 26.321 33.615 47.063 34.938 10.298 0.78174 21.832 2.791 28.219 11.781 11.132 13.413 21.288 27.709 35.812 37.625 21.586 16.543 49.696 29.286 77.438 22.875 0.20178-0.0562 0.39319-0.12911 0.59375-0.1875 4.3656 7.5975 9.8078 14.577 15.812 20.531 17.841 16.553 47.132 22.716 68.688 9.7188 14.651-9.2796 20.841-27.704 17.25-44.312-2.9045-17.063-15.581-31.165-31.25-37.781-5.6-2.9479-11.651-5.1661-17.594-7.5625 5.7124-13.495 9.3904-27.795 10.25-42.531 1.1544-10.39 6.1797-19.88 13.938-26.75 12.738-13.86 20.283-32.986 17.281-52-1.1398-14.886-9.2608-31.05-24.719-34.906-4.3289-1.8847-11.075 0.60257-12.188-5.4375-5.797-10.281-8.783-21.524-10.469-33.156-0.36537-1.7189-0.77726-3.4603-1.2188-5.1875 3.8674-8.1442 8.5801-16.045 16-21.375 1.7078 9.6877 8.0478 20.988 19.219 20.75 12.302 0.25053 18.844-12.897 21.688-23.094 3.9355-13.528 7.3342-27.706 6.625-41.844-2.657-13.667-17.563-18.958-30.156-18.937z" fill-opacity=".43922" filter="url(#ad)"/>
 <path d="m380.1 3.0046c-0.83955 1e-3 -1.6539 0.0147-2.4688 0.0625-25.041 0.0197-50.37 12.554-63.469 34.219-0.5754 0.5405-0.95194 1.109-1.1875 1.6875-0.16749-0.0833-0.33112-0.16839-0.5-0.25-9.1343-5.1025-19.886-6.1934-29.438-9.8438-5.4235-5.1244-12.466-9.1189-20.156-8.6562-6.6096 0.14141-12.278 4.5355-17.031 8.2188-22.792 0.45672-45.753 4.1836-66.812 12.906-12.875-2.826-24.332 7.0008-30.438 17.312-5.729 4.4063-11.529 9.1825-16.875 14.406-1.8862-2.1603-5.3474-3.6029-7.0938-5.5938-12.227-8.6169-27.173-13.102-42.156-12.688-16.321 1.0492-36.034 3.8666-45.344 19-5.9212 11.164 1.0449 23.161 6.3125 32.969 6.4698 12.741 13.773 27.098 27.562 33 11.249 3.3972 23.01-7.2624 21.969-18.688 0.78567-1.7542-1.2664-7.1434 0.9375-6.5625 5.1354 1.9631 9.6488 5.0016 13.813 8.5-0.98021 21.706 7.5098 43.228 4.3125 64.875-11.016 15.167-6.3359 35.707-0.21875 51.969 6.99 19.743 26.321 33.615 47.062 34.938 10.298 0.78174 21.832 2.791 28.219 11.781 11.132 13.413 21.288 27.709 35.812 37.625 21.586 16.543 49.696 29.286 77.438 22.875 24.089-6.7072 39.456-29.187 49.469-50.875 7.9963-16.002 13.234-33.294 14.281-51.25 1.1544-10.39 6.1797-19.88 13.938-26.75 12.738-13.86 20.283-32.986 17.281-52-1.1398-14.886-9.2608-31.05-24.719-34.906-4.3289-1.8847-11.075 0.60257-12.188-5.4375-5.797-10.281-8.783-21.524-10.469-33.156-0.36537-1.7189-0.77726-3.4603-1.2188-5.1875 3.8674-8.1442 8.5801-16.045 16-21.375 1.7078 9.6877 8.0478 20.988 19.219 20.75 12.302 0.25053 18.844-12.897 21.688-23.094 3.9355-13.528 7.3342-27.706 6.625-41.844-2.657-13.667-17.563-18.958-30.156-18.937z" stroke="#000" stroke-linejoin="round" stroke-width="5"/>
 <path d="m263.57 24.192c-0.61435 0.021-1.2212 0.0943-1.8438 0.1875-19.92 2.9809-27.219 37.594-27.219 37.594s1.4173-17.253 9.25-29.594c-8.1524 0.41813-16.599 1.2008-25.312 2.375-12.239 1.6492-23.617 4.7884-34.031 8.9062 14.381 7.7496 22.438 29.312 22.438 29.312s-11.41-22.927-27.094-27.375c-0.19806-0.056-0.39424-0.10616-0.59375-0.15625-0.0314-8e-3 -0.0623-0.0235-0.0937-0.0312-0.44954-0.11087-0.91887-0.20222-1.375-0.28125-0.29623-0.0511-0.60727-0.088-0.90625-0.125-0.0104-1e-3 -0.0209 1e-3 -0.0312 0-0.0209-3e-3 -0.0416 2e-3 -0.0625 0-0.48505-0.0575-0.94577-0.10648-1.4375-0.125-0.52191-0.0202-1.0335-0.0263-1.5625 0-0.62419 0.031-1.2696 0.0901-1.9062 0.1875-0.63334 0.0998-1.2645 0.23326-1.9062 0.40625-0.49742 0.13409-0.98662 0.30027-1.4688 0.46875-0.27384 0.0957-0.54355 0.20619-0.8125 0.3125-0.47235 0.18704-0.9488 0.37552-1.4062 0.59375-0.36915 0.1761-0.73422 0.36718-1.0938 0.5625-0.27701 0.15064-0.54117 0.30718-0.8125 0.46875-0.37053 0.22023-0.73369 0.44793-1.0938 0.6875-0.0883 0.0588-0.19357 0.0963-0.28125 0.15625-0.22633 0.15462-0.43408 0.33811-0.65625 0.5-0.22854 0.16659-0.46334 0.326-0.6875 0.5-0.12365 0.0959-0.25268 0.18315-0.375 0.28125-0.22661 0.18188-0.43417 0.3734-0.65625 0.5625-0.39388 0.33538-0.7765 0.67462-1.1562 1.0312-0.33955 0.31801-0.6716 0.6352-1 0.96875-0.0414 0.0421-0.0838 0.0826-0.125 0.125-0.0104 0.0106-0.0209 0.0206-0.0312 0.0312-0.35512 0.36592-0.68917 0.74259-1.0312 1.125-0.21143 0.2358-0.41849 0.47718-0.625 0.71875-0.27723 0.32476-0.54408 0.6657-0.8125 1-0.0691 0.086-0.15019 0.16342-0.21875 0.25-0.13047 0.16502-0.24662 0.33292-0.375 0.5-0.2916 0.37889-0.59413 0.73645-0.875 1.125-0.34838 0.4823-0.66791 0.97397-1 1.4688-0.59686 0.88926-1.1734 1.8009-1.7188 2.7188-3e-3 5e-3 -0.0286-5e-3 -0.0312 0-6.8927 11.6-9.6875 24.906-9.6875 24.906s0.85708-10.456 5-21.375c-12.761 9.9587-22.093 20.6-27.312 29.25-12.5 20.714-6.8125 50.348-4.3125 63.563 2.5 13.214 1.0938 31.062 1.0938 31.062s-3.7511 3.2132-5.7165 10.98-2.1451 20.087 4.9978 38.301c14.286 36.429 48.576 31.442 58.219 34.656 9.6429 3.2143 14.281 7.1518 26.781 23.938 12.5 16.786 50.009 49.987 88.938 47.844s56.42-49.295 63.562-66.438c7.1428-17.143 4.6428-29.634 10-46.062 5.3571-16.429 35.826-28.166 27.125-72.125-5.8529-29.571-32.125-26.094-32.125-26.094s-4.2946-8.2054-8.9375-18.562c-4.6429-10.357-3.5759-34.991-20.719-58.563-8.5749-11.791-23.522-19.027-42.594-22.469 7.5798 10.17 11.719 22.031 11.719 22.031s-14.955-32.933-34-32.281z" fill="#faa"/>
 <path d="m217.18 222.88a50.634 41.158 0 1 1 -101.27 0 50.634 41.158 0 1 1 101.27 0z" fill="url(#ax)"/>
 <path d="m204.17 92.17a28.75 43.482 0 0 1 -57.5 0 28.75 43.482 0 1 1 57.5 0z" fill="url(#aw)"/>
 <path d="m389.92 174.5a39.818 52.338 67.046 1 1 -101.27 16.367 39.818 52.338 67.046 1 1 101.27 -16.367z" fill="url(#av)"/>
 <path d="m335.13 162.66c-10.105-0.12046-17.219 8.3438-17.219 8.3438s6.9032-4.1735 14.562-4.2188c-9.8021 13.445-33.105 40.433-71.812 56.469-39.215 16.246-81.163-1.8526-100.38-12.406 0.0984-0.0648 0.18217-0.15711 0.28125-0.21875 6.9896-4.3482 16.094-3.8438 16.094-3.8438s-10.969-4.3619-20 1.2812c-9.0308 5.6432-8.375 19.344-8.375 19.344s2.6907-6.2186 6.7188-11.406c28.469 40.364 79.472 125.05 134.94 114.59 1.2095-0.22806 2.3773-0.4937 3.5312-0.78125 4.2771 14.259 12.998 27.397 23.281 37.594 17.841 16.553 47.132 22.716 68.688 9.7188 14.651-9.2796 20.841-27.704 17.25-44.312-2.9045-17.063-15.581-31.165-31.25-37.781-11.395-5.9986-24.612-9.0227-35.125-16.531 9.037-32.989 4.3991-75.68 4.8438-109.69 6.0801 2.6668 11.5 7 11.5 7s-5.9062-12.411-16.531-13.125c-0.33203-0.0223-0.67404-0.0274-1-0.0312z"/>
 <path d="m197.26 229.5c1.117 4.0389 8.8257 30.744 19.062 36.688 11.071 6.4286 30.871 0.17857 33.906-3.75 2.3956-3.1002 1.1751-23.53 0.53125-32.25-19.019 5.3183-37.83 3.4322-53.5-0.6875z" fill="url(#au)"/>
 <path d="m338.57 214.29c-3.937 6.1456-10.879 10.648-16.719 14.75-0.41592 5.5688-5.0436 9.5033-9.4375 12.344-7.996 4.759-17.203 12.25-27.062 8.9062-8.2547-7.12-10.929-18.081-15-27.969-2.9572 1.4675-6.0239 2.8675-9.1875 4.2188-2.1892 0.9351-4.3682 1.7729-6.5625 2.5 0.43702 6.8168 0.91998 13.635 0.90625 20.469 0.17057 6.3564 0.67165 14.542-6.0625 17.875-11.79 5.2453-27.986 8.139-38.375-1.4688-5.9656-1.8868-12.929-1.7275-19.375-3.2188 4.3994 5.5205 9.1467 11.408 14.406 17.656 32.163 38.209 58.768 49.782 86.469 45.594-1.8342-7.7168-2.3298-15.7-1.0312-23.688 0.42245-9.4107 8.9582-17.191 18.438-16.75-0.22623-11.415 10.919-20.358 21.875-19.906 1.117-0.0852 2.2425 0.0143 3.3438 0.1875 0.32691-1.5772 0.68618-3.2687 0.96875-4.625 1.6992-8.1563 2.2784-27.757 2.4062-46.875z" fill="url(#at)"/>
 <path d="m317.91 188.16c-10.14 10.104-24.712 22.189-43.844 32.25 3.5684 9.2528 9.5134 24.333 13.656 26.844 5.8929 3.5714 28.576-10.518 30.719-15.875 1.7221-4.3053 0.17229-32.093-0.53125-43.219z" fill="url(#as)"/>
 <path d="m293.81 70.92a43.509 27.217 87.436 0 1 -54.467 0 43.509 27.217 87.436 1 1 54.467 0z" fill="url(#ar)"/>
 <path d="m273.6 59.911c-16.09 0-25.423 23.95-20.875 53.5 1.9188 12.468 6.0216 23.935 11.312 33.031-7.6051-0.82353-15.783-0.28785-24.094 1.8438-7.6846 1.9711-14.732 5.1171-20.906 9.0938 0.69322-6.9212 0.45943-14.608-0.84375-22.719-4.8509-30.192-22.712-54.656-39.875-54.656s-27.132 24.464-22.281 54.656c2.7006 16.809 9.4475 31.846 17.844 41.875-23.06-2.7062-32.031 8.75-32.031 8.75 21.006-8.576 40.453-5.0949 53.906-0.0625-2.4711 6.8374-3.199 14.029-1.75 21.062 4.9929 24.234 33.67 37.538 64.031 29.75s50.93-33.735 45.938-57.969c-1.4876-7.2203-5.1103-13.454-10.219-18.469 10.371-10.261 27.936-22.578 52.5-22.469 0 0-13.531-7.8333-35.25 5.1562-0.0854 0.0511-0.16504 0.10501-0.25 0.15625 1.6633-8.3648 1.8664-18.326 0.21875-29.031-4.5479-29.55-21.285-53.5-37.375-53.5z"/>
 <path d="m178.98 84.005c-15.906 0-25.152 22.675-20.656 50.656 2.8687 17.855 10.65 33.538 20.031 42.562 7.1626 1.301 13.238 3.444 18.281 5.7812 2.3962-5.6771 5.9903-11.074 10.594-15.906-5.168-1.4839-10.197-10.377-11.656-21.125-1.6002-11.787 1.7136-21.344 7.375-21.344s11.525 9.5568 13.125 21.344c0.72056 5.3077 0.43722 10.141-0.59375 13.875 0.25093-0.18555 0.49561-0.37987 0.75-0.5625 1.1417-7.2871 1.124-15.684-0.3125-24.625-4.4956-27.981-21.032-50.656-36.938-50.656z" fill="#fff"/>
 <path d="m158.13 212.66-1.5312 1.75s10.307 16.814 31.75 44.094c2.9962 0.81012 6.3231 1.5736 9.9375 2.125 3.074 0.46891 6.3151 0.73318 9.5312 0.875-6.9975-9.5681-10.461-21.553-13.875-32.906-21.176-6.1488-35.812-15.938-35.812-15.938z" fill="url(#aq)"/>
 <path d="m274.23 63.817c-14.919 0-23.623 22.194-19.406 49.594 1.9839 12.891 6.4728 24.619 12.219 33.438 1.4798 0.23505 2.9178 0.50405 4.3438 0.84375-4.6195-2.0911-9.854-10.488-12.438-20.562-2.9863-11.645-1.2854-20.576 3.7188-21.094 6.9058-0.71429 12.674 9.0021 15.661 20.647s1.4326 21.272-4.8482 21.54c-0.0417 2e-3 -0.0831 1e-3 -0.125 0 7.2697 2.0137 13.713 5.3814 18.844 9.9062 3.7775-4.4395 8.8338-9.2858 15.531-13.75 2.3874-8.4893 2.9276-19.256 1.125-30.969-4.2169-27.4-19.706-49.594-34.625-49.594z" fill="#fff"/>
 <path d="m213.68 145.97a16.531 7.7556 80.06 0 1 -15.695 0 16.531 7.7556 80.06 1 1 15.695 0z" fill="url(#ap)"/>
 <path d="m335.57 167.25s-5.057 7.885-15.312 18.5c0.79645 13.164 1.8875 26.402 1.3125 39.531 3.4366-2.2334 8.2716-5.6532 11.562-9.0938 1.9289-2.0166 3.8096-4.5514 5.4688-7 0.0586-21.588-0.40625-41.188-0.40625-41.188l-2.625-0.75z" fill="url(#ao)"/>
 <path d="m275.99 127.94a17.341 7.0594 72.299 0 1 -14.697 0 17.341 7.0594 72.299 1 1 14.697 0z" fill="url(#an)"/>
 <path d="m272.81 126.95a11.56 4.4615 73.712 0 1 -9.2375 0 11.56 4.4615 73.712 1 1 9.2375 0z"/>
 <path d="m267.69 120.36a9.736 3.8583 73.037 0 1 -8.0092 0 9.736 3.8583 73.037 1 1 8.0092 0z" fill="#fff"/>
 <path d="m210.68 145.89a11.326 4.5535 79.463 0 1 -9.2375 0 11.326 4.5535 79.463 1 1 9.2375 0z"/>
 <path d="m205.74 137.3a9.0636 3.8898 81.35 0 1 -7.8523 0 9.0636 3.8898 81.35 1 1 7.8523 0z" fill="#fff"/>
 <path d="m85.695 58.786c-3.4564-0.0778-7.0945 0.12024-10.906 0.59375-40.659 5.0508-37.374 25.499-34.344 31.812 3.0305 6.3135 20.205 48.726 37.125 44.938 16.92-3.7881 9.8336-23.462 10.844-36.594 1.0102-13.132 4.8174-25.781 13.656-25.781 5.0433 0 13.111 6.0016 19.125 11.156 2.3506-3.1243 4.9225-6.0844 7.6562-8.9375-7.8532-7.1168-22.253-16.717-43.156-17.188z" fill="#faa"/>
 <path d="m101.1 76.567c-1.472 0.12694-2.8287 0.84597-3.8438 2.4688-5.8994 9.0435-5.0886 20.158-4.6875 30.781 4.148 1.3229 8.5771 3.2743 12.531 6.125 1.0844 0.78181 2.0627 1.552 3 2.3125 0.10022-0.88047 0.20598-1.7438 0.34375-2.625 1.0123-10.385 5.0368-19.613 10.719-27.875-3.398-3.0674-6.9348-5.9716-10.875-8.4062-1.9485-1.558-4.7342-2.9928-7.1875-2.7812z" fill="url(#am)"/>
 <path d="m377.98 7.0983c-3.9387 0.0748-8.387 0.49487-13.438 1.3438-27.778 4.6688-41.754 22.148-47.781 32.625 3.4038 2.0786 6.485 4.5188 9.2812 7.25 4.2948-6.9415 11.104-16.68 16.469-18.281 8.4695-2.5284 15.713 8.487 20.438 20.781 4.7244 12.294 3.5784 33.179 20.875 31.969 17.297-1.2103 21.621-46.771 22.719-53.688 0.96058-6.052-0.99182-22.523-28.562-22z" fill="#faa"/>
 <path d="m345.35 32.348c-0.36706-6e-3 -0.73206 0.0189-1.0938 0.0937-2.4113 0.49905-4.6723 2.6685-6.0938 4.7188-3.7582 4.2232-6.7744 8.9519-9.5938 13.781 7.79 8.6372 13.081 19.619 16.562 30.906 1.3906-2.922 3.4461-6.5235 6.5312-10.531 2.9734-3.8626 6.6851-6.9833 10.281-9.4375-2.6544-10.294-5.0727-21.178-13.312-28.156-1.0776-0.94879-2.1801-1.3575-3.2812-1.375z" fill="url(#al)"/>
 <path d="m300.8 178.88a42.099 53.592 71.153 1 1 -103.63 26.581 42.099 53.592 71.153 1 1 103.63 -26.581z" fill="#e9afaf"/>
 <path d="m294.18 180.58a36.716 46.74 71.153 1 1 -90.379 23.182 36.716 46.74 71.153 1 1 90.379 -23.182z" fill="url(#ak)"/>
 <path d="m333.45 269.4s-17.679-1.0714-19.464 14.643c-1.7857 15.714 14.286 29.464 14.286 29.464s-16.25-6.0714-18.571-23.929c-4.4643 0.35714-15-0.53572-15.179 21.607s18.393 60 51.25 67.321 56.964-11.786 53.393-41.429c-3.5714-29.643-26.786-36.607-36.071-41.429-9.2857-4.8214-28.571-10.357-30.714-15.714s1.0714-10.536 1.0714-10.536z" fill="#f00"/>
 <path d="m226.57 204.07s-3.8554-22.605 4.0406-26.138c9.5964-4.2931 7.0711 15.026 7.0711 15.026s0.7758-12.116-5.177-11.364c-6.0434 0.76306-5.9346 22.476-5.9346 22.476z"/>
 <path d="m278.35 189.58s-7.2977-19.728-15.999-19.185c-10.576 0.66045 0.83971 15.037 0.83971 15.037s-6.4401-9.3612-0.78707-11.3c5.739-1.9683 15.947 15.448 15.947 15.448z"/>
 <path d="m80.695 62.973c-13.027 0.99718-28.636 2.95-36.562 14.719-4.3827 10.591 4.7129 20.063 8.3938 29.39 5.0399 9.4945 10.793 19.839 20.637 24.954 7.2524 2.0648 13.293-6.022 11.719-12.906-0.17628-15.133-2.7597-32.854 7.8438-45.219 5.2094-5.996 14.015-4.6529 19.844-0.40625 2.8918 1.5484 5.5592 4.0674 8.0938 5.5625 1.5959-1.5276 4.1214-3.2647 0.5-4.2188-11.569-8.5217-26.125-12.978-40.469-11.875z" fill="url(#aj)"/>
 <path d="m377.79 11.067c-21.546 0.0688-44.044 10.245-55.438 28.75 1.4608 0.973 2.9865 4.2394 4 0.84375 4.819-7.1838 12.027-17.238 22.125-14.406 11.907 4.6232 16.542 18.166 20.156 29.312 2.196 7.9162 2.236 19.848 11.5 23.188 9.3552 1.4869 13.216-9.3169 15.594-16.344 3.9651-12.514 6.6022-25.74 6.6875-38.812-2.2006-10.677-15.563-12.845-24.625-12.531z" fill="url(#ai)"/>
 <path d="m251.95 91.161-43.656 13.531c4.6004 8.606 8.1278 18.9 9.9062 29.969 1.3032 8.1111 1.537 15.798 0.84375 22.719 6.1739-3.9766 13.222-7.1227 20.906-9.0938 8.3105-2.1316 16.489-2.6673 24.094-1.8438-5.2909-9.096-9.3936-20.563-11.312-33.031-1.223-7.9462-1.4272-15.471-0.78125-22.25z" fill="url(#ah)"/>
 <path d="m178.54 88.036c-10.651 0.902-15.13 13.049-16.531 22.094-2.8575 22.374 2.925 47.136 18.688 63.406 4.7942 0.63396 9.681 3.2776 14.094 3.875 1.7016-3.446 4.2756-6.3816 6.3125-9.625-10.002-10.49-12.37-27.325-7.4688-40.656 2.5528-5.5749 10.174-8.7443 15.281-4.5625-4.4444-13.804-12.397-29.464-27.062-34.25-1.0886-0.18731-2.2045-0.38523-3.3125-0.28125z" fill="url(#ag)"/>
 <path d="m273.32 67.911c-10.612 1.7219-13.823 14.428-15.062 23.531-0.30019 3.7001-1.0657 9.4299-0.0625 12.063 5.5294-3.6757 12.026 0.47082 14.938 5.5 7.4182 10.066 10.95 23.371 8.7188 35.688-2.6207 3.2776 3.7172 2.8921 5.2654 4.9493 2.5574 1.8713 5.0756 3.9513 7.0159 0.48819 4.3005-4.4804 12.098-7.2592 11.156-14.656 2.3734-22.301-3.7358-46.39-19.719-62.469-3.3743-2.9687-7.5314-5.5478-12.25-5.0938z" fill="url(#af)"/>
 <path d="m327.66 273.85c-8.1293 1.5062-11.921 11.007-9.0312 18.219 3.3942 11.554 13.275 19.241 21.188 27.781-14.213-0.29427-27.755-9.3202-32.469-22.844-0.2494-2.8831-1.926-4.0314-4.1562-1.7188-7.0575 7.6564-4.5199 19.431-2.9062 28.75 6.1531 24.748 26.054 48.691 52.312 51.688 16.146 2.4667 35.824-4.4821 41-21.281 6.2306-18.629-2.7608-40.545-20.359-49.355-12.959-7.836-28.61-11.097-41.172-19.52-3.6945-2.6682-4.9724-7.7256-4.4062-11.719z" fill="url(#ae)"/>
</svg>
