<?xml version="1.0" encoding="UTF-8"?>
<svg version="1.1" viewBox="0 0 180 210" xmlns="http://www.w3.org/2000/svg">
 <defs>
  <radialGradient id="r" cx="782.71" cy="612.32" r="4.336" gradientTransform="matrix(1 0 0 2.5628 0 -956.93)" gradientUnits="userSpaceOnUse">
   <stop stop-color="#e9b291" offset="0"/>
   <stop stop-color="#d77135" offset="1"/>
  </radialGradient>
  <radialGradient id="s" cx="910.51" cy="603.24" r="40.329" gradientTransform="matrix(-1.0013 0 0 .79805 989.03 405.77)" gradientUnits="userSpaceOnUse">
   <stop stop-color="#c2ac16" offset="0"/>
   <stop stop-color="#fae871" offset="1"/>
  </radialGradient>
  <filter id="l" color-interpolation-filters="sRGB">
   <feGaussianBlur stdDeviation="0.53921875"/>
  </filter>
  <linearGradient id="n" x1="71.879" x2="82.471" y1="970.77" y2="949.88" gradientTransform="matrix(-1 0 0 1 182.59 -.44432)" gradientUnits="userSpaceOnUse">
   <stop stop-color="#fff" offset="0"/>
   <stop stop-color="#c8c8c8" offset="1"/>
  </linearGradient>
  <radialGradient id="p" cx="-60.112" cy="473.22" r="20.023" gradientTransform="matrix(4.4939 1.1336 -.88248 2.1 769.41 -32.369)" gradientUnits="userSpaceOnUse">
   <stop stop-color="#343434" offset="0"/>
   <stop stop-color="#cfcfcf" offset=".43457"/>
   <stop stop-color="#fff" offset="1"/>
  </radialGradient>
  <radialGradient id="q" cx="-58.492" cy="479.15" r="12.993" gradientTransform="matrix(3.3767 .85721 -.30167 .99222 428.73 477.2)" gradientUnits="userSpaceOnUse">
   <stop stop-color="#007b14" offset="0"/>
   <stop stop-color="#003e0a" offset="1"/>
  </radialGradient>
  <linearGradient id="m" x1="-21.697" x2="-11.416" y1="486.32" y2="492.21" gradientTransform="matrix(3.3697 .50941 -.41905 2.772 327.96 -440.78)" gradientUnits="userSpaceOnUse">
   <stop offset="0"/>
   <stop stop-color="#515151" offset=".5"/>
   <stop offset="1"/>
  </linearGradient>
  <filter id="k" color-interpolation-filters="sRGB">
   <feGaussianBlur stdDeviation="1.8019769"/>
  </filter>
  <linearGradient id="o" x1="106.72" x2="178.78" y1="170.58" y2="133.47" gradientTransform="translate(4.0001 848.36)" gradientUnits="userSpaceOnUse">
   <stop offset="0"/>
   <stop stop-color="#fff" stop-opacity="0" offset="1"/>
  </linearGradient>
  <radialGradient id="t" cx="884.68" cy="691.81" r="63.178" gradientTransform="matrix(-.97225 .17831 .068132 .3715 916.89 558.63)" gradientUnits="userSpaceOnUse">
   <stop stop-color="#efe4aa" offset="0"/>
   <stop stop-color="#e0cb5c" offset="1"/>
  </radialGradient>
 </defs>
 <g transform="translate(0 -842.36)">
  <path d="m147.87 1028.3c15.373-8.7905 39.8-31.003 20.016-47.538s-149.09 14.748-138.86 43.368c10.258 28.699 82.566 24.915 118.85 4.17z" fill="url(#o)" filter="url(#k)" opacity=".8"/>
  <path d="m153.54 1002.4c7.3723 41.904-120.19 55.565-125.3 19.797-6.8968-48.461 23.685-72.316 59.432-76.968 35.747-4.6514 37.351 6.0804 50.384 13.441 33.511 18.927 12 23.928 15.484 43.73z" fill="url(#t)" stroke="#5e5c1d" stroke-linejoin="round" stroke-width="3"/>
  <path d="m62.347 957.49 6.1118 4.6485c-7.5038 3.1913-14.837 9.9078-22.701 16.364l-4.1472-4.1472c3.2111-5.1544 13.058-12.18 20.736-16.865z" fill="#007914"/>
  <path d="m94.697 992.83c-7.9268 3.3722-15.239 5.7508-22.451 6.977l-7.4199-8.4401c7.2051-1.1 14.45-2.3202 22.379-5.5902l7.4918 7.0533z" fill="none" stroke="#aaa748" stroke-linejoin="round" stroke-width="2.0025"/>
  <path d="m145.13 967.27c-2.5927 3.1951-6.0108 6.2112-10.826 8.5973l-8.2765-5.0342c3.6438-1.444 9.2879-4.2863 13.666-7.4148l5.4364 3.8516z" fill="none" stroke="#aaa748" stroke-linejoin="round" stroke-width="2.0025"/>
  <path d="m128.61 1031.5c-7.5706-19.116-1.7078-32.486-7.3131-43.865-6.4963-13.188-15.307-25.487-23.236-28.947" fill="none" stroke="#5d5b1d" stroke-linejoin="round" stroke-width="2.0025"/>
  <path d="m131.02 952.35c-4.4548-1.0562-7.1764-0.37295-10.312 1.1079l-1.8875-3.4476 0.95337-1.6935c2.0242-0.3538 2.4307-0.75813 4.6247-0.51768 2.8877 1.3432 4.1892 2.5695 6.621 4.5508z" fill="#007914"/>
  <path d="m109.04 950.44c8.6768 14.979 11.97 25.477 12.375 38.008-10.111-11.24-21.164-21.679-33.124-31.897l20.75-6.1108z" fill="url(#n)" stroke="#5d5b1d" stroke-linejoin="round" stroke-width="2.0025"/>
  <path d="m119.88 946.63 0.22568 13.429-9.9248-6.2756 9.6991-7.1533z" fill="none" stroke="#5d5b1d" stroke-linejoin="round" stroke-width="2.0025"/>
  <path d="m89.591 958.24-2.7814 10.515-21.628-17.331l24.41 6.816z" fill="none" stroke="#5d5b1d" stroke-linejoin="round" stroke-width="2.003"/>
  <path transform="matrix(-12.404 0 0 4.2106 9798.4 -1661.9)" d="m786.05 612.32c0 5.5849-1.4936 10.112-3.336 10.112s-3.336-4.5274-3.336-10.112c0-5.5849 1.4936-10.112 3.336-10.112s3.336 4.5274 3.336 10.112z" fill="url(#r)" stroke="#8c5f06" stroke-linecap="round" stroke-linejoin="round" stroke-width=".28872"/>
  <path d="m125.87 892.83c1.0336 2.1911 0.98465 2.0666 0.14761 4.4285-8.6628 9.2355-42.294 8.5534-54.102 5.3142-3.4163-0.1588-4.8674 2.9214-4.9452 5.9047-1.093 6.2154-1.0206 12.897-1.1809 19.485-2.2389-0.43324-0.25713 6.4124-2.496 3.7264-4.0009-5.1261-2.1175 14.497 1.9307 25.557-4.8739-6.672-9.3762 1.0916-10.096-1.2632-21.44-70.166 2.6498-77.569 23.356-82.343 20.706-4.7743 40.705 5.0292 47.385 19.19z" fill="url(#s)" stroke="#c0aa37" stroke-linejoin="round" stroke-width="3"/>
  <g transform="matrix(-1 0 0 1 182.12 0)">
   <path d="m56.027 892.15s-18.567 12.02-0.20857 18.935c18.359 6.9148 62.011 5.8971 69.891-2.1202 8.3107-8.4554-37.104-18.393-37.104-18.393z" fill="url(#m)"/>
   <path d="m48.54 886.19 5.2498 7.6981c28.09-4.4978 57.565 8.9716 71.295 15.655 0 0 7.6123-1.7218 10.492-2.8477 10.09-3.9456-63.279-30.975-87.036-20.505z" fill="url(#q)"/>
   <path d="m26.018 871.01c-0.73845 4.3924-0.9824 8.8797 23.909 15.844 22.192-7.2465 68.146 6.4181 82.463 19.471 4.8022 4.3781 23.03-0.40796 23.893-4.3644 0.84606-3.8758-16.372-12.477-28.205-22.723-11.834-10.246-18.283-22.136-43.572-25.673-14.461-2.0223-19.3 3.1253-30.185 7.2719-10.886 4.1466-27.819 7.292-28.303 10.174z" fill="url(#p)" stroke="#858585" stroke-linejoin="round" stroke-width="3"/>
   <g transform="matrix(3.4473 -.003437 -.41905 2.772 494.76 -394.17)" fill="#d5ce24" stroke="#848017" stroke-linecap="round" stroke-linejoin="round">
    <path transform="matrix(.075492 .020677 0 .079297 -46.862 436.48)" d="m-205.23 354.71c-0.97238 0.64396-16.34-8.9412-17.446-8.5708-1.1059 0.37035-7.6023 17.277-8.7664 17.349-1.1641 0.0715-9.6806-15.913-10.824-16.146-1.1429-0.23223-15.222 11.162-16.266 10.641-1.0439-0.52012-0.42694-18.622-1.3006-19.394-0.87369-0.77257-18.764 2.0549-19.408 1.0825-0.64396-0.97237 8.9412-16.34 8.5708-17.446-0.37034-1.1059-17.277-7.6023-17.349-8.7664s15.913-9.6806 16.146-10.824c0.23223-1.1429-11.162-15.222-10.641-16.266 0.52013-1.0439 18.622-0.42694 19.394-1.3006 0.77257-0.87368-2.0549-18.764-1.0825-19.408s16.34 8.9412 17.446 8.5708c1.1059-0.37035 7.6023-17.277 8.7664-17.349 1.1641-0.0715 9.6806 15.913 10.824 16.146 1.1429 0.23223 15.222-11.162 16.266-10.641 1.0439 0.52013 0.42694 18.622 1.3006 19.394 0.87369 0.77258 18.764-2.0549 19.408-1.0825s-8.9412 16.34-8.5708 17.446c0.37034 1.1059 17.277 7.6023 17.349 8.7664 0.0715 1.1641-15.913 9.6806-16.146 10.824-0.23222 1.1429 11.162 15.222 10.641 16.266-0.52013 1.0439-18.622 0.42694-19.394 1.3006-0.77257 0.87369 2.0549 18.764 1.0825 19.408z" stroke-width="6.4624"/>
    <path d="m-65.737 454.53v1.7616c-0.0029 0.0258-0.0045 0.0532-0.0045 0.0809 0 0.50364 0.4895 1.0463 1.093 1.2115 0.60354 0.16522 1.093-0.10909 1.093-0.61273 0-0.0261-0.0019-0.052-0.0045-0.0789v-1.7663l-2.1771-0.59637z" stroke-width=".5"/>
   </g>
  </g>
  <path transform="matrix(-.83668 0 0 .87641 913.43 361.59)" d="m940.57 627.72c-0.35767 2.2506-0.5625 4.5516-0.5625 6.9062 0 23.486 18.52 42.531 41.344 42.531 6.0945 0 11.854-1.3753 17.062-3.8125-3.8482 1.0477-7.8819 1.625-12.062 1.625-25.304 0-45.812-20.474-45.812-45.75 0-0.49879 0.0154-1.0051 0.0312-1.5z" fill="#fbdb9c" filter="url(#l)" opacity=".9"/>
 </g>
</svg>
