<?xml version='1.0' encoding='utf-8'?>
<svg xmlns="http://www.w3.org/2000/svg" version="1.1" width="600px" height="976px" viewBox="0 0 600 976"> <g id="layer1"> <g style="fill:rgb(0,0,0); fill-opacity:1.0; stroke-linejoin: miter"> <path d="M213.10019,587.75476Q233.08008,587.9314,224.80362,587.8582L213.17966,587.7555 M286.9856,385.70963Q242.4733,394.1348,225.8667,409.84805Q219.2746,412.8934,194.0916,496.5927L221.60881,511.96783L227.89258,587.8855L383.6128,589.2612L377.95874,496.55627L422.51068,496.0547Q417.9641,455.08115,414.09326,442.10376Q409.60434,425.81305,401.2547,419.3194Q399.503,417.84222,396.67096,416.21985L388.35077,412.42142L352.00323,391.4901L287.19586,385.7282"/> </g> <g style="fill:rgb(101,54,25); fill-opacity:1.0; stroke-linejoin: miter"> <path d="M319.82977,281.9125Q316.16968,281.73163,313.79483,283.02032Q313.04294,283.1122,305.7252,288.7161L299.84378,291.83728Q294.1058,295.93115,291.8683,300.4485Q291.36795,301.60568,291.20117,302.85782Q290.97888,308.00558,290.7169,308.47098Q287.83295,316.7229,287.963,317.39645Q287.56937,319.2019,287.53125,325.4059L287.16782,328.41315Q287.1448,329.3762,287.4713,330.86707Q289.46948,338.89313,289.64835,340.20346L290.95822,348.25293L355.71533,352.55618Q363.83804,334.5708,364.27414,326.31418Q365.13153,316.92776,359.52792,306.11905Q353.45453,294.0866,343.3705,287.80176Q336.0607,282.89362,319.85123,281.9134"/> </g> <g style="fill:rgb(255,202,169); fill-opacity:1.0; stroke-linejoin: miter"> <path d="M341.31482,310.17773Q339.60696,310.25046,337.91248,310.5747Q328.96933,312.8263,327.04984,312.79056L305.8241,312.78897Q300.51215,313.02798,298.45566,313.98096Q296.41678,314.84146,295.7825,316.76627Q295.3355,317.43713,295.38116,323.122Q295.25027,324.44675,294.93958,325.6961Q294.71097,327.39276,291.0361,336.01978L288.99463,332.90942Q288.38507,332.0707,287.84402,331.85828Q286.89325,331.4523,286.4924,334.32388Q285.68216,345.91556,287.8898,362.55157Q289.2177,371.76306,293.10303,376.80826Q292.79337,383.57056,291.06625,385.15747Q289.61023,387.01642,283.7383,387.16083Q286.3798,394.81766,288.1322,398.60983Q293.2059,410.24695,302.5716,416.0504Q314.78467,423.51392,327.1028,423.58148Q340.71628,423.70648,349.21368,405.4527Q350.64798,402.55627,353.2149,396.48755Q349.03372,393.63458,348.45346,391.22858Q347.4635,388.43286,348.0161,381.3888Q351.8484,378.34735,353.24603,375.26767Q354.7508,372.39075,356.4167,363.76483Q361.08716,359.4112,361.17413,354.02115Q363.0087,339.62613,362.4549,337.89996Q362.1077,336.2772,361.05542,337.24298Q360.32886,337.6242,357.07642,342.4171Q355.97617,340.84778,355.5054,339.69357Q354.7148,337.85907,354.6914,335.2527Q355.76328,323.793,355.45377,322.88565Q355.25427,319.74432,354.35117,317.86383Q350.42044,310.233,341.43048,310.17392"/> </g> <g style="fill:rgb(101,54,25); fill-opacity:1.0; stroke-linejoin: miter"> <path d="M291.20493,328.68433Q289.00262,333.84268,288.1249,348.34225Q287.49048,365.0639,289.16754,370.18237Q301.32376,395.95288,315.03238,401.65247Q324.25607,404.9358,331.2641,400.77643Q333.8212,399.182,336.7991,395.82178L347.2115,383.64194Q349.26862,381.15955,350.59613,379.2183Q354.5582,373.74222,355.97144,366.11127Q356.43045,363.64337,356.57034,361.35712Q356.30676,357.0082,356.64563,354.01413Q356.97253,349.914,358.18176,338.96164L356.82047,341.13428Q353.82687,365.06763,352.50046,367.00574Q352.1441,369.71985,343.3843,375.34784Q342.15237,376.02722,342.20193,375.62958L344.49814,371.28943Q345.02927,369.89636,344.81732,369.01913Q344.4597,367.24664,341.38272,365.9292Q334.04825,363.27515,327.91766,363.24432Q325.82022,363.29117,324.42764,363.90045Q323.2361,364.34702,320.96292,366.26373Q320.60373,366.5215,320.19293,366.4552Q319.8015,366.31854,319.51413,365.98068Q317.9195,363.93823,317.39365,363.49948Q316.6055,362.7857,315.9155,362.44687Q313.88577,361.37033,310.17255,361.1111Q300.96103,360.7059,298.2969,363.1759Q295.9027,365.08215,297.78357,372.29175Q291.61426,365.06345,290.96005,358.87473Q290.5042,355.8429,290.5583,351.61893Q290.4167,351.59042,291.43518,332.70978Q291.5576,328.97162,291.25388,328.70322"/> </g> <g style="fill:rgb(255,202,169); fill-opacity:1.0; stroke-linejoin: miter"> <path d="M339.65643,370.83255L327.39853,378.90256Q327.7956,383.93762,328.9094,385.52722Q329.94202,387.00638,332.09286,385.59628Q334.99872,383.53906,337.15634,379.43823Q339.04712,375.82086,339.65417,370.84775"/> </g> <g style="fill:rgb(255,202,169); fill-opacity:1.0; stroke-linejoin: miter"> <path d="M317.4494,379.0441L313.27536,378.52985Q308.78925,376.10608,307.6739,375.3385Q306.8513,374.80038,306.43378,374.21124L303.3985,369.5914Q304.4236,377.90802,305.1366,379.92892Q305.9776,382.6253,307.9896,383.98456Q310.28882,385.48703,312.474,384.37524Q314.62433,383.2467,317.4426,379.05463"/> </g> <g style="fill:rgb(255,255,255); fill-opacity:1.0; stroke-linejoin: miter"> <path d="M307.06955,367.3741Q310.03006,371.09097,313.24658,372.94995Q316.23132,374.67932,320.3387,374.98264Q324.5943,375.26453,328.28976,373.99445Q331.45746,372.95224,335.91223,369.52344L307.1204,367.37766"/> </g> <g style="fill:rgb(255,255,255); fill-opacity:1.0; stroke-linejoin: miter"> <path d="M309.54984,337.84802Q308.23956,337.85965,307.30664,338.75912Q306.3913,339.6816,306.36157,340.99103Q306.36935,342.29953,307.26968,343.23755Q308.2004,344.15945,309.50677,344.18564Q310.81714,344.17572,311.75128,343.27722Q312.66788,342.3557,312.69907,341.0463Q312.69272,339.7378,311.7936,338.7989Q310.8642,337.87595,309.5579,337.84808"/> </g> <g style="fill:rgb(0,0,0); fill-opacity:1.0; stroke-linejoin: miter"> <path d="M309.54266,339.3441Q308.85028,339.35004,308.35446,339.82684Q307.8689,340.3249,307.85757,341.00558Q307.8654,341.69882,308.33743,342.18976Q308.82538,342.67316,309.5171,342.6896Q310.2095,342.68402,310.7056,342.20743Q311.19144,341.70956,311.2031,341.0289Q311.1956,340.33563,310.72382,339.8445Q310.22266,339.3551,309.54446,339.3441"/> </g> <g style="fill:rgb(255,255,255); fill-opacity:1.0; stroke-linejoin: miter"> <path d="M336.8015,340.08463Q335.49124,340.09625,334.55832,340.99573Q333.64297,341.9182,333.61325,343.22763Q333.62103,344.53613,334.52136,345.47415Q335.4521,346.39606,336.75845,346.42224Q338.06882,346.41232,339.00296,345.51382Q339.91956,344.59232,339.95074,343.2829Q339.9444,341.9744,339.0453,341.0355Q338.11588,340.11255,336.80957,340.0847"/> </g> <g style="fill:rgb(0,0,0); fill-opacity:1.0; stroke-linejoin: miter"> <path d="M336.79434,341.5807Q336.10196,341.58664,335.60614,342.06345Q335.12057,342.5615,335.10925,343.2422Q335.11707,343.93542,335.5891,344.42636Q336.07706,344.90976,336.76877,344.9262Q337.46118,344.92062,337.95728,344.44403Q338.4431,343.94617,338.45477,343.2655Q338.44727,342.57224,337.9755,342.08112Q337.47433,341.5917,336.79614,341.5807"/> </g> <g style="fill:rgb(101,54,25); fill-opacity:1.0; stroke-linejoin: miter"> <path d="M337.49777,335.31033L331.08743,337.88126L345.0711,336.7053L337.51184,335.31293"/> </g> <g style="fill:rgb(101,54,25); fill-opacity:1.0; stroke-linejoin: miter"> <path d="M308.01877,333.45523L314.46954,335.91504L300.4767,334.98004L308.00412,333.45822"/> </g> <g style="fill:rgb(250,84,34); fill-opacity:0.22352941; stroke-linejoin: miter"> <path d="M312.41257,352.49484Q303.95572,357.5073,296.65836,362.5391L301.1336,360.01978L311.322,353.34964L311.3251,353.34964Q309.57742,355.41467,309.18506,356.37338Q308.6811,357.48868,309.13382,358.25388Q309.7515,359.3188,311.8336,360.1441Q313.4014,360.76312,314.71786,360.76312Q315.0885,360.76312,315.4392,360.71405Q312.20966,359.7126,311.03552,359.11636Q309.67813,358.45462,309.4585,357.7819Q309.21246,357.1202,309.7323,356.21378Q309.87894,355.8486,312.4157,352.49484 Z M329.58118,354.10587L329.59,354.11783Q331.9397,357.22452,332.23184,357.75867Q332.80087,358.72824,332.52838,359.41998Q332.27515,360.10638,330.86832,360.773Q329.74445,361.3294,326.56833,362.3262Q326.91415,362.3734,327.2787,362.3734Q328.60263,362.3734,330.17328,361.75055Q332.2811,360.91345,332.88412,359.8268Q333.3197,359.04898,332.77094,357.89032Q332.33875,356.93143,330.67334,354.96274L330.67667,354.96274L340.85403,361.6247L345.3264,364.1417Q337.9455,359.0576,329.58447,354.10587 Z"/> </g> <g style="fill:rgb(237,227,224); fill-opacity:1.0; stroke-linejoin: miter"> <path d="M323.8875,359.7184L324.3642,360.32748L324.2066,360.05475Q324.1693,359.99374,324.12653,359.93896Q324.01953,359.80255,323.88757,359.7184"/> </g> <g style="fill:rgb(237,227,224); fill-opacity:0.105882354; stroke-linejoin: miter"> <path d="M323.28247,340.98233Q323.40506,342.53372,323.77295,344.69864Q323.9457,345.25473,324.05203,345.96625Q324.37656,346.77515,324.5975,347.71155L325.04468,348.5953L325.2159,349.93927Q325.2777,350.34818,325.40387,350.79962Q325.43417,350.96375,325.43896,351.15042Q325.3974,352.0022,325.46985,352.66516Q325.45938,352.93918,325.3825,353.16806L324.93555,354.05234Q324.49988,354.47623,323.91306,355.2619Q323.6077,355.90762,323.67307,355.8548Q323.6954,355.9805,323.88132,356.1036Q324.9955,356.68002,325.47595,357.0747Q325.7019,357.30438,325.72244,357.97458Q325.61725,358.50848,325.20724,358.93683L322.79074,361.24905L320.83237,362.73514Q320.04993,363.53177,319.9637,363.87558Q321.28375,363.4971,322.1186,362.9253L322.5369,362.5952Q322.797,362.23065,323.0063,362.0574L325.29477,360.41953Q325.78674,359.69696,326.0354,359.5816Q326.93246,359.24377,327.34875,359.17212Q329.21188,359.22922,329.9433,359.17365L330.85193,358.8612Q331.34018,358.30795,331.49316,357.41556Q331.5014,356.77402,331.34894,356.2078L330.86053,354.86655Q330.17798,353.87186,330.07642,353.59378Q329.4791,351.98465,328.97418,349.75375L328.0491,347.61612L327.96423,347.25208L323.33023,341.04605"/> </g> <g style="fill:rgb(255,59,0); fill-opacity:0.03529412; stroke-linejoin: miter"> <path d="M314.29193,361.04187Q318.00653,365.86246,320.5784,365.89276Q321.84607,365.92242,323.34518,364.85275Q324.6282,363.96634,326.98697,361.32953L314.31595,361.0424"/> </g> <g style="fill:rgb(255,202,169); fill-opacity:1.0; stroke-linejoin: miter"> <path d="M369.08334,494.54376L366.75647,514.76874L354.412,528.2918Q343.527,529.75354,334.65833,529.883Q320.5736,530.35223,296.53137,525.84015Q286.12076,523.94916,265.38297,519.53394Q258.55908,515.58936,255.54199,515.3321Q252.26111,514.6173,244.61484,517.17725L249.11479,497.9888L194.46542,497.02094L194.36723,497.16614Q192.03448,543.0967,192.70317,549.94116Q192.89682,557.58527,199.32,561.2521Q204.9603,564.85504,223.17825,570.65643Q230.09532,572.962,261.40436,582.0501Q269.11432,584.26807,274.49707,585.26685Q281.85278,586.6895,291.88052,587.04926Q295.71155,587.3369,324.1109,587.399L341.2432,587.93396Q349.2641,588.40894,351.04315,584.92224Q368.0227,584.5578,373.0365,583.1289Q378.04565,582.0284,382.0351,577.6481Q397.90778,580.8532,402.7932,578.99664Q409.6812,576.8222,414.10522,561.73627Q425.96625,513.467,422.31088,495.29016L369.4702,494.54913"/> </g> <g style="fill:rgb(255,98,0); fill-opacity:0.09411765; stroke-linejoin: miter"> <path d="M375.59848,503.7765Q373.4402,503.7765,366.61765,513.392Q371.85385,506.32114,373.95264,506.1764Q374.11456,506.1548,374.26004,506.1548Q375.3182,506.1548,375.5043,507.2985Q375.57996,507.856,375.44168,508.6046Q375.3695,509.13898,374.79373,511.07236Q374.72855,511.3332,374.79077,511.35635Q376.97455,509.135,378.55014,509.00705Q378.7669,508.99097,378.97803,508.99097Q380.94086,508.99097,382.4159,510.3814Q383.69144,511.6707,383.2913,513.4271Q382.96802,515.0935,380.70364,518.19727Q380.68683,518.23315,380.70767,518.23315Q380.73718,518.23315,380.8423,518.1611Q381.8147,517.4285,382.2265,517.1796Q382.65082,516.9145,383.00952,516.752Q383.66232,516.45966,384.13553,516.45966Q384.29758,516.45966,384.43857,516.49396Q385.8224,516.90265,385.95544,519.4842Q386.20483,523.67,380.0035,528.0532L381.21838,528.7182L381.21838,528.7182Q381.15323,528.7149,381.08765,528.7117Q373.54242,528.3371,354.14136,527.9815L354.13782,527.9815L382.4447,529.38947L382.4447,529.38947L382.7523,529.5578Q382.81326,529.4841,382.87366,529.41095L382.87747,529.41095L391.27902,529.82886L391.27863,529.82855Q389.27655,529.3745,387.19647,529.156Q385.61642,528.9812,383.34927,528.83813L383.34543,528.83813Q387.27972,524.0466,388.5325,522.02094Q389.92667,519.8525,389.57144,518.7457Q389.44144,518.25507,388.97992,517.7401L386.43542,515.3551Q385.76538,514.662,385.36002,513.9835Q385.00735,513.3897,384.8152,512.7122L384.0922,509.6431Q383.83768,508.93097,383.46802,508.53952Q383.12598,508.1544,382.44446,507.78714Q379.4999,506.50842,379.32535,506.31735Q378.9235,506.07153,378.56577,505.75238L376.93735,504.2063Q376.35648,503.7955,375.8388,503.7955Q375.83115,503.7955,375.82352,503.7956L375.78052,503.79535Q375.69406,503.7765,375.59848,503.7765 Z M246.91087,516.44403Q243.78065,521.2848,243.35814,525.8616Q243.10162,529.0468,246.09477,531.0145Q248.30411,532.5503,254.53313,534.0723Q270.82053,548.1834,299.72495,563.00037Q306.69702,566.531,319.33322,572.4542L351.17056,584.21234L351.17056,584.21234Q325.70557,574.7692,307.90585,564.83734Q258.34006,538.63257,254.81018,531.958Q254.924,531.7376,249.05287,529.931Q247.94992,529.51385,247.05371,528.9403Q242.65643,527.0749,246.91335,516.44403 Z"/> </g> </g> </svg>