<?xml version="1.0" encoding="UTF-8"?>
<svg viewBox="0 0 744.09448819 1052.3622047" xmlns="http://www.w3.org/2000/svg">
 <defs>
  <filter id="a" x="-1.0755" y="-1.0755" width="3.1509" height="3.1509">
   <feGaussianBlur stdDeviation="19.68186"/>
  </filter>
 </defs>
 <path d="m420.85 559.53c-122.52-168.88-263.11-21.818-269.85 184.47 30.426 22.479 61.762 30.002 82.034-14.203 47.661 37.78 224.08 28.374 281.35-4.0891 10.558 14.623 20.058 62.774 85.186 15.435-5.0635-203.43-124.45-386.98-178.72-181.62z" fill="#3c3c3c" stroke="#000" stroke-linecap="round" stroke-linejoin="round" stroke-width="9"/>
 <path transform="matrix(2.4218 0 0 2.2948 -429.68 -803.54)" d="m317.99 607a21.961 21.961 0 1 1 -43.922 0 21.961 21.961 0 1 1 43.922 0z" fill="#fff" filter="url(#a)"/>
 <path d="m347.86 517.4 105.41-9.6628 16.69 235.42c-33.38 11.016-66.761 10.998-100.14 10.541l-21.961-236.3z" fill="#fff" stroke="#000" stroke-width="9"/>
 <path d="m406.87 534.64c-8.4948 56.004-37.854 75.842-14.908 186.34 20.656 14.516 41.265 27.849 59.63-14.907-1.1856-64.769-22.961-118.1-44.722-171.44z" fill="#85aaff" stroke="#000" stroke-width="9"/>
 <path d="m385.96 573.32-17.084-58.676 68.008-12.858-6.251 61.999-44.672 9.5352z" fill="#85aaff" stroke="#000" stroke-width="9"/>
 <path d="m285.73 492.09-38.511 33.542 33.542 29.815 42.238-4.9692-24.846 24.846 52.176 144.11" fill="none" stroke="#000" stroke-width="9"/>
 <path d="m282 477.18 95.656 90.687 17.392-72.053-113.05-18.634z" fill="#fff" stroke="#000" stroke-width="9"/>
 <path d="m529.5 511.27-12.361 29.959-42.101 6.0176 30.382 17.651-13.517 152.66" fill="none" stroke="#000" stroke-width="9"/>
 <path d="m501.89 458.55-64.599 101.87-26.088-62.115 90.687-39.753z" fill="#fff" stroke="#000" stroke-width="9"/>
 <path transform="matrix(.99993 0 0 1.052 -59.97 9.0539)" d="m625.71 286.65a185.71 185.71 0 1 1 -371.43 0 185.71 185.71 0 1 1 371.43 0z" fill="#ffc6b1" fill-rule="evenodd" stroke="#000" stroke-width="8.7752"/>
 <path d="m178.89 297.05c196.29 19.534 35.994-44.845 139.14-119.26 78.948 23.875 131.94-36.662 216.16 24.846 84.822-82.178-58.626-108.49-127.98-116.79-79.53-9.1782-101.52 5.9211-125.58 23.155-55.231 39.553-91.125 35.679-98.185 78.046-7.712 46.279-12.608 65.863-3.5521 110z" fill="#ffe929" stroke="#000" stroke-width="9"/>
 <path d="m459.65 302.02c10.214-8.2848 22.091-30.195 38.511-1.2423" fill="none" stroke="#000" stroke-width="9"/>
 <path d="m462.13 309.47a43.48 42.238 0 1 1 -86.96 0 43.48 42.238 0 1 1 86.96 0z" fill="#fff" stroke="#000" stroke-linecap="round" stroke-linejoin="round" stroke-width="9"/>
 <path transform="translate(122.99 -2.4846)" d="m462.13 309.47a43.48 42.238 0 1 1 -86.96 0 43.48 42.238 0 1 1 86.96 0z" fill="#fff" stroke="#000" stroke-linecap="round" stroke-linejoin="round" stroke-width="9"/>
</svg>
