<?xml version="1.0" encoding="UTF-8"?>
<svg viewBox="0 0 298.19839 320.40826" xmlns="http://www.w3.org/2000/svg" xmlns:xlink="http://www.w3.org/1999/xlink">
 <defs>
  <filter id="e" x="-.43363" y="-.56472" width="1.8672" height="2.1294">
   <feGaussianBlur stdDeviation="3.61354"/>
  </filter>
  <filter id="d" x="-.07139" y="-.12383" width="1.1428" height="1.2477">
   <feGaussianBlur stdDeviation=".90237"/>
  </filter>
  <filter id="a" x="-.28116" y="-.40813" width="1.5623" height="1.8163">
   <feGaussianBlur stdDeviation="1.86382"/>
  </filter>
  <filter id="i" x="-1.1445" y="-.2289" width="3.289" height="1.4578">
   <feGaussianBlur stdDeviation=".84301"/>
  </filter>
  <filter id="h" x="-.07404" y="-.38816" width="1.1481" height="1.7763">
   <feGaussianBlur stdDeviation="1.56318"/>
  </filter>
  <linearGradient id="c">
   <stop stop-color="#0d9600" offset="0"/>
   <stop stop-color="#319e27" stop-opacity=".98039" offset=".5"/>
   <stop stop-color="#2fff1d" stop-opacity=".96078" offset="1"/>
  </linearGradient>
  <linearGradient id="b" x1="111.34" x2="113.24" y1="66.429" y2="48.62" gradientTransform="matrix(1 0 0 1.0808 -1.1824 -4.8298)" gradientUnits="userSpaceOnUse">
   <stop stop-color="#c9d1c5" offset="0"/>
   <stop stop-color="#0dff29" stop-opacity=".98039" offset=".5"/>
   <stop stop-color="#57ff6e" stop-opacity=".96078" offset="1"/>
  </linearGradient>
  <radialGradient id="f" cx="63.649" cy="69.677" r="10.04" gradientTransform="matrix(2.7608 -7.5715 3.6159 1.1816 -270.59 614.12)" gradientUnits="userSpaceOnUse" xlink:href="#c"/>
  <radialGradient id="g" cx="63.649" cy="69.677" r="10.04" gradientTransform="matrix(-2.7608 -7.6403 -3.6159 1.1924 667.05 617.99)" gradientUnits="userSpaceOnUse" xlink:href="#c"/>
 </defs>
 <g transform="translate(-48.458 -16.155)">
  <path d="m84.683 187.81c2.2951 7.674 3.9149 14.964 5.1047 22.681 0.59492 3.8588 0.97467 7.7526 1.0622 11.711s-0.11704 7.9821-0.69083 12.1c-1.8699 13.419 4.88 44.815 24.162 60.206s37.374 21.757 43.875 27.764 18.947 11.425 23.681 12.775 26.503 1.3693 30.517-0.02967 16.679-8.3968 21.44-12.906 29.794-14.862 41.503-21.971 31.202-22.385 35.309-65.761c3.2039-33.834 19.129-59.38 15.25-52.783l1.5855 2.8047c-14.664-43.246-26.407-39.047-32.432-47.161 0 0-23.958-11.07-42.91-6.8556-28.458-3.7486-35.999-8.3194-65.021-6.4508 0 0-35.6 4.9511-53.324 5.1781-58.593 0.75024-39.243 16.777-40.793 21.168-7.453 21.112-13.918 18.808-8.3192 37.53z" fill="#f5e8de" fill-rule="evenodd" stroke="#f5dac7"/>
 </g>
 <g transform="translate(-48.458 -16.155)" fill="#fff" fill-rule="evenodd" stroke="#edcbb3" stroke-width=".9">
  <path d="m175.02 224.02s-14.364-52.041-67.824-32.229c0 0 10.43 42.249 67.824 32.229z"/>
  <path d="m221.44 224.02s11.521-57.117 67.824-32.229c0 0-10.43 42.249-67.824 32.229z"/>
 </g>
 <path transform="matrix(-2.5355 -.40913 -.52591 1.9705 403.82 98.843)" d="m94.06 73.656s4.3946-7.4609 8.9984-12.812c8.4612-9.8338 16.235-2.1559 20.738 4.0356 0 0-12.147-6.4361-17.364-3.1373-12.118 7.6627-8.3145 6.4124-12.372 11.913z" fill="url(#b)" fill-rule="evenodd" filter="url(#d)" opacity=".66667" stroke="#4c2c10" stroke-width=".26283"/>
 <path transform="matrix(2.5355 -.40913 .52591 1.9705 -104.27 98.843)" d="m94.06 73.656s4.3946-7.4609 8.9984-12.812c8.4612-9.8338 16.235-2.1559 20.738 4.0356 0 0-12.147-6.4361-17.364-3.1373-12.118 7.6627-8.3145 6.4124-12.372 11.913z" fill="url(#b)" fill-rule="evenodd" filter="url(#d)" opacity=".66667" stroke="#4c2c10" stroke-width=".26283"/>
 <g transform="translate(-48.458 -16.155)" fill-rule="evenodd" stroke="#112111">
  <path d="m167.12 207.83s-14.523 18.401-31.253 12.782c-23.91-8.0303-19.168-30.877-19.168-30.877l1.1695-0.40258s37.168-8.1319 49.252 18.497z" fill="url(#f)"/>
  <path d="m229.34 208s14.523 18.568 31.253 12.899c23.91-8.1033 19.168-31.441 19.168-31.441l-1.1695-0.12311s-37.168-8.2058-49.252 18.666z" fill="url(#g)"/>
 </g>
 <g transform="translate(-48.458 -16.155)" stroke="#000">
  <path d="m48.958 154.76z" fill="none"/>
  <g transform="matrix(1.8923 -.47006 .55089 1.593 -30.177 111)" fill-rule="evenodd">
   <path d="m80.857 94.198s2.6574-33.175-26.259-28.177c0 0 24.486 1.1796 26.259 28.177z" stroke-width=".33163"/>
   <path d="m47.708 60.426s1.2699 8.8674 8.7264 5.371c0 0-7.2844 2.712-8.7264-5.371z" stroke-width=".44217"/>
   <path d="m50.842 61.944s0.45394 6.7255 6.7845 3.6876c0 0-6.138 2.4292-6.7845-3.6876z" stroke-width=".44217"/>
   <path d="m53.541 62.162s-1.0477 4.858 4.8922 3.8702c0 0-5.6496 0.59115-4.8922-3.8702z" stroke-width=".44217"/>
  </g>
  <g transform="matrix(-1.888 -.48734 -.56542 1.5879 427.48 112.5)" fill-rule="evenodd">
   <path d="m80.857 94.198s3.3853-33.271-26.259-28.177c0 0 24.918 0.99265 26.259 28.177z" stroke-width=".33163"/>
   <path d="m47.708 60.426s1.2699 8.8674 8.7264 5.371c0 0-7.2844 2.712-8.7264-5.371z" stroke-width=".44217"/>
   <path d="m50.842 61.944s0.45394 6.7255 6.7845 3.6876c0 0-6.138 2.4292-6.7845-3.6876z" stroke-width=".44217"/>
   <path d="m53.541 62.162s-1.0477 4.858 4.8922 3.8702c0 0-5.6496 0.59115-4.8922-3.8702z" stroke-width=".44217"/>
  </g>
 </g>
 <g transform="translate(-48.458 -16.155)" fill-rule="evenodd" stroke="#000">
  <path d="m163.84 203.04s-6.0643 6.9501-12.011 9.4351c-5.8862 2.4599-12.494 2.6241-17.604 0.38003-19.748-8.6732-11.004-23.57-11.004-23.57s-0.90838-0.03025 1.5447-0.19423c10.593-0.70811 20.055-1.9912 39.074 13.949z"/>
  <path d="m232.62 203.04s6.0643 6.9501 12.011 9.4351c5.8862 2.4599 12.494 2.6241 17.604 0.38003 19.748-8.6732 11.004-23.57 11.004-23.57s0.90838-0.03025-1.5447-0.19423c-10.593-0.70811-20.055-1.9912-39.074 13.949z"/>
 </g>
 <path transform="matrix(1.617 -.26923 .33235 1.4362 -126.14 113.7)" d="m118.04 66.875a2.4107 2.4107 0 1 1 -4.8214 0 2.4107 2.4107 0 1 1 4.8214 0z" fill="#fff"/>
 <path transform="matrix(-1.617 -.26923 -.33235 1.4362 427.68 111.7)" d="m118.04 66.875a2.4107 2.4107 0 1 1 -4.8214 0 2.4107 2.4107 0 1 1 4.8214 0z" fill="#fff"/>
 <g transform="translate(-48.458 -16.155)" fill="#191919" fill-rule="evenodd" stroke="#090000" stroke-width=".6">
  <path d="m180.39 194.27s-23.402-54.334-76.929-23.378c0 0 55.039-24.751 76.929 23.378z"/>
  <path d="m212.68 195.43s23.402-54.334 76.929-23.378c0 0-55.039-24.751-76.929 23.378z"/>
 </g>
 <g transform="translate(-48.458 -16.155)">
  <path d="m209.52 264.84s-9.9852 15.409-25.667 0.49932" fill="none" stroke="#edcbb3" stroke-width="1.3"/>
 </g>
 <g transform="translate(-48.458 -16.155)">
  <path d="m212.7 303.56c-6.0902 11.026-13.145 9.0716-17.272 9.3696-1.5523 0.11206-10.654 2.0654-16.816-9.3696-1.9968-3.7052-10.886-9.7028-9.9221-9.5966s2.111 0.30429 3.7198 0.36887 3.1403 0.08735 5.72-0.18189 6.0368-2.1194 8.8626-2.3976 5.7275 3.0613 8.6108 3.1205c5.7665 0.11848 4.6362-3.2798 8.3347-3.1205s6.8897 2.4137 8.7306 2.3976 3.9615 0.23565 5.6429 0.18189 2.802-0.05205 4.3257-0.36887-7.3732 4.9547-9.9373 9.5966z" fill="#800000" stroke="#710e27" stroke-width="1.1"/>
  <path transform="matrix(1.8222 0 0 .85174 124.18 53.856)" d="m46.669 296.79a7.955 5.4801 0 1 1 -15.91 0 7.955 5.4801 0 1 1 15.91 0z" fill="#ff80b2" filter="url(#a)" opacity=".20635"/>
  <path d="m194.52 303.18h1.7678v8.8388h-1.7678z" fill="#890410" filter="url(#i)" opacity=".46154"/>
  <path transform="matrix(.84859 .12439 -.097299 .66375 184.35 95.011)" d="m46.669 296.79a7.955 5.4801 0 1 1 -15.91 0 7.955 5.4801 0 1 1 15.91 0z" fill="#ff80b2" filter="url(#a)" opacity=".20635"/>
  <path transform="matrix(1.0467 .12817 -.070448 .57531 184.57 121.22)" d="m46.669 296.79a7.955 5.4801 0 1 1 -15.91 0 7.955 5.4801 0 1 1 15.91 0z" fill="#ff80b2" filter="url(#a)" opacity=".20635"/>
  <path d="m178.88 299.46c6.1623 5.9993 15.139 3.1228 18.003 3.064 5.4391-0.15632 9.369 2.3689 16.272-4.2282 5.9406-5.6832 3.6859-1.6175 6.5114-3.5394m-40.787 4.7036c-4.3685-3.1379-1.5056 0.05905-9.187-5.1608" fill="none" filter="url(#h)" stroke="#b61454" stroke-width=".7"/>
 </g>
 <path transform="matrix(1.7258 0 0 2.2944 -239.8 77.174)" d="m191.07 76.964a10 7.6786 0 1 1 -20 0 10 7.6786 0 1 1 20 0z" fill="#fb96be" filter="url(#e)" opacity=".528"/>
 <path transform="matrix(1.4125 .99153 -1.3182 1.878 71.55 -65.674)" d="m191.07 76.964a10 7.6786 0 1 1 -20 0 10 7.6786 0 1 1 20 0z" fill="#fb96be" filter="url(#e)" opacity=".528"/>
 <g transform="translate(-48.458 -16.155)">
  <path d="m237.8 18.149c-15.651-1.7417-30.376 1.7468-41.357 8.7364-6.6386-3.1963-14.178-5.4036-22.272-6.3043-30.392-3.3822-57.268 12.933-60.029 36.404s19.633 45.234 50.026 48.616c15.655 1.7422 30.375-1.7427 41.357-8.7364 6.6399 3.1977 14.171 5.4373 22.268 6.3383 30.392 3.3822 57.268-12.933 60.029-36.404s-19.629-45.268-50.022-48.65z" stroke="#262323" stroke-linecap="square" stroke-width="3.1"/>
  <path transform="matrix(.47058 0 0 .47058 -80.906 -65.023)" d="m489.32 257.57a26.516 26.516 0 1 1 -53.033 0 26.516 26.516 0 1 1 53.033 0z" fill="#bc0e0e" fill-rule="evenodd" stroke="#7f1e17" stroke-linecap="round" stroke-linejoin="round" stroke-width="8.5001"/>
  <path transform="matrix(.15413 0 0 .2028 114.07 15.772)" d="m198 186.36a50 38 0 1 1 -0.01342 -0.88052" fill="#fa4040" fill-rule="evenodd"/>
  <path transform="matrix(.47058 0 0 .47058 -30.96 -77.897)" d="m489.32 257.57a26.516 26.516 0 1 1 -53.033 0 26.516 26.516 0 1 1 53.033 0z" fill="#bc0e0e" fill-rule="evenodd" stroke="#7f1e17" stroke-linecap="round" stroke-linejoin="round" stroke-width="8.5001"/>
  <path transform="matrix(.15413 0 0 .2028 164.02 2.8987)" d="m198 186.36a50 38 0 1 1 -0.01342 -0.88052" fill="#fa4040" fill-rule="evenodd"/>
  <path transform="matrix(.47058 0 0 .47058 -55.933 -75.897)" d="m489.32 257.57a26.516 26.516 0 1 1 -53.033 0 26.516 26.516 0 1 1 53.033 0z" fill="#bc0e0e" fill-rule="evenodd" stroke="#7f1e17" stroke-linecap="round" stroke-linejoin="round" stroke-width="8.5001"/>
  <path transform="matrix(.15413 0 0 .2028 139.04 4.8987)" d="m198 186.36a50 38 0 1 1 -0.01342 -0.88052" fill="#fa4040" fill-rule="evenodd"/>
  <path transform="matrix(.47058 0 0 .47058 -5.9871 -77.897)" d="m489.32 257.57a26.516 26.516 0 1 1 -53.033 0 26.516 26.516 0 1 1 53.033 0z" fill="#bc0e0e" fill-rule="evenodd" stroke="#7f1e17" stroke-linecap="round" stroke-linejoin="round" stroke-width="8.5001"/>
  <path transform="matrix(.15413 0 0 .2028 188.99 2.8987)" d="m198 186.36a50 38 0 1 1 -0.01342 -0.88052" fill="#fa4040" fill-rule="evenodd"/>
  <path transform="matrix(.47058 0 0 .47058 18.986 -75.897)" d="m489.32 257.57a26.516 26.516 0 1 1 -53.033 0 26.516 26.516 0 1 1 53.033 0z" fill="#bc0e0e" fill-rule="evenodd" stroke="#7f1e17" stroke-linecap="round" stroke-linejoin="round" stroke-width="8.5001"/>
  <path transform="matrix(.15413 0 0 .2028 213.96 4.8987)" d="m198 186.36a50 38 0 1 1 -0.01342 -0.88052" fill="#fa4040" fill-rule="evenodd"/>
  <path transform="matrix(.47058 0 0 .47058 43.959 -65.023)" d="m489.32 257.57a26.516 26.516 0 1 1 -53.033 0 26.516 26.516 0 1 1 53.033 0z" fill="#bc0e0e" fill-rule="evenodd" stroke="#7f1e17" stroke-linecap="round" stroke-linejoin="round" stroke-width="8.5001"/>
  <path transform="matrix(.15413 0 0 .2028 238.93 15.772)" d="m198 186.36a50 38 0 1 1 -0.01342 -0.88052" fill="#fa4040" fill-rule="evenodd"/>
  <path d="m88.316 198.18c2.7799-12.911-2.0949-29.015 14.625-47.831s38.745-16.584 33.329-22.646c-13.598-15.221-8.2182-49.04-2.6589-66.327-35.703 6.7005-50.145 14.537-62.457 27.188-17.545 18.03-19.666 48.584-16.605 63.591 6.9848 34.246 32.009 54.194 33.767 46.025z" stroke="#262323" stroke-linecap="square" stroke-width="3.1"/>
  <path d="m260.61 131.85c-15.792 9.2892-37.605 15.037-61.686 15.037s-45.894-5.748-61.686-15.037-15.792-63.28 0-72.569 37.605-15.037 61.686-15.037 45.894 5.748 61.686 15.037 15.792 63.28 0 72.569z" stroke="#262323" stroke-linecap="square" stroke-width="3.1"/>
  <path d="m310.17 200.18c-2.7799-12.911 2.0949-29.015-14.625-47.831s-38.745-16.584-33.329-22.646c13.598-15.221 8.2182-49.04 2.6589-66.327 35.703 6.7005 50.145 14.537 62.457 27.188 17.545 18.03 19.666 48.584 16.605 63.591-6.9848 34.246-32.009 54.194-33.767 46.025z" stroke="#262323" stroke-linecap="square" stroke-width="3.1"/>
 </g>
 <g transform="translate(-48.458 -16.155)" fill="#f5e8de" fill-rule="evenodd" stroke="#f5dac7" stroke-linecap="round" stroke-linejoin="round" stroke-width="1.3">
  <path d="m91.885 197.78c-1.0368-1.3715-1.9216-1.6821-3.8099-3.1244-3.7767-2.8847-9.0714-4.6105-15.143 0.02483-10.52 8.0311-7.197 22.605 0.85258 33.12 6.2417 8.1538 12.65 15.159 17.498 20.127"/>
  <path d="m308.11 201.58s8.6818-16.174 20.351-6.9034c10.109 8.0311 7.8152 22.706 0.08024 33.222-5.9977 8.1538-15.585 15.613-20.244 20.58"/>
 </g>
</svg>
