<?xml version="1.0" encoding="UTF-8"?>
<svg enable-background="new 0 0 500 500" viewBox="0 0 500 500" xmlns="http://www.w3.org/2000/svg">
 <defs>
  <linearGradient id="f" x1="143.1" x2="357.23" gradientUnits="userSpaceOnUse">
   <stop stop-color="#533f2b" offset=".0368"/>
   <stop stop-color="#ad8463" offset=".1043"/>
   <stop stop-color="#ad8463" offset=".8834"/>
   <stop stop-color="#533f2b" offset=".9571"/>
  </linearGradient>
  <linearGradient id="c" x1="243.53" x2="247.44" y1="183.41" y2="215.24" gradientUnits="userSpaceOnUse">
   <stop stop-color="#f7d5ba" stop-opacity="0" offset=".0798"/>
   <stop stop-color="#f7d5ba" stop-opacity=".9505" offset=".3436"/>
   <stop stop-color="#f7d5ba" stop-opacity="0" offset=".5337"/>
  </linearGradient>
  <radialGradient id="e" cx="242.12" cy="165.18" r="55.993" gradientTransform="matrix(1 0 0 .79 0 34.687)" gradientUnits="userSpaceOnUse">
   <stop stop-color="#f1c0a0" offset=".7485"/>
   <stop stop-color="#dba581" offset="1"/>
  </radialGradient>
  <radialGradient id="d" cx="241.66" cy="158.44" r="17.403" gradientUnits="userSpaceOnUse">
   <stop stop-color="#f7d5ba" stop-opacity=".9505" offset=".2945"/>
   <stop stop-color="#f7d5ba" stop-opacity="0" offset="1"/>
  </radialGradient>
  <radialGradient id="b" cx="250.55" cy="275.87" r="7.5651" gradientTransform="matrix(1 0 0 1.3 0 -82.761)" gradientUnits="userSpaceOnUse">
   <stop stop-color="#fde3d7" offset="0"/>
   <stop stop-color="#fde3d7" stop-opacity="0" offset=".8834"/>
  </radialGradient>
  <radialGradient id="h" cx="143.69" cy="225.65" r="7.1327" gradientTransform="matrix(-1 0 0 1 347.77 0)" gradientUnits="userSpaceOnUse">
   <stop stop-color="#341200" offset="0"/>
   <stop stop-color="#8a4e29" offset="1"/>
  </radialGradient>
  <radialGradient id="g" cx="145.52" cy="224.62" r="2.183" gradientTransform="matrix(-1 0 0 1 347.77 0)" gradientUnits="userSpaceOnUse">
   <stop stop-color="#fff" offset="0"/>
   <stop stop-color="#fff" stop-opacity=".11" offset=".8282"/>
  </radialGradient>
  <radialGradient id="i" cx="288.03" cy="218.36" r="7.1521" gradientUnits="userSpaceOnUse">
   <stop stop-color="#341200" offset="0"/>
   <stop stop-color="#8a4e29" offset="1"/>
  </radialGradient>
  <radialGradient id="a" cx="288.12" cy="219.12" r="2.183" gradientUnits="userSpaceOnUse">
   <stop stop-color="#fff" offset="0"/>
   <stop stop-color="#fff" stop-opacity=".11" offset=".8282"/>
  </radialGradient>
 </defs>
 <path d="m362,261c.5-3 0-13.5.5-16.25-1.75-3.75-6-8.5-7-8.75-.795-.199-2.697.541-4.7.73 .841-4.529 4.205-23.741 4.45-36.48 .25-13 1-24-8-42.75s-11-16.25-16-24-21-23.5-30.75-30-20.25-7.5-28-9-21.25-5.5-30.25-6.5-20.75,2.75-28,5-18.25,6.5-29.75,13-20,11.75-25,19-11.75,10.25-13.5,16.75-.75,7-.75,7-5,5-9,22.5c-2.75,8.5-9.75,27.75-3.5,46.25 1.75,4.75 3.5,11.75 3.5,11.75s2,21.5.75,24.75c.236.131.448.234.655.332-1.294.326-2.771.883-4.031,1.672-.354.16-.73.328-1.124.496-.533.484-.912,1.063-1.17,1.697-.365.614-.58,1.297-.58,2.053 0,4-1.25,12.5 1.25,18.75 1,2.75 2.25,4.25 2.25,4.25s1.5,3.75 2,6.75 5.5,18.75 8.75,22.5c-1.75,7 6.75,12.5 6.75,12.5s-.027-.055-.073-.146c.919.779 1.763,1.406 2.323,1.646 1.531.656 3.637-.027 4.139-.209l.195.358c.365.938.666,1.601.666,1.601s-.01-.223-.033-.623c.167.229.283.373.283.373s.069-.487.128-1.367c.838,4.139 1.605,8.48 2.289,13.034 1.445,9.636 3.588,12.31 7.559,18.083 1.83,3.504 3.85,6.775 5.915,9.358 4.212,7.041 10.058,13.152 15.945,18.678 2.236,2.286 4.726,4.683 7.486,7.16 .075.589.15,1.175.226,1.759 .096,2.355.076,4.446-.13,5.962 .698,2.595 1.461,5.065 2.422,7.341 .352,1.122.875,2.314 1.661,3.492l.26.264c2.19,3.54 5.255,6.325 9.99,7.903 2.254.402 3.843.629 5.005.743 1.392.165 2.645.154 3.745.09 1.351-.079 3.562-.159 6.147-.23 4.923.37 12.255.966 17.436.73 4.472-.203 11.916-.779 17.877-1.727l1.789-.023c2.215,0 4.18-.813 5.745-1.783 .356-.15.669-.307.922-.467 .909-.578 1.674-1.074 2.312-1.494 .702-.242 1.368-.494 2.021-.756 1.08.034 2.183-.209 3.287-.652 1.143-.104 2.621-.546 4.38-1.764 3.412-2.362 7.435-6.183 9.157-12.254 1.03-1.744 1.788-3.277 2.176-4.33 .176-.479.32-1.114.439-1.864 5.514-5.366 11.134-10.626 16.894-15.886 .515-.607 1.03-1.237 1.546-1.878 4.617-5.326 10.962-14.805 14.871-22.622 5-10 7.5-24.75 8-39.75 5,0 11-.25 13.5-5.25s3.75-5 3.5-8.25c.75-5.75 2.5-20 6.25-26.75s1.5-9.5 2-12.5z" opacity=".83"/>
 <path d="m236.5,75.5c0,0-58.5,6-82.5,52-18,29.5-8,64-7.5,79.5s1,21 0,24c-2.75.25-8.75,2.25-8.75,6.25s-1.25,12.5 1.25,18.75c1,2.75 2.25,4.25 2.25,4.25s1.5,3.75 2,6.75 5.5,18.75 8.75,22.5c0,4.25.75,6.25 1.75,7.5s5.5,5.75 7.25,6.5 4.25-.25 4.25-.25 1.5-.25 2.25.75c0,3.5 0,6.75 2.25,14.75s7.25,19 12.5,25.5 13,17.25 28,29.75c6,5.25 13,14.5 27,15.5s16.25.25 19.25.25 10,2.25 19.25-.25 16.25-8.25 21.25-13.25 7.25-7.25 7.25-7.25 9-9.25 13.25-12.5 13.25-16 18.25-26 7.5-24.75 8-39.75c5,0 11-.25 13.5-5.25s3.75-5 3.5-8.25c.75-5.75 2.5-20 6.25-26.75s1.5-9.5 2-12.5 0-13.5.5-16.25c-1.75-3.75-6-8.5-7-8.75s-3.75,1-6.25.75c-.25-4.75 4.25-48.5-3-67.5s-17-43-41.25-56.25-51.25-15.75-75.5-14.5z" fill="#e2aa81"/>
 <path d="m226.667,132.667c0,0-3.334-.334-13.667-8.667-10.333-6-25.666-14.667-37.333-8s-11.333,16-10.333,22.333c.333,5.333-3,10-7,16-2.333,5.667.333,12.333 3.333,19.333 2,8.333 3,19 4,23 1,7 1,9.333-.333,13.333s1.333,4.333 4,1.333 9.333-11.333 13-13.667c6.667-.333 40.333-8 47.333,3.667 2.333,5 4.333,9.333 4.333,9.333l-11.667-5c0,0-19.667-2.667-26.667-1s-20.667,4.333-26,13c-.667,5.333.667,11 1.667,12.333-2.333,1.667-7.667,0-7.333,8s2.334,14 2.667,20.667-.667,29.333 1,34.667 7.667,19.999 10,27.666c3.667,8 7.333,8.334 7.333,8.334s-4.666-11.001-7.333-15.334-8.667-21.331-8.667-24.664c2-4.667 4-4.667 3.667-8 2.667,6.333 1,11.666 3.667,15.666s5,6.001 7.333,14.334 2,11.334 5.667,14c2.333,6 6.667,6.999 12.667,19.666s12.667,27.334 39,27.334 42.334,2.667 50.334-11 9-24.001 15.333-31.334 7.667-10.666 8-12.666c-2.333,0-3.667-1.667-3.667-1.667s13.999-10.667 10.999-26.667c-2.666,4.334-5.333,8.333-8.333,9 4.667-7 8.334-16.667 2.667-31 3.666-10.666 16.334-16 16-26s-5.334-25-10.667-31.667-14.333-10.667-14.333-10.667-15.334-.333-20.667-.666c-4.667.667-11,2.667-15,2-3.333,2.333-12,9-12,9s-4.333-6.667-2.333-10 5.333-6 5.333-6-1,2.667 1.667,4c3-3.333 3.333-6 3.333-6s14.333-.333 20.333-2 13-3.667 16-2.667 8.334,5 8.334,5-13.333-10.667-9-36.667c-2.667-10-2.667-15.333-11.667-20.333-8.333-6.333-21.667-6.333-30.667-16.333-3.666-12.333-7.667-30.333 10.334-29s49,26.667 48.333,47c.333,18-5.334,25.334-2.667,32.667s1.334,9.666 6.667,13.333c1-14 .334-26.333 4.667-39 0-9.333-14.001-74.667-76.334-56.667-15,8-31.333,1.667-44-3.333 12-8.333 98.333-19 129.667,31.333 21,36.667 20.333,45.667 19,86-.333,7.667-.417,13.417-.417,13.417l-4.583,1.917c0,0-2.667,12-1,22s2.667,20.666 1,24.333-5,7-5,7-2.333.333-3.333,17-.001,25-6,40.334c-3,7.666-10.668,20-18.001,28.666-7.666,7-15.083,14-22.333,21.25-8,6-15.5,17.5-40.5,13.5-23.167,1.25-28.5.251-44.5-14.083-9-9-22.666-18.999-30.333-32.333s-11-13.334-13-26.667-4.667-25-8-34.333c-3.333-4-6.333-10.667-6-18.667s-2.667-19-4.333-23-2-7.667-1.667-8.667l-1.333-.333s-1.334-18.667-3.667-43.667c-1.333-17-1.001-39 8.666-57.667 9-15.333 24-36.667 55.667-47.333 32,12 38,3.333 44,3.333-1,5-14.666,43.667-25.333,46.334z" fill="url(#f)" opacity=".53"/>
 <path d="m352.75 224.75s5.25-6.5 8-5.25 4 10.25 3.5 15.75c-0.75-4-1.5-12.75-4.25-12.75-2 0.75-3.5 1.5-4.5 3.75s0 3.25-2.75 4.25c-1.25-2.75 0-5.75 0-5.75z" fill="#ad8463"/>
 <path d="m360.25 227.5s-0.75 7.5 1.75 12.5c-0.25 7.25-0.75 25-7.75 31.25 1 2 5 5.5 3.25 10.25s-4 5-4 5 2-5-0.75-4-6.5 3-8.5 2.25c0-3.75-1-6 1.5-6.75 2.25 0 8.25 1 8.25-1.75-2-2.25-4.75-2-4.75-4s-0.25-4.5 2-5.5c2 0 4.25 1.25 7-9.75 0.5-7 1.75-9.5-3-18.75-1.5-6.25 1.75-7 1-10s-1.25-4.75-1.25-4.75l3.5-1.75s1.75 2 1.75 5.75z" fill="#ad8463"/>
 <path d="m153,254.75c0,0-3.25.25-3.25,11 1,5 2.25,6.5 2.25,6.5 .25,2.75 2.25,7.5 6.75,10 2.25,2.25 5.25,10.5 6.25,15.5-3.25-1.75-2.75-1-4.75-5.25-1.5-.25-5,0-4,4.5l2.5,5s-8.5-5.5-6.75-12.5c-.25-2.25-.75-4.75-.75-4.75s2,4.75 4,4.5 2.75-2.5.5-5-4-3.75-8.75-17c-1-8.5 1.25-22.5.25-24s-6.5-4-7.5,0c-1.75-2.25-3-7.25-.25-9.75 1.75-.75 3.25-1.5 3.25-1.5s-2,6.25 2.75,7c2.25-1.25 1.833-7.333 1.833-7.333s7.917,13.083 5.667,23.083z" fill="#ad8463"/>
 <path d="m287 318.67s6.667-1.333 9.667 9.667c3 5.666 5.333 8.666 9.333 3.333s7.001-7.001 8.334-12.667 4.667-9.666 5-17.333c-3.334-0.333-9.667 4.334-12.667 8.667s-9.666 1-12.333 0c-2.334 0.666-7.334 8.333-7.334 8.333z" fill="#f2c0a0"/>
 <path d="m279.33 260.67s4.667 12.333 10 16c4.666 3.333 5.999 7.333 9.666 10s16.333 4.667 20-3c0.334-5.667 1e-3 -14.334-5.666-18.667 1-5.666-1.334-10-9.667-9-7 4-13.333 5.666-18 2s-7.667-1-6.333 2.667z" fill="#f2c0a0"/>
 <path d="m218,260.334c0,0 6.333,11.333-2.667,20-6.667,4-9.667.666-16,7s-12,14.666-9,20.333c3,3.667 6,2.333 8.667,0 2,1.333 14.333,7.333 16.333,11.333-2.333,3.667-3.333,5-5.667,5.667-.667,5-6.334,8-5.667,11-7.667-1.667-22.333-14-18.667-27.333 5.667-15 .667-24-1.667-31.667 .668-4.667 25.002-34 34.335-16.333z" fill="#f2c0a0"/>
 <path d="m253,139.5c0,0 37.5-7.5 37.5,10 6.5,3.5 10.5,6 11.5,13.5 3.5,5.5 4,13 3,15-9-4.5-15.5-8-25.5-9.5-7.5,0-24.5.5-28,0 7,5.5 16,7.5 26.5,5.5 12,.5 22,3.5 26.5,10.5s3,9.5 3,9.5-32.5.5-46,11c-9.5,3-12.5,4-16.5,1-3-1-7.5.5-8.5,3.5-5-2.5-26-11.5-38-8.5s-22,7-22,7 5-1 0-19.5c.5-6.5 11-13 29-14.5h16s-22.5-4-32.5,0c0-5 0-9 9-13.5-2.5-2-10,5.5-8.5-8.5 3-4 5-6.5 10.5-6.5 5.5-2.5 3.5-3.5 2.5-7.5 2-7 14-14 28.5-1-.5-4 0-14.5 9.5-16s19.5,9 12.5,18.5z" fill="url(#e)" opacity=".73"/>
 <path d="m241,146c0,0 5.25-2.75 10.75,1.5s.5,6.5-1.25,7-4.75,1-4.75,2.75 5.75.5 9.25,2 9.25,3.5 6.75,7-8.75,2.25-10.5,2.25-12.25-1-14.5,0c1.75.25 3.75,3.5 0,3.25s-10.25-1-12.75-.5c-2-1-8-8.25 5.75-12.25-3.75-.25-2.25-10 6.75-10.25 1-1.25 4.5-2.75 4.5-2.75z" fill="url(#d)"/>
 <path d="m202.5,191.75c0,0 16.25-10.25 31.25-2.5 6,3 9.75,3 15.25.25s9.5-9.25 15.25-5c4.25,4 4,7 4,7s4.5-4.25 18-5c6.5,1.25 13,.5 15.75-.25 3.5,0 12.5,5.25 16.75,9 4,4.75 6,10.5 6,10.5s-12.75-8.25-23.75-7.75-21.25,1.75-29.25,2c-4.5,3-10.5,10.25-13.25,7.5s-4.25-6.5-3.75-9.5c-.75-2.75-3.5-2-8,0-4.75,1.75-12.75,1-14.75,5 0,2.75 1,5.25 1,5.25s-2.75-2.5-5-2.5-4.25,2-9.5-1.5c-8.25-2.25-23.25-2-33,4.25s-16.75,5-16.75,5 8.25-17.25 14-20.75 12,.75 19.75-1z" fill="url(#c)"/>
 <path d="m255,295c0,0 8.473-2.539 12.25-2 5.25.75 12.5.5 13.25-3 2.5-2.25 5.25-.5 6.25.25-2-5-7-9.75-8.25-15.25s-2.25-6.5-4.75-9.5c-.75-5.25-.75-6.5 0-8-3.25-5.75-2.75-10.25-5.25-15.75s-8.75-11.5-8-17.75c1.5-9.5 12-18.5 12.5-23.75-10.25,2-23-4-26,6.25 1.5,6.5 6.25,6.75 4,9.75-4,.75-10,3.5-12.25-2s-9.25-12.5-13.75-14c.25,4.75-2,5.5-3,5.75 4,4 10.75,12.25 11.5,17.25s-.75,11.75-7.25,18.25c-3.75,5.75-7.5,14.75-5.25,20.5 4.75-2.5 10.5-8.25 12.75-14-1.5,8.75-2,15.25-8.5,19.75-2,2.75-3,7-3.25,9-2.25,4.5-9.5,15.5-14,22.5-.5,2.5 0,4 1.25,5s15.25,1.25 19.25-3.25 8-10.75 11-10.5c3,2 4.75,4.75 8.5,5s7-.5 7-.5z" fill="#de9e7f" opacity=".7"/>
 <path d="m321.667,225c0,0-.333-5-5.333-7.333-4-1.333-6.334-2-9.667-5.667s-10.333-6.333-20-5.333-8.334,1-10.667-1.667-6,.667-11-2.667c-7,2-11.666.667-12.333,15 1.333,11 3.333,10.667 3.667,19s1,16.333 5,21c2,5.666 3.666,12 1.333,17s-3.001,7.333-3.667,10.667-2,6.334-4.666,7.334c-4,.666-9.667.333-11.334-5.667-1-3.333-2.333-7.333-7-9 1.333-1.667 3-3.667 3.667-9.333 1.667-6 3.667-6.334 4.667-12s2.667-15-3-25c-1.667-8.667-1.667-13.667-3-19.333s-8.667-11.333-14-12.333-17.667.667-17.667.667 4,8.333 0,10.667-8,.667-14.667,4.333-8.667,9.333-13,12-4.667,6.667-3.667,9.333 5,2.333 10,5.333c9,1.333 18.333.667 22.333-1.667s12-9 16.667-8.333c-.333,3-4.667,5.667-6,8.667 5-.333 8.333.667 6.667,4.667-4.667,3.667-8,9.667-7,12.333 3.667-.333 6.667-3 6.667-3s-2,4-2,6.667c4.333-2 7.333,1 5,3s-6.667,11.998-5.667,17.665c2,5 6,7 7.667,7.667s5.667,2.333 11,2.667c4,2.666 5,3.333 10,3.333 3.333.333 4.333-.667 8.667-4 5.333-3.333 9.333,2 12,1.667s3.666-7 3.666-7 6.334-3 2.667-13c-2.667-5.334-6.001-9-4.667-13.667-1.666-8-7-10.333-5-14.333-1.333-3-2.667-4.667-4-8s2-2.667 4.334.667c3.666,3.333 15.667,6 21,9-3.667-6-3.334-7.667-2.334-8-7-1-13.333-1.333-17.666-5.667s-10-10.667-4-8 11.334,3.333 16,3.333 11.333.333 18.333.333 9.667-.333 14,1.333c5.667.334 8.333-.333 8-5.333z" fill="#c58971" opacity=".75"/>
 <path d="m229.5,284.5c0,0 7.5-.5 9.833,3.166s4.833,5 6.667,5.5 7.667.834 9.834-.832 6.166-7.834 8.5-8.668 6.166-.5 6.166-.5c-3.834.834-8.166,3.334-7.166,5.834s-.167,2.166-.167,2.166-2.167-1.166-3.833.334-4.834,3.666-6,3.666-5,1.334-7.667.334-2.333-2.166-4.5-4c-1.333.5-3.334,1.5-4.667.666s-6.333-2.332-6.333-2.332 11.167,2.832 6.667-1.834c-1.167-1.166-4.334-2.666-7.334-3.5z" fill="#88594a"/>
 <path d="m265.167,269.666c0,0 2.167-5.833 4.667-4s4.499,5.834 4.666,9 1.5,9.168-2.333,9.668c-1.167,1-1.333,2.5-1.333,2.5s2.332-.667 5.166-2.5 2.334-5.668 2.334-8.334-3.167-5.834-5.667-12c-1.333-5.334-.667-6 .5-6.666-2.5-5.334-11.334-18.834-11.667-24.167 .667-2 3.667,1.333 7.167,3.833s5.833,1.667 5.833,1.667-2.666.5-9.833-9.833c-2.333-1.667-4.501-2.5-3.667-4.833s5.166-5 3-14.5c-2.333,2.833-3.5,4.667-6.666,7-2.167,4.333.666,9.5 1.833,15.167s2.499,8.667 2.333,12 2,12 3.667,14.667c1.167,4.999 1.5,7.498 0,11.331z" fill="#88594a" opacity=".44"/>
 <path d="m233.167,215.5c0,0 3.667,2 4.167,8s1.666,14.333 3.333,17.667c-.833,5.833 1,13.667 2.5,16.167-2.167,2.666-3.5,4.333-2.833,7-4.167-1.834-5.167-3.5-6.333-.5s-1.667,3.499-.667,5.832c-.5,2.5-1,4.168-1,4.168s-.167-6.167-2.5-4-5.5,8.166-4.667,11.832 2.667,4.5 3.833,6.334c-2,.166-6.667-2.167-7.167-5.834s3.333-17.5 7-19.5c2.333-2.166 5-2.5 5.333-4.666-.5-2.666-.833-6.834.833-10-3,3.334-5.5,5.666-5.5,8.166-2.833,1.834-7.333,6-7.333,6s2.334-4.832 1.167-9.166c-.5-4.167 3-11.667 4.5-14.167s2.333-4 2-5c-3.667,3.5-10.833,9.167-12.5,13.5 .833-5.333 3.333-7.833 2-9.833 2.5-2.167 11.167-5.5 11.167-10.333s-11.5-11.167-14.667-13c7.167,2.833 10.334-1.5 17.334,1.333z" fill="#88594a" opacity=".34"/>
 <path d="m248.5,267c-4.296.818-2.25,5.5-2.25,5.5s-2.25,3.75-1,8 2.75,3.75 5,4 3.5,1.25 4.5-1 2.75-5.75 0-8c-1.25-2.5.75-2 .25-4.25s-1.25-5.25-6.5-4.25z" fill="url(#b)"/>
 <g fill="#fff">
  <path d="m307,221.75c0,0-1.75,2.75-12.5,2.25-7,.5-6.75,1.25-14.5,0-4.5-.25-8.75,1.5-10.75.75s-1.25-1.25 0-2.25 5-1.5 8.5-5.875c3-2.875 5.75-4.25 10.875-4.625 4.625,0 11.5,3.875 12.875,5.5 2.5,1.75 5.5,4.25 5.5,4.25z"/>
  <path d="m186.25,230.5c0,0 3.75-7.75 10-9.75s13-2.5 16.75,0 5.5,4.25 8.5,4.75 5.25,1.25 4.25,2.25-1.5.5-4.5.5-5.5,1-10,2.25-12,2.5-18.25.25c-2.75-.75-6.75-.25-6.75-.25z"/>
 </g>
 <path d="m211.5,220c0,0 1.5,7.75-2,11.25-2,.75-10.5.875-10.5.875s-4.25-5.625-2-11.625c4-.5 9.5-2.375 14.5-.5z" fill="url(#h)"/>
 <path d="m202.768,228.5c0,0-4.25-1.5-3.5-6-1.25-.25-2.643.75-2.893,2 .25-2.5.625-4 .625-4s6.607-2.25 11.875-1.25c0,4.25-1.607,7.75-3.107,8.5s-3,.75-3,.75z" fill="#462312"/>
 <path d="m204.02 222.25s-3-0.75-3.5 2.5c0 2.75 3 3.25 3.75 2.5s3.25-3.25-0.25-5z"/>
 <path d="m204.88 224.62a2.625 1.625 0 1 0 -5.25 0 2.625 1.625 0 1 0 5.25 0" fill="url(#g)"/>
 <path d="m280.75,213.75c0,0-2,7.25 1.5,10.75 5.25.75 12.25-.5 12.25-.5s2.75-4.5.5-10.5c-3.25-.75-6.125-3.125-14.25.25z" fill="url(#i)"/>
 <path d="m289.25,222.5c0,0 4.25-1.5 3.5-6 1.25-.25 3,1 3.25,2.25-.25-2.5-1-5.25-1-5.25s-6.75-2.875-12-.5c0,4.25 1.75,8 3.25,8.75s3,.75 3,.75z" fill="#462312"/>
 <path d="m288 216.25s3-0.75 3.5 2.5c0 2.75-3 3.25-3.75 2.5s-3.25-3.25 0.25-5z"/>
 <path d="m290.75 219.12a2.625 1.625 0 1 0 -5.25 0 2.625 1.625 0 1 0 5.25 0" fill="url(#a)"/>
 <g fill="#070807">
  <path d="m272 221.25s6.75-7.5 9.75-8.75c7-3 12-0.75 16.5 1.25s9.25 5.75 9.25 5.75 0.25 1.5 1.5 2.5c-4.5-1.75-11.5-7.25-14.25-8.25s-6.75-2-12.5-0.25c-4.5 3.125-6.25 5.25-10.25 7.75z"/>
  <path d="m218.5 224.75s-1.5-2.25-5.5-5.25c-4.5-2.25-12.5-2.5-18.25 0s-9.75 7.75-9.75 7.75 2 1.75 0.25 4c5.5-3.25 8-9.25 11.25-10.25s11.5-5.25 22 3.75z"/>
 </g>
 <path d="m250.667,331.333c0,0 10.333-.334 16,0 7.334-3.333 10.668-6.332 13.668-9.666 2.999-2 7.333-5.334 9.666-6.334 .667-2-.333-3.666-.333-3.666s-22.333,1-32.333-2.333c-2,2.666-3,3.666-7,3.666s-5.667-1-8-4c-2.667.334-21.333,3.333-29.333,2.333-3,1-3.667,3-3.667,3s5,0 11.667,7c6,6.334 10.333,8.334 14,9.667s6.665-.334 15.665.333z" fill="#d98779"/>
 <path d="m288,315.333c0,0-5.25,1-10.25,2.667s-8.75,2.667-14.084,2.667-6.999.332-11.332-.334-8,1.666-13.334,1-13.667-1-15.667-1.333c-2.667-1.333-9.667-6.332-11.667-8.333 5.333,2 14.667,5.332 21.333,4.666 3,.667 5.667,2.333 9.333,1 3.333.334 2.333,4.001 10.667.334 4.334.333 8,2.333 14.666-3.334 8-3 15.667.334 20.334-1.333 1.001,1 .001,2.333.001,2.333z" fill="#bb574f" opacity=".72"/>
 <path d="m258.25 310.75s-0.916 2.916-5.25 2.583-6.333 1.001-11.333-3.999c-2 1.333-4.333 2.333-4.333 2.333s6.333 2.666 10.333 2.666 10 1e-3 15-2.333c-1.667-1-4.417-1.25-4.417-1.25" fill="#b9685c"/>
 <path d="m243.667,327c0,0 .333-2.666 7.333-2.333-.333,2.333 1.666,3.666 1.666,3.666s2-.666 1.334-3.333c1.666-.333 7.666,0 14-4-3.334,3.667-5,5.334-7,5.667 .666,1.666-1.333,3.332-4.666,3.666s-14.667,2.334-12.667-3.333z" fill="#eca49a" opacity=".91"/>
 <path d="m346.5,268c0,0 3.5-3 4.75-7.75-.25-7.5-1.75-31-.25-41.5 2-2.75 4.25-4.25 6.75-4.75 .75-4 4.25-23.75 4.5-36.75s1-24-8-42.75-11-16.25-16-24-21-23.5-30.75-30-20.25-7.5-28-9-21.25-5.5-30.25-6.5-20.75,2.75-28,5-18.25,6.5-29.75,13-20,11.75-25,19-11.75,10.25-13.5,16.75-.75,7-.75,7-5,5-9,22.5c-2.75,8.5-9.75,27.75-3.5,46.25 1.75,4.75 3.5,11.75 3.5,11.75s2,21.5.75,24.75c2.25,1.25 3,.75 4.75,2.25-.25,4.25 2.25,11 4.5,14.5 1,4.75.25,17.75 1.5,23.25s3.25,8 6,14.5 3,12.5 3.5,14.75 1.75,5 1.75,5-.5-11-2.75-22.5c-4.25-9.25-4.25-9.5-5-14.25s-1-17.25-1.75-24-1.25-22.25 1.25-33.5c1.75-9.25 2.75-11.25 3.25-22-5-9-8.5-20.75-7-27s4.75-14.5 6.5-21.5c3.5-7.75 13-19.5 22-19 8.75,4.25 23.25,6.75 30.25,6.75s14.25,3.5 14.25,3.5 17.75-3 22-4.25 13.25-9.75 21.25-10.75 20.75-1.75 32-12c7,5.75 14.75,13.75 17.75,19.25s4,11.75 10.5,20.75c-2,2-1,4.75-1,4.75s0,17.5-3.25,27.5c.5,8 6.25,19 9.25,23.75s3.5,12.25 5.25,19.5 5.5,20.25 5.75,47.75z" fill="#050605"/>
 <path d="m346,270c0,0 3-4.75 5.75-7.25 .5-3 1-10-2-35.25 .5-2 1-3.25 1-3.25s-4,4.5-6.5-8.25c-.5-8.25-1.5-10.25-9-29.5-2.25-5.75-.75-4.75-.75-4.75s5,4.25 6.5,8.25c-2.25-8.25-2.75-11.5-1.5-16.25 1,4.75 1.5,7.75 2.5,10.25 1.5,2.25 2.5,6.5 2.5,6.5s1.5-7.5 0-13.25c2.5,3.5 3.25,6 3.25,6s1.75-7.25-4-21.25c6.25,7.25 8,11.5 7.25,24.75 2.25-7.25 5.5-21-6.25-35.5 4.25,4.25 7,8.25 7,8.25s1.25-5.25-6.5-13.5c-2.25-4-3.25-6-5.75-7.75 2-.5 5.25.75 5.25.75s-3.25-6-5.75-7.75c-2.75-.75-3.5,1.25-5.5.25 0-2 2-4 4-5-3-3-6.5-4.75-14-19.25-4.25-4.75-7.25-9.5-19.25-16.25-6-2.25-12-3.5-12-3.5l.25,2c0,0-3.25-1-6.25,0 0-2.5-2-4.25-4-3.5-2.25,1.75-4,4.25-8.25,4.5-1.25-3.5-5-4.5-6-6.5s-3-1.75-4.25.5 1.5,4.75-3,4.75c-.5-3.75-2.25-7.5-4.25-3.25-1.25,3-1.75,2.25-3.25.25s-3.5-1.25-4.25,1c-2,2.75-3.5,3.25-4,4.75-2,1.75-4.75.5-5.25-2.5s0-7.5-3.75-7.25-3.5,5.5-6.75,5.75c-1.75,1-6.25,3.75-9.5,1.5-1-2-2.25-4 1.25-5.5-1.25-1.5-4.5-4-9,1-1.25,3.5-3.5,7.75-10.75,5.25-1.25,2.75-1.5,9.75-.5,13.5-3.5-.25-3.75-3.25-3.5-5s-2.75-6.75-5.5-2.5-2.5,7.5-.5,9 2.5,2.25 2.75,5.5c-3.75-2.5-2.75-6.25-7-8.5s-12.5-3.75-14,2.25c-2.75,4.75-1.25,4.5-5.5,7.5s-10,8.25-11.75,17.25-5.5,22.5-9.5,30-4.5,10.75-4.75,14c1.75-.25 3.75-2.5 3.75-2.5s-2,11.5-1,16.75c-.25,5.75.5,11.5 1.5,12.75s-.25,12.75 1.5,17c1.25,3 2.75,2.75 2.75,2.75s3,2.5 1.5,4.75 0,3.25.25,5.75 3.25,4.75 1.75,7.25-1.75,5.25-.5,7.75 3.5,19 3.5,25 3.25,11.75 4,14.25 3.25,5.25 4,17c.5,1.75 1.75,3.25 1.75,3.25s1.5-10.5-3.5-22.5c-3.75-9.25-4.5-13.5-4.75-21s-1-13-1.75-21.25-.75-20.75.75-26.75 3.75-16 4-23-1-12.5-5.5-21.5c-1-5.75-1-9.75 1.75-17 3.25-9 3.75-13.5 8.25-20 11.5-12 15-10.5 39-4.25 10.5,1 18,1.5 22.25,5 7,.5 14-1.5 14-1.5s6-2 15.75-8.5c11.25-5.25 20.25-7.25 27.75-7 6.75-3.5 12.5-4.75 15.75-8.75l2.25-2.25s13,11 17,20.25c2.25,5.25 4,12.25 10,18 .75,3.5-1.5,3.25-3.25,4 2.25,2.75 3,3.25 3.25,5-1.25,0-4,.25-4,.25s.75,1.5 1.5,6-2,9-1,17.5 5.25,18 8,22.25 4.75,9.5 5.25,15.25c.25,6.25 2.75,21 4.5,26.25s2.75,6.25 2.5,30.5z" fill="#422e26" opacity=".72"/>
 <path d="m302,344.75c-.5-3.5 1.25-13.75.25-17.75-2.75-6-.75-14.5-2.5-18.25s-9.25-10.5-12.75-10.25-7.5-.5-10.5-5-11.75-5-16-2c-3.75,7.25-10,8.25-10,8.25s-2.75-1.75-4.25-4c-2-.25-5.75-2.25-7-3.5s-6.75-2-9.5-.75-6.5,5.75-9,6.25-3.25-1.75-7.25-.5c-4.5,6.75-7.75,5.5-12.25,7.25-3,3.75-2,17.5-2,17.5s2.5,2 3.25,6.75c-1,9 .5,14.25 1.5,23.25 0,8 2,20.5 3,29.25 4,9.75 10,12.25 15,15 3.25-.5 16.25-.5 33.25-.75s22.75-1.75 27.75-3.75c8,.25 17.25-14.25 19-19s.5-24.5 0-28zm-12.75,7.25c-7,5-11.75,8.5-16.25,2.25 1.5-4.5 2.5-6 2.5-6s-3.5-10.25-6.25-12.5c-5,0-21.25,6.25-30.5,0-4.5,1.25-8.5,6-8.5,9.25s-.25,1 .5,2.75c2.25-1.5 3.25,1.5.5,3.5s-3.25,10.75-3,12c-4-1-5.25-1.75-6.25-9.25-2.25-5.25-9.5-16-15-19.25-1.75-3.25.25-8 2-10.5 .25-3-3-6-1.25-8s3.5-.25 7.25.5 10.5-.5 16.5-1.25 12-4.25 14.25-7.5c2.75-1.25 5,1 5,1s3-2.75 7.5,1.75c1.25,2 21.75,4.75 26,5s5-2.5 7.25-3c3,.5 5.75,2 5.75,11.5-.25,4.75-4,8.25-4.75,12s3.75,10.75-3.25,15.75z" fill="#5e3f2f"/>
 <path d="m203.333,349.667c0,0 3.333,20.667 2.333,28 2.333,8.667 5.333,16 14.333,19 9.333,1.667 7.333.333 10.333.333s14.667,1.333 22,1 22.666-1.667 26.333-4 5-3.333 5-3.333 2.667,1.667 7-1.333 9.667-8.334 10-17.667c0-2.333-.667-4-.667-4s-1.331,5.333-4.331,4.333c-.333,3-2.333,7.334-5,2.667-2.333.667-4,0-4,0s1.333,5.001-2,5.667-3.667-.333-4.667-3c-1-1.667-2-4-2-4s-1,7.999-5.666,8.666c-.667,3.667-2.334,7.666-3.667,9s-4.667-.666-.667-5.666c1.334-4 .334-5.334.334-5.334s-7.667,8.001-7.667-1.666c-1.333-5.334-4-6.667-4-6.667s-2.333,7.666-6.333,10.333c-2.333,1.334-3,4.334-3,4.334s-3,1.999-5.333-7.334c-2.667-2.666-6,.667-6,.667s-1.001,3.333 2.666,3.333c1.333,2.334.333,6.667-3.667,3.667-2.333,1.333-7.667,3.667-9.667-5-3.333-3-10.333-2-10.333-2s1-7.333-3-12-7.333-10.333-8.667-18z" fill="#4a3220"/>
 <path d="m242.25,346.5c0,0-.75,5.5-6.5,9 4.5-.25 8.75-4 8.75-4s1.25,2.75 0,5c4.75-4 5-3 7.5-7.25 3,4 1.5,11.5 1.5,11.5l3.25-1.5 1.75,3.75c0,0-1.25-4.75 1.25-8.5-2.5.25-2.75-4.25-3-9-1.25-3-1.25-1.25-1.25-1.25l-.25,5c0,0-4,.75-4-3.75-2.75,2-5.25,3.75-5.5-4.5-1.25-1-2.75,1-2.75,1s-.25,1.25-.75,4.5z" fill="#4a3220"/>
 <path d="m200.75,319c0,0 1-4.25 3.5-4.75s6.75-.25 10.25,1 15-1.5 19.25-1.5 6.75.25 8.25-2.25 3.25-4.25 3.25-4.25 2-4 .5-6-6,1-8.75-3c-2-1.25-1.25-4-6.75-.5-5,2.25-8.5,2.5-10.5,5.5-5,1.5-13.75.75-17.25,6.25-2,3-2.25,6.75-1.75,9.5z" fill="#4a3220"/>
 <path d="m264.75,290.75c0,0-3.75,1.25-4.5,4.25-2.25,3.75-5.5,5.25-5,7.75 .25,3.75 2.75,4.25 4,9.25 3.5.75 9.25.75 15.75,2.25s10.5,0 14-.75 3.75-3.25 7.5.25c1-3.5 2-9-11-11-5-3.75-3.25-1.75-5.75-5.25-1.75,2-1.25,3.5-1.25,3.5s-4-2.75-6-7c-2.25-2.25-7.75-3.25-7.75-3.25z" fill="#4a3220"/>
 <path d="m300.25,372.75c0,0-3.75,14-11.75,17.25-4.25,1.5-7,1.25-7,1.25s-4,5-9.5,5-13.75.75-20,.75-19,.25-23.25.5-10.75-.25-19-9c-3-4.5-2.25-9.25-2.25-9.25s.75,4.75 5,7.5c3,1.5 7.25,1 8.25-.5-1-1.5-3.25-1.75-4.25-5.5-.5-1.75-.25-3.75-.25-3.75s2.25,4.25 7.25,4.25c2.25,2.75 1.75,8.5 9.5,9.5-.75-3.25-2-6.25-2-6.25s2.75,4.25 7.25,6.5c2.5-2.5 4.25-1.25 2.25-7.5 1.25.5 2.75.5 2.75-1.25 .75,4.25.5,4.5 2,5.75 3-2 8.5-7.75 9-11.25 1.25,3.25.5,6.25 5.5,6.5 .25,3 .5,6.5 6,2 .75,2-.25,5.75-.25,5.75s1.25,2.5 3.75.25c1.25-2.75 2.5-4.25 3.25-11 2.75,3 2,5 5.75.5 2.25,1.25 9,.75 10.5-5 3.25.5 10.75-1 10.75-7.75 .75,3.25.75,4.75.75,4.75z" fill="#34180e" opacity=".58"/>
 <path d="m255.25,305.75c0,0 2.5,1.75 3.5,6.25 3.5,1.5 9,1 17,2.75 9.25.75 12.75,0 15.25-2 3-.75 3.25-2 4.75-.5 .25-2.5-1.5-4.25-2.75-4.5-1,1.5-3.75,3.75-7.75,2.5 .5,1.5.25,4-7,3.25-3.75-.5-5.25-3.75-7.75-4-2.5.5-4,5-5.25-1-3.25-2.5-8,1.25-8.75-7.25-1.75-1.5-2.75-3-2.75-3s-.75,4.5 1.5,7.5z" fill="#34180e" opacity=".58"/>
 <path d="m245,306.75c0,0-3.25,7-7,8.25-3.75-.25-5.5-1.25-13.75-.25-4.75,1.25-6.5,2-11.25.75s-9-3.25-10.25-1c-1-2-2-3-.5-4.75 1.25,1.5 3,2.25 6,1.75 1.75-2.25 3-3.75 3.75-4 .75,3 1.25,7 5.25,7s9.5-2 13-2.25 7.25-.5 8-4.5c2.25-.25 4.75.5 6.75-1z" fill="#34180e" opacity=".58"/>
 <g fill="#331c0f">
  <path d="m304.667,187c0,0 6.333,5 12,8.667s8.667,10 8.667,10-3.667,1.666-7.667.333c-4.333-2.333-5.001-5.666-15.667-6.333s-14.667-.667-21,.667-9.333,2.333-11.666,2.667c-4,1.333-8.334,3.333-11.667,6-2.667-3-5-12.333 4-17 1,2.667 3,3.334 4.667,3.667 .333-3 1.666-6 1.666-6s4.333,1 9,1 5.666-1.667 8-2.333 3,.333 7.667-.333 6-1.335 12-1.002z"/>
  <path d="m165.67 227s-2-2.333-1-7c0.333-2.333 0-4.667 0-4.667s1.333-0.333 3.333-3.666 7-12.667 13-15.667c5 1 14-1.333 21-2s15.333 1 20.333 3 11 3.667 12.333 14c-3-2.333-3.667-6-8-5s-14 1-20.667-1c-6 0-26 3-32.333 9.667s-5.333 11.333-5.333 11.333-0.333 1-2.666 1z"/>
 </g>
</svg>
