<?xml version="1.0" encoding="UTF-8"?>
<svg enable-background="new 0 0 246.686 362.938" viewBox="0 0 246.686 362.938" xmlns="http://www.w3.org/2000/svg">
 <path d="m169.714,42.164c-1.844.176-.502-2.835-.909-4.095-1.029-2.926-1.989-5.671-3.187-8.19-1.133-2.391-2.276-5.526-4.096-7.28-.347-.337-3.782-1.725-4.549-2.275-7.899-5.677-21.326-8.389-34.58-8.19-3.316.05-6.884.544-10.465-.455-.712-1.008-2.132-1.176-3.185-1.82-2.618-1.6-5.671-4.462-9.556-5.46-7.282-1.871-18.479,1.034-25.024,3.64-2.247.895-3.883,2.784-5.916,2.73-1.19-1.636 1.531-2.504 2.73-3.185 1.458-1.508 3.903-2.599 6.37-3.64 4.865-2.054 13.603-4.882 22.295-3.64 6.715.959 11.479,7.377 17.745,8.189 5.566.722 11.482-.621 16.835,0 1.061.124 2.361.637 3.641.911 6.066,1.294 11.652,2.794 16.835,5.46 3.609,1.855 5.188,2.556 8.189,5.005 3.144,2.564 9.12,10.206 9.1,16.834-.003,1.913-.335,4.392-2.273,5.461z" fill-rule="evenodd"/>
 <path d="m67.795,18.959c-.271,2.389-3.212,3.332-5.005,4.55-1.625,1.103-4.014,2.112-5.46,4.095-4.822,6.61-2.87,17.339-8.646,23.659-.167,1.804.418,4.361-.455,5.46-1.162-.051-.903-1.523-.91-2.73-1.096-.186-.988.831-2.274.455-.39-2.506 1.588-4.005 2.274-6.37 1.303-4.491 1.046-9.211 2.73-13.195 .508-1.202 1.601-2.682 2.275-4.095 1.116-2.337 1.639-4.48 2.729-5.46 1.965-1.762 9.116-7.195 12.742-6.369z" fill-rule="evenodd"/>
 <path d="m83.72,24.419c-1.201,1.767-3.859,2.165-5.916,3.64-3.653,2.621-6.323,7.175-9.555,10.01-.526,3.287-.149,4.682-1.365,7.28-1.167-.047-.731-1.696-1.365-2.275-2.622,1.322-2.823,5.063-5.915,5.916 .568-4.01 3.581-6.733 5.46-9.555 1.958-2.942 3.817-5.811 5.46-9.101 3.831-2.521 6.567-5.166 10.919-6.825 .391-.149.395-.448.455-.91 1.059.156 2.134.295 1.822,1.82z" fill-rule="evenodd"/>
 <path d="m142.416,25.329c5.493-.701 12.05.26 15.925,3.185 2.002,1.513 6.947,8.89 5.005,11.83-1.534-1.454-1.879-3.737-3.187-5.46-3.521-4.638-8.433-8.24-17.289-8.19 .038-.646.076-1.288-.454-1.365z" fill-rule="evenodd"/>
 <path d="m145.598,32.154c9.315-.517 14.644,2.951 15.925,10.465-3.745.056-3.472-4.591-5.46-6.37-2.044-1.833-4.367-.973-6.369-2.73-1.608-.212-4.383.744-4.096-1.365z" fill-rule="evenodd"/>
 <path d="m164.254,45.349c-1.187,4.467-7.414,5.315-11.374,5.46-5.174.188-11.419-1.392-17.291-2.275-9.046-1.359-16.941-3.348-28.209-3.639-9.151-.238-15.772,1.201-21.84,4.549-2.215,1.222-4.085,3.465-7.28,3.64 .453-3.794 4.409-4.084 5.915-6.825 8.878-4.738 23.602-6.33 37.766-4.55 6.112.768 12.29,2.44 18.198,3.64 3.527.716 7.057,2.405 10.466,2.73 5.619.535 9.458-1.519 13.649-2.73z" fill-rule="evenodd"/>
 <path d="m196.559,49.444c-.492,2.146-3.609.476-5.459,0-3.079-.791-5.539-2.163-10.011-1.82v-.91c.513-1.671 2.729-.973 3.641-.91 3.888.267 8.59,2.869 11.829,3.64z" fill-rule="evenodd"/>
 <path d="m89.18,51.719c-.998,1.53-2.978,1.947-4.55,2.73-3.799,1.892-7.466,3.941-11.375,6.37-.77.479-1.904.62-2.275.909-2.513,1.963-3.241,6.274-7.28,5.916 3.027-6.28 9.312-10.154 16.38-13.65 2.543-1.258 5.314-3.079 9.1-2.275z" fill-rule="evenodd"/>
 <path d="m43.224,53.994c.443.012.354.557.456.91-1.52,3.917-2.911,7.58-5.459,10.92-3.317,4.347-8.561,7.335-11.375,11.83-.613.979-1.075,2.722-1.82,4.095-1.307,2.409-3.544,5.777-4.095,9.1-.107.645.587,1.911.455,3.186-.182,1.742-.804,2.058 0,4.55 .621,1.929 2.121,3.845 2.73,5.915 .519,1.766 1.312,4.84 0,6.824-2.08.107-1.994-1.948-2.275-3.639-.715-2.983-3.939-5.168-5.005-8.646-2.072-6.758 1.088-13.796 3.186-19.11 5.344-4.21 8.539-10.57 15.015-13.649 2.284-3.935 5.514-6.924 6.825-11.83 .643.038 1.286.074 1.362-.456z" fill-rule="evenodd"/>
 <path d="m53.689,54.449c.735-.129.783.43 1.365.455 2.549,7.942-4.657,9.841-7.735,13.65-5.021,1.609-8.2,5.844-11.375,10.01-1.779,2.335-3.267,5.675-6.37,6.825 .786-3.603 3.232-6.804 5.46-9.555 2.069-2.554 4.318-5.756 6.825-7.735 1.235-.974 2.915-1.335 4.095-2.275 2.668-2.123 4.657-4.874 7.281-6.825 .123-1.545-.352-3.688.454-4.55z" fill-rule="evenodd"/>
 <path d="m85.084,62.184c-1.563-.2-2.55.179-3.64.455v-1.82c1.518-.165 4.044-1.37 3.64,1.365z" fill-rule="evenodd"/>
 <path d="m202.929,64.914c4.698-.034 5.494,3.119 7.28,7.735 .494,1.279 1.637,2.547 1.82,3.639 1.205,7.161-1.039,16.066 1.364,21.84 .325.783 2.548,1.408 1.366,2.73-3.191-.342-4.966-5.741-5.462-9.555-.599-4.614.591-10.03 0-14.56-.779-5.985-3.592-8.797-6.368-11.829z" fill-rule="evenodd"/>
 <path d="m76.439,76.744c-.762,2.557-4.495,2.608-6.825,3.64-1.471.651-2.487,2.176-4.549,2.275 2.133-3.33 7.458-5.884 11.374-5.915z" fill-rule="evenodd"/>
 <path d="m201.11,77.199c2.771,2.462 1.679,11.503 4.551,15.015-1.535,2.266.804,7.791 1.364,10.92-3.562.162-3.691-4.691-4.096-7.734-.736-5.545-1.244-11.879-1.819-18.201z" fill-rule="evenodd"/>
 <path d="m37.31,80.839c.097,1.876-1.462,2.899-2.275,4.095-.844,1.24-1.524,2.649-2.73,3.64-.688,4.309-3.767,7.724-5.005,11.829-.496,1.644.784,4.302-1.82,5.005 .223-11.455 5.001-18.356 10.465-24.569h1.365z" fill-rule="evenodd"/>
 <path d="m70.07,87.209c.405,2.528-1.426,2.821-3.64,2.73-.321-2.444 1.649-2.598 3.64-2.73z" fill-rule="evenodd"/>
 <path d="m35.035,99.039h1.82c-.503,5.261-2.076,9.452-3.186,14.105 .497,1.877.936,4.37-1.82,4.096-.133-7.263 2.109-12.15 3.186-18.201z" fill-rule="evenodd"/>
 <path d="m216.125,103.589c3.703-.302 8.931,4.264 9.554,7.734 .519,2.886-1.286,5.452-.911,8.19-2.682.957-2.049,5.231-5.459,5.46 1.777-5 7.629-11.604 2.276-17.289-.999-1.061-4.722-1.388-5.46-4.095z" fill-rule="evenodd"/>
 <path d="m127.4,119.059c1.794-1.694 3.464-3.512 4.096-6.37h2.729c-.645,4.208-3.97,5.736-5.006,9.554-1.834-.892-3.116-2.341-5.004-3.185 .06-1.121.069-2.191-.455-2.73 1.524-2.569 3.805-4.386 5.914-6.37 .42-2.235-1.32-3.964.456-5.005 6.472,5.041-3.194,9.79-2.73,14.106z" fill-rule="evenodd"/>
 <path d="m214.76,112.689c4.583,1.904 4.182,14.596.909,17.746-.036-5.73 1.479-12.192-1.366-15.925-.056-.817.56-.96.457-1.821z" fill-rule="evenodd"/>
 <path d="m55.51,114.964c-4.681,7.756-9.634,15.238-14.56,22.749v3.185c-1.594,1.289-2.843,2.921-3.185,5.461 4.496-.51 2.581-7.43 5.915-9.101 .046,3.838.237,7.82-2.73,8.645 .475,1.29.475,1.896 0,3.186-5.043.038-8.303-1.707-10.01-5.005 1.463-1.235 2.699.671 4.55.455 4.902-5.108 5.101-14.919 11.375-18.655 1.354-4.863 4.795-7.642 7.28-11.375 .734-.129.783.43 1.365.455z" fill-rule="evenodd"/>
 <path d="m134.22 119.06c-0.919 3.327-2.485 6.008-5.006 7.735-1.231-2.261 1.873-6.925 5.006-7.735z" fill-rule="evenodd"/>
 <path d="m233.87,141.354h1.364c-.827,3.215-.862,5.408-1.819,7.735 .976-.36 4.431.531 5.006-1.366 1.176,7.397-4.3,12.081-5.46,18.655-1.556-.341-.578,1.849-2.275,1.366-.997-1.756.677-2.34 1.365-3.641-.195-.714-1.432-.389-.911-1.819 2.326-3.438 4.636-6.892 5.915-11.376-2.553-.322-1.2.436-1.366,2.275-2.396,2.912-4.359,6.257-6.824,9.101-1.967-.616-.244-2.552 0-3.641-4.086-.447-1.907,5.373-5.459,5.46-.373-2.343 1.032-2.91 1.363-4.549-1.524-.302-2.627,3.731-2.728,6.369 1.307,1.644 3.92.837 5.46,1.821 1.306.835 3.874,4.366 4.094,5.46 1.06,5.294-4.603,8.602-5.915,13.195-3.664.43-2.328,5.861-6.37,5.915-.462-1.663-.888-3.358-1.819-4.551-3.089,6.467-7.402,11.708-10.92,17.745-1.429.089-1.234,1.801-3.187,1.364 .357-2.069 1.558-3.297 3.187-4.094 3.038-6.215 7.833-10.671 9.556-18.2 2.375-1.983 5.874-3.804 5.004-8.19-.479-2.414-2.844-3.083-3.64-5.46-2.936-8.755 4.992-14.532 9.556-19.566 6.033.424 5.666-5.552 6.823-10.008zm-4.096,15.925c1.79-1.397 2.307-4.064 4.096-5.46-1.948.943-4.69,3.49-4.096,5.46zm-4.551,1.365c-.489-1.162 1.961-1.591.456-2.275 .009.68-1.69,1.861-.456,2.275zm-1.364,13.195c.626-1.296-.814-2.735-1.364-1.364 .859.05.316,1.503 1.364,1.364zm3.641,2.729c-.604-.004-.417-.797-.911-.909-.133.279-1.133,1.751 0,1.82 .103-.354.013-.898.456-.911-.003.253.369.517.455,0z" fill-rule="evenodd"/>
 <path d="m79.625 142.72c-2.111 3.955-4.421 7.711-9.1 9.101 1.393-3.998 5.228-4.909 7.279-9.101h1.821z" fill-rule="evenodd"/>
 <path d="m96.915,143.173c.951-.193 1.205.312 1.82.457-.346,2.231-2.113,3.042-3.185,4.549-1.355-1.68 1.354-3.177 1.365-5.006z" fill-rule="evenodd"/>
 <path d="m26.845,145.449c-.924,4.323 1.896,7.627 0,11.831-1.945.276-1.684-1.653-2.275-2.73-4.898-.653-7.509.984-9.1,3.64-2.226-1.453-2.176,1.675-3.185.909-2.592.014-.43-4.726-2.73-5.005-.079-3.87 2.317-5.266 3.185-8.19 2.702-2.509 11.131-3.539 14.105-.455zm-9.555,5.914c1.962.414 3.851-3.479 2.274-3.64 .155,2.128-2.479,1.465-2.274,3.64z" fill-rule="evenodd"/>
 <path d="m75.074,152.274c-.623,2.561-2.002,4.367-5.004,4.549-.167-3.35 2.882-3.488 5.004-4.549z" fill-rule="evenodd"/>
 <path d="m103.285,152.729c-.328,1.795-.735,3.511-1.82,4.55 .415,1.244 1.595-.808 2.275.455-.461,2.572-2.247,3.819-5.005,4.094-.128-.734.43-.783.455-1.364-1.817.457-2.093,2.457-4.095,2.73-.871-.731-4.074-.628-5.46-1.366-.479-.254-.58-1.164-.909-1.364-.353-.214-1.051.312-.911.455-1.343-1.378-1.562-2.135-1.365-4.551 5.922.242 11.593-1.889 16.835-3.639zm-8.645,7.735c2.03-.853 3.527-2.235 5.005-3.641-2.574.31-3.849,1.915-5.005,3.641zm-6.826-1.82c3.633,1.179-3.036-1.37 0,0z" fill-rule="evenodd"/>
 <path d="m45.5 155.91h1.365c-0.275 4.427-2.031 7.374-3.641 10.465-2.08-2.883 2.063-6.896 2.276-10.465z" fill-rule="evenodd"/>
 <path d="m66.43,155.914c.119,1.484-.54,2.19-1.82,2.275-.353-.404-.489-1.028-.455-1.821 .528-.382 1.219-.599 2.275-.454z" fill-rule="evenodd"/>
 <path d="m153.335,157.734c1.482-.119 2.188.54 2.273,1.82h-2.273v-1.82z" fill-rule="evenodd"/>
 <path d="m137.41,170.475c.099,3.737-1.695,5.584-3.186,7.735-.343,2.083.123,4.975-1.819,5.46-.502-3.792.143-6.642 0-10.011 3.138.409 2.76-2.7 5.005-3.184z" fill-rule="evenodd"/>
 <path d="m45.5,171.384c.082,2.054-.444,3.499-1.82,4.096-2.637,7.677-5.115,15.512-8.19,22.749-1.711-.604 0-2.967.456-4.55 .521-1.813.757-4.079 1.82-5.006 .643-4.969 2.495-8.728 4.55-12.284-.518-2.642 1.211-3.036 1.365-5.005h1.819z" fill-rule="evenodd"/>
 <path d="m141.504,180.939c1.488,1.453.281,4.955-1.82,5.46-.24-2-.045-4.211 1.82-5.46z" fill-rule="evenodd"/>
 <path d="m127.4 182.76c-2.236 2.229-4.688 1.849-8.19 2.274 0.165-3.026 5.764-3.021 8.19-2.274z" fill-rule="evenodd"/>
 <path d="m62.335,183.213c-.47,4.161-3.873,6.502-2.275,11.376 .02,1.164-.338.555-.91.455 .147,2.037-.206,3.479 0,5.005 .726,5.394 5.559,7.392 5.46,11.83-3.276-.667-4.657-3.229-7.28-4.55 .238,4.008 2.193,6.301 4.55,8.19 .656-.104.159-1.358.91-1.366 2.027.248 3.254,1.297 4.095,2.73 8.403,1.59 12.759-.591 18.2-3.185 3.204-1.527 4.879-3.35 9.555-3.185 .628,1.841-.988,1.438-.911,2.729-2.609,1.554-5.85,2.891-9.099,4.549-.912.466-1.414,1.438-2.275,1.82-.743.33-2.654.815-3.186.91-6.603,1.19-12.258-.427-15.925-4.095-1.266-.205.357,2.48-.909,2.275-7.327-.655-8.646-8.744-10.01-15.471-.504-2.48-.369-3.725 0-6.825 .306-2.575-.948-5.511.91-7.278 2.745,1.532-.351,8.014 1.365,11.374 1.554-.333-.128-3.294.455-5.46 .534.072.384.829.456,1.364 .739-3.561 2.057-8.787 3.64-12.284 .421-.93 1.439-2.086 3.184-.908z" fill-rule="evenodd"/>
 <path d="m210.665,182.759c2.221.544.014,1.979-.455,3.185-.256.656.264,1.623 0,2.275-.58,1.435-1.792,3.454-2.73,5.005-.868,1.437-1.977,3.801-3.641,3.641-.356-3.116 3.085-5.627 4.551-8.646 .934-1.924.601-4.162 2.275-5.46z" fill-rule="evenodd"/>
 <path d="m126.491,185.033c.713.196.388,1.433 1.818.91-.494,1.547-4.068,2.256-4.55,0 1.351-.447 2.245-.642 2.732-.91z" fill-rule="evenodd"/>
 <path d="m181.999,215.063c2.303-4.4 5.826-11.104 4.551-18.199-.307-1.707-1.505-2.76-1.819-4.55-.413-1.71-2.798-1.45-2.731-3.642 6.3-6.756 9.136,9.926 6.826,16.836-.229.686-.975,1.676-1.366,2.73-.81,2.185-3.43,8.259-5.461,6.825z" fill-rule="evenodd"/>
 <path d="m115.57,187.309c-1.257,3.104-2.855,7.682-3.186,11.829-.133,1.678.787,3.683-.455,4.551-2.106-.658-1.424-3.696-1.365-5.46 .119-3.528 1.535-7.767 2.73-9.556v-1.364h2.276z" fill-rule="evenodd"/>
 <path d="m128.309,189.584c-.676,2.14-3.798,1.671-5.46,2.275-1.968.715-3.447,2.239-5.46,2.275 .399-4.456 6.779-2.929 9.102-5.462 .845.064 1.518.301 1.818.912z" fill-rule="evenodd"/>
 <path d="m40.04,189.584h1.82c-1.458,5.519-3.246,10.707-5.915,15.014 .306,1.349.386,4.829-1.82,5.006-.927-6.76 4.306-9.698 3.64-15.925 1.98-.145 1.922-2.325 2.275-4.095z" fill-rule="evenodd"/>
 <path d="m218.399,192.769c.404.202.815.399.91.91-1.361,5.453-5.143,10.317-8.188,15.015-2.73,4.208-5.438,8.438-9.102,11.375-.205,2.207-2.059,4.729-4.096,3.641 7.264-9.875 14.949-19.331 20.476-30.941z" fill-rule="evenodd"/>
 <path d="m126.94 195.04c0.187 4.131-6.327 1.561-8.645 3.185 0.556-3.387 4.683-3.204 8.645-3.185z" fill-rule="evenodd"/>
 <path d="m192.463,202.324c.531-.074.811.1.91.455 .786,8.25-2.76,12.581-5.915,17.289-1.765,2.635-5.15,7.001-9.554,6.825 .533-3.115 3.633-3.459 5.46-5.459 4.506-4.932 6.264-12.295 9.099-19.11z" fill-rule="evenodd"/>
 <path d="m47.319,203.233c.405.202.814.4.91.91 .911,6.786 2.663,12.838 5.916,17.291 1.763,2.414 4.399,3.177 6.369,5.459-.454,1.85-3.648.388-4.549,0-6.265-2.683-10.451-14.261-8.646-23.66z" fill-rule="evenodd"/>
 <path d="m195.196,211.879c.527-.074.808.101.909.454-1.116,8.304-5.722,15.159-11.829,19.111-1.947,1.257-5.564,3.295-7.737,1.819 1.374-1.812 3.642-2.73 5.915-3.64 6.29-3.87 9.54-10.783 12.742-17.744z" fill-rule="evenodd"/>
 <path d="m47.775 221.89h1.365c3.224 3.905 5.002 9.254 8.645 12.74 3.5 1.354 8.165 1.541 8.646 5.915-5.719-0.821-11.374-1.758-14.105-5.006-2.04-2.423-4.262-8.816-4.551-13.649z" fill-rule="evenodd"/>
 <path d="m195.65,223.255c3.704,1.365 2.34,6.766 0,10.009-1.369,1.896-4.35,4.337-6.825,6.371-2.587,2.122-5.743,5.458-8.19,3.639 1.197-1.615 3.077-2 4.551-3.185 3.249-2.616 5.442-6.415 8.188-9.556 .361-3.328.233-5.548 1.365-7.278h.911z" fill-rule="evenodd"/>
 <path d="m141.049,240.089c7.026,5.714 13.864,11.616 23.205,15.016 1.333-.387-.271-1.465 0-2.275 2.748-1.122 8.131-1.061 11.83-2.275 2.043-.671 6.115-1.797 8.646-3.185 1.796-.986 2.672-2.714 5.006-3.186 .4,3.19-4.023,5.872-6.371,6.825-4.523,1.836-10.808,1.979-15.471,3.64 .33,1.035 2.595.136 2.275,1.82-.727,1.467-5.511,1.131-7.735.909-7.549-.745-12.323-5.493-15.925-10.009h-1.82c-.382-2.499-2.153-3.61-3.64-5.005v-2.275z" fill-rule="evenodd"/>
 <path d="m207.025,242.364c-.982,5.235-5.444,6.991-6.37,12.284-2.333.548-2.559,3.205-5.459,3.187 .031-1.335.164-2.566 1.818-2.275 2.997-4.285 5.637-8.925 8.646-13.195l1.365-.001z" fill-rule="evenodd"/>
 <path d="m83.264,246.913c-1.221,1.822-6.668,3.282-10.01,3.641-6.494.696-15.382-.617-15.925-5.914 2.88-.44 3.883,2.521 7.28,3.185 6.503,1.266 13.754-2.712 18.655-.912z" fill-rule="evenodd"/>
 <path d="m94.64,250.554c.443.013.353.558.455.91 .817,1.762-2.013,1.949-3.185,2.729-4.179,2.787-20.971,6.054-21.84-.454 1.332-2.547 3.535-.604 5.915-.455 6.222.387 13.97-.888 18.655-2.73z" fill-rule="evenodd"/>
 <path d="m47.319 264.2c2 1.562 4.48 4.825 3.64 7.735-2.465-1.096-4.1-5.204-3.64-7.735z" fill-rule="evenodd"/>
 <path d="m191.1,269.664c1.222-.314.879.94 1.363,1.365 .665-.549.439-1.989 2.275-1.365-1.034,6.198-2.028,12.118-4.094,18.2-.225.658-1.14,1.181-1.366,1.82-.651,1.844-.126,4.836-2.729,5.46-.048-4.144 1.552-6.64 1.82-10.465-3.415,5.532-7.729,10.168-10.01,16.834-.569,2.941 1.816,6.041-1.821,5.915-1.496-12.115 4.479-16.754 9.102-22.749-.515-.548-1.3-.826-.91-2.275 2.356,1.82 2.255-2.793 4.549-.911 .614-3.24 3.074-6.85 2.73-9.554-2.953-.073-2.314,3.448-5.46,3.185 .423-2.913 3.218-3.455 4.551-5.46z" fill-rule="evenodd"/>
 <path d="m60.06,275.124c-1.699,1.135-3.618-.744-3.64-2.73 .913-.351 3.76.6 3.64,2.73z" fill-rule="evenodd"/>
 <path d="m73.254,287.864h1.365c1.534,7.82-.835,16.404.91,24.569 .254,1.028.71-.551 1.365.455-1.442,4.931 2.581,7.924 4.095,11.376-2.805,1.721-3.025-2.613-5.46-2.731-1.694-5.13-3.188-10.462-4.55-15.924-.332-1.994.904.366.91-.911 .4-5.667.938-11.196 1.365-16.834z" fill-rule="evenodd"/>
 <path d="m130.584,288.318c.36,1.574-.507,1.922-.911,2.73 .358,3.687-1.145,7.633-1.819,10.92-.379,1.847.957,5.032-1.818,5.46-.625-6.172 1.628-14.553 2.729-19.11h1.819z" fill-rule="evenodd"/>
 <path d="m109.2,297.874c-.69,7.144.74,13.554.91,21.385-1.402.34-.555-1.569-2.275-.91-.687-6.499-2.78-13.825-1.365-20.931 1.39-.328 1.657.466 2.73.456z" fill-rule="evenodd"/>
 <path d="m171.989,299.693c1.473-.562.349,1.473 1.821.911-2.32,5.112.985,15.848-3.641,18.654-.126-6.118-.985-14.514 1.82-19.565z" fill-rule="evenodd"/>
 <path d="m133.769,304.698c1.287-.376 1.18.642 2.275.455 .745,3.681-.021,6.85-1.366,11.376-1.336,4.505-2.438,8.115-4.549,9.554-2.31-.961.501-3.21.91-4.55 .393-1.284.09-2.694.456-4.095 .863-3.305 2.279-7.543 2.274-12.74z" fill-rule="evenodd"/>
 <path d="m81.444,306.519h1.365c2.468,6.634 3.898,14.303 6.825,20.476 .241.699.476.028.456-.456 1.033.484.173,2.861.455,4.096-4.348-1.568-4.901-6.929-7.28-10.465 .011-5.169-2.417-7.898-1.821-13.651z" fill-rule="evenodd"/>
 <path d="m166.074,308.794c3.056,5.25-.011,14.368-2.729,18.2-.732,2.757-.825,6.151-4.096,6.369 .133-3.574 3.698-5.917 2.73-9.099-3.22,3.454-5.414,7.931-9.1,10.92-1.124,2.668-1.32,6.264-2.731,8.645-2.027-1.085-1.244-4.364-.909-5.915 1.401-6.487 9.062-11.223 11.829-16.381 1.408-.041 1.357,1.375 1.365,2.731 1.512-3.494 1.553-8.459 3.185-11.831 .187-1.786-1.178-2.894.456-3.639z" fill-rule="evenodd"/>
 <path d="m94.64,313.8c1.577-.073.633,3.001.91,5.005 .862,6.231-.113,16.604 5.005,21.385 1.716,1.603 3.976.325 4.549,3.64-7.906.776-8.767-5.49-11.83-9.556-.322-1.687.778-1.952.455-3.64-.081-.804-.682.105-.455.455-1.427-2.193.239-6.066.455-8.19 .357-3.496-.402-7.199.911-9.099z" fill-rule="evenodd"/>
 <path d="m142.416,331.998c-1.989,6.51-5.427,12.93-6.826,20.021-.466,2.365.229,5.109-1.365,7.28-2.331-1.989-1.33-6.285-.91-8.646 1.22-6.853 4.935-14.334 7.735-19.11 .734-.128.783.43 1.366.455z" fill-rule="evenodd"/>
 <path d="m104.65,334.273c7.15,3.174 10.778,12.26 11.375,20.476-4.441.407-2.19-7.088-5.46-8.19v-2.275c-2.192-3.117-5.231-5.388-5.915-10.011z" fill-rule="evenodd"/>
 <path d="m124.214,359.754c-1.162-8.969-.34-16.603-5.004-23.205-.074-.529.1-.811.455-.91 .904-.758.579.041 1.82,0 3.417,2.884 4.848,9.558 4.551,17.744-.09,2.457.834,5.796-1.822,6.371z" fill-rule="evenodd"/>
 <path d="m148.785,335.639c-.594,2.624-2.967,4.399-4.096,7.28-.99,2.53-.013,7.274-3.64,7.734-.305-5.493 2.462-11.771 5.46-15.469 1.057-.145 1.748.073 2.276.455z" fill-rule="evenodd"/>
 <path d="m130.129,345.649c.529-.074.811.1.91.455 1.129,5.566-.847,11.862-1.821,16.834-2.942-.788-1.321-4.598-.909-7.28 .464-3.013.947-6.248 1.364-8.645-.126-.734.431-.783.456-1.364z" fill-rule="evenodd"/>
 <path d="m222.95,139.989c3.771-2.904 6.979-6.368 13.649-6.37 1.673,1.612 4.773,2.332 6.371,4.549 1.421,1.979 1.939,6.576 2.729,10.465 .158.775.855,1.612.911,2.275 1.091,13.267-9.863,21.481-12.285,34.58-.244,1.313.135,2.765 0,4.096-1.744,17-10.09,28.934-20.931,32.76 .594,17.884-.303,34.276-6.369,45.5-1.001.518-1.513,1.521-2.73,1.82-1.908,2.944-3.845,5.86-6.371,8.189-.42,2.157-.81,4.347-3.639,4.096 1.641-6.549 5.897-10.482 6.37-18.2-.42-1.241-1.424.635-2.731,0 1.349-2.444 2.239-3.949 2.277-6.825 3.933.009 1.685,6.2 2.273,9.556 1.257-.523 1.674-2.354 2.275-3.642 3.446-7.367 4.546-20.433 4.549-32.305-2.768,4.227-4.844,9.155-7.733,13.65-.777,1.207-1.633,3.687-3.642,3.186 .427-3.563 4.771-7.024 5.46-11.831 3.803-3.023 5.217-8.434 6.826-13.649-1.214.938-1.989,2.637-2.73,4.096-1.929,3.799-4.882,9.594-7.734,12.739-1.264,1.394-3.335,2.864-5.006,3.186 .188-2.136 2.513-2.819 3.64-4.096 1.165-1.316 1.525-3.287 3.187-4.096 .862-4.9 4.688-6.836 5.914-11.374-2.518.515-2.264,3.804-5.46,3.641 2.671-4.145 5.958-8.76 8.646-13.651 1.334-2.428 2.035-6.178 5.005-7.278-.355,4.345-3.826,5.576-4.095,10.009-1.294.375-1.528,1.808-2.276,2.729 1.426,1.186 2.043-.619 3.641-1.364 2.127.016.869,1.293.91,2.73 11.225-5.263 13.622-17.501 15.015-31.396 .263-2.606 1.684-4.172 2.275-5.915 .873-2.572 1.226-4.607 2.275-6.826 2.574-5.443 7.358-11.493 7.733-19.11-1.198.772-1.555,2.387-2.273,3.641-1.73-.403-.409-3.098.909-3.187 .156-1.664.048-3.592 1.821-3.639 .416-5.569-3.316-18.473-10.92-15.47-3.939,1.557-7.874,6.688-11.831,8.645-1.503,2.526-1.459,6.585-2.273,10.01-.104.438-.864,1.347-.911,1.821-.286,2.85.568,5.477.456,7.735-1.572,1.127-2.143-1.895-3.187-2.73 .941,2.545.374,6.602 2.275,8.19 .02,1.688-1.707,1.629-2.275,2.73 .14,3.021-2.074,3.688-1.818,6.824-2.992,1.904-3.312,8.765-7.282,8.189 .102-1.719 1.049-2.591 2.277-3.185 1.155-3.543 3.249-6.151 4.549-9.554-1.645-3.665-3.032-7.585-4.095-11.831 3.148-.267 3.212,2.552 5.005,3.641-.279-3.155-3.761-9.155-1.82-14.561 1.574-.36 1.922.505 2.73.91-.243-5.893-2.18-10.261-2.275-14.104 .074-1.289-2.806.379-2.73-.91-1.26-1.253.409-1.901.455-3.185-1.623-2.774-5.194-3.602-5.915-7.28 3.821.728 5.17,3.93 7.279,6.369 .824-2.19-.568-4.195-1.364-5.46-2.269-3.607-7.436-4.746-9.1-8.645 2.986-.256 3.21,2.25 5.46,2.73 .684-1.918-1.731-2.008-2.729-2.73-.951-.687-1.756-1.751-2.73-2.275-2.112-1.135-6.095-.925-6.371-4.094 2.871.011 3.913,1.852 6.371,2.273-1.457-2.487-4.331-3.556-5.461-6.369-1.646-1.388-4.753-1.314-5.004-4.096 4.139.563 6.041,3.363 9.1,5.005-.325-3.314-3.382-3.896-4.551-6.369-1.646-.932-4.129-1.027-4.549-3.185 .906-1.798 4.039,1.599 5.915,1.819-.271-3.369-3.11-4.17-4.095-6.825-2.392-1.705-5.271-2.92-5.914-6.37 3.436,1.112 4.948,4.149 7.733,5.915 1.053-2.271-1.589-4.362-3.185-5.46-.602-3.645-4.142-4.353-4.549-8.19 3.559,1.598 4.784,5.529 7.278,8.19 1.895-5.54-4.953-6.267-5.005-11.375 2.384.65 2.678,3.389 4.551,4.55-.313-11.837-6.944-23.669-18.2-24.57 .23-2.335 4.083-1.53 5.46-1.365 1.627.195 5.071,1.573 5.459,1.82 1.527.966 2.664,3.439 4.551,5.915 2.355,3.091 4.325,4.816 5.46,8.645 2.114,7.136 1.334,15.908 3.64,24.115 .922,3.278 3.085,8.412 4.55,11.83 1.529,3.562 3.862,6.756 6.37,9.099 .159,3.652 3.438,6.38 4.096,10.465 .363,2.253-.319,4.538 0,6.825 .326,2.354 1.776,5.523 0,8.645 1.232.89 1.713,2.534 2.275,4.096 2.93-4.501 4.796-10.067 8.189-14.106 .407-1.469-1.484-.638-1.82-1.364 1.719-3.712 6.289-8.552 8.189-13.65 2.101-5.629.908-9.66-2.729-14.106-.245-.299-.169-1.02-.455-1.364-1.309-1.574-3.709-2.423-5.005-4.095-4.512-5.822-3.253-14.737-3.64-24.115-.545-13.185-4.177-22.694-10.92-30.03-5.182-3.758-13.478-4.72-23.66-4.095-1.475.091-3.335-.317-4.55,0-3.806.992-5.582,5.568-9.1,4.095 2.033-2.667 5.591-3.812 7.733-6.37 2.937.827 5.435-1.338 8.191-1.82 6.574-1.149 12.796.363 18.653,1.82 10.222,5.343 17.469,18.744 17.747,34.58 .085,4.984-.752,10.314 0,15.47 1.146,7.883 8.529,11.869 11.829,18.199 1.974,3.79-.612,11.758-2.275,14.561-.305.515-1.623,1.977-2.275,2.73-1.61,1.858-3.324,5.842-5.459,7.735-.458,1.368 1.014.806 1.818.91-.644,1.935-1.493,3.664-2.273,5.463z" fill-rule="evenodd"/>
 <path d="m101.01,147.269c-.929-1.192-.954,2.353-2.73,1.82-.193-2.772 1.375-3.781 2.275-5.459 1.525-.313 1.662.762 1.819,1.819 2.616-2.237 3.917-5.789 6.37-8.19-.433-2.904-2.139-4.535-3.64-6.37 .332,5.868-2.935,10.645-9.1,11.375-1.13,1.6-.755,4.706-3.64,4.551-.704-1.393.897-3.788 2.73-4.096-5.144-1.227-7.578-5.162-8.19-10.92-2.833,1.262-4.896,3.295-6.37,5.915-.058,2.184 3.193,1.055 3.186,3.185-1.55,2.239-3.219.729-6.37,1.366-2.43.491-5.774,1.838-7.28,3.185-2.137,1.912-3.364,8.019-6.826,3.641 1.169-1.34 3.067-3.057 4.551-5.005 1.119-1.472 1.768-3.426 2.73-4.55 .562-.657 1.879-.915 2.729-1.821 1.973-2.1 4.156-4.371 6.37-6.824 2.764-.118 3.605-2.158 5.005-3.641 6.896-2.885 12.672-5.01 21.385-3.185-.945-1.179-3.288-.958-2.73-3.639-1.096-.187-.989.831-2.275.455-.667-1.002-1.382-1.955-1.365-3.639-1.261-.862-3.091-1.156-3.64-2.73-1.235-.327.325,2.144-.91,1.819-2.593-.136-.864-4.596-3.64-4.549-.945.117-.125,1.999-.91,2.273-1.592-1.591-2.51-3.859-5.005-4.549-.926.439-.983,1.747-.91,3.185-1.665-.3-1.746.984-3.186.91-.145,1.069-.718,1.708-.455,3.185-1.86-.72-3.178,1.606-5.46,1.82-.277,1.088.571,3.302-.456,3.64-2.096.428-.872-2.463-1.82-3.185-2.458,1.031-2.362,4.615-3.64,6.826-.95.192-1.205-.313-1.819-.455-2.685.955-.19,7.089-4.095,6.824-.443-3.78 1.002-5.67 1.82-8.19 4.757-.643 2.706-5.524 5.005-8.189 1.657.14 2.961-.073 4.095-.455 .438-1.651-2.045-.382-1.82-1.82 1.479-3.829 7.042-3.573 8.19-7.735 3.603.418 4.349-2.02 5.46-4.094 3.892-.028 5.284.393 8.19,1.819 1.015-.067-.591-1.146 0-2.275 9.797-.09 13.585,5.829 18.655,10.466 1.286.375 1.179-.643 2.275-.457 .59,1.382.857,3.087 1.365,4.551 1.072.009 1.34-.783 2.73-.455-.785,3.212 2.342,2.511 1.82,5.46-1.62.351-3.436.507-3.64,2.275 .064,1.301 1.898.832 3.186.909v2.275c-1.276.545-3.14.5-5.005.455 .76,2.201 1.124,2.996-.91,4.096-.067,1.735 1.146,2.192 1.366,3.64-2.177,4.193-4.718,8.022-10.465,8.645-1.65,2.596-2.155,6.339-5.915,6.826-.361-1.578.505-1.925.91-2.734zm-12.285-40.951c.847-.435 1.521,1.362 1.819,0-.474-.479-1.769-2.419-2.275-1.364 .531.076.495.72.456,1.364zm11.375-.909c-1.839-1.6-1.074,1.464 0,0zm-23.205,10.01c1.129-.592 1.888,1.334 2.274,0-1.267.206.356-2.48-.91-2.275-.776.437-.996,1.429-1.364,2.275zm35.489,2.275c.128-1.19-.166-1.958-1.365-1.82 .192.87.165,1.958 1.365,1.82zm2.276,3.185h1.365v-1.366h-1.365v1.366zm-22.296,11.829c.867.196 1.143.981 2.275.911 .145-1.069.719-1.708.455-3.185-1.756-.088-2.614.722-2.73,2.274z" fill-rule="evenodd"/>
 <path d="m170.169,164.558c-2.962-.98-4.406,3.474-8.189,3.187 .412,3.833 4.798,3.694 6.37,6.369-2.617,2.135-3.764.523-6.37-.909-1.072-.589-2.493-.921-3.185-1.366-.869-.559-1.438-2.173-2.275-2.73-1.82-1.211-3.719-1.488-6.826-1.821-.932-.1-3.338.875-4.096-.909 1.44-1.952 6.642-1.154 10.465-1.364 1.351.622 2.242,1.702 3.642,2.273 4.439-2.384 8.985-4.664 12.74-7.733 1.46-.399.942,1.179 1.82,1.364 1.901-2.154-2.813-2.852-.911-5.005 1.974-.305 1.049,2.29 3.185,1.821 1.751-1.202-.726-1.961-1.364-2.275-.328-2.596 1.645-1.535 3.186-1.366-.128-.734.431-.783.454-1.364 .327-1.236-2.146.325-1.82-.91-.289-1.656.942-1.789 2.276-1.82 1.028-.942 1.422-2.523 1.819-4.096-2.235.125-6.22,2.21-10.465,1.82-1.371,1.011-1.1,1.026-.91,3.185-2.051.528-2.579,2.577-5.005,2.73 3.527,4.675 7.357-3.48 10.92-4.549 .627.586.45,1.976.455,3.185-3.12-.025-5.457,4.506-9.556,5.005-1.928.109-1.71-1.929-3.64-1.82-1.544,1.138 1.249,1.75.456,3.639-2.85-.183-1.838-4.23-5.46-3.639-.11,2.234 3.016,1.23 2.273,4.096-2.97-.974-5.084-2.804-6.823-5.005-1.295.526-1.374,2.266-2.731,2.73-.512-.548-1.299-.826-.91-2.275-1.067.145-1.708.718-3.185.455 .831-3.265 5.746-2.444 4.551-7.735-3.643-.001-5.916,1.364-7.28,3.64 1.863-.107 2.396-1.546 4.096-1.819 .186,1.855-.468,2.871-2.277,2.73 .229,2.349 1.111,4.046 2.277,5.46 1.771.502 3.84.708 3.639,3.185-2.363-.518-3.853-1.911-5.459-3.185-1.414-.048-1.3,1.43-3.186.909 .184-2.307-.991-3.254-2.274-4.094-1.372.821 1.293,1.393.454,3.185-3.663-.584-2.97-5.523-5.005-7.735-3.011,4.257 3.74,14.91-3.185,16.38 1.805-9.37-2.923-15.153-2.275-25.481 .126-2.015.144-4.678.455-6.369 .63-3.426 3.251-6.065 2.274-10.01 2.085-.71 4.153-2.376 5.006-5.46-.136-.823-1.914.461-2.275.911-1.186-4.001 4.997-5.297 7.735-7.281 1.555-1.127 2.611-2.242 3.641-3.641 .859.05.315,1.504 1.364,1.366 3.084-1.164 6.066-2.427 10.92-1.821 .243,1.761-.812,2.222-.455,4.096 2.562-.467 7.128-2.172 8.19.91-.552,1.724-4.469.082-4.551,2.275 4.416.451 8.184-1.103 12.285,0 .153,1.974-1.237,2.401-2.274,3.185 .876,2.291 4.242-.122 5.46-.455 .83,1.14-.33,2.045.91,3.185 2.211.224 2.009-2.236 4.095-.91 .487,2.915-2.222,2.632-3.185,4.094 2.438,2.474 3.341-1.334 6.369-.91 .385,1.903-1.231,1.802-1.819,2.73 .867.649 1.974,1.058 3.184,1.366 1.2,2.618-1.069,2.735-.909,5.46 .195,1.017 2.241.183 3.186.455-.113,2.01-1.518,2.729-1.82,4.55 .848,2.138 4.26,3.047 1.82,5.915 3.296.87 2.239-2.613 4.549-2.73 1.369,3.438-2.48,5.333-3.185,8.19 .333.425.827.69 1.364.909 2.021-.898 2.146-2.755 4.551-2.275 1.244,4.34-.357,9.606-4.551,10.01-.057-2.332 1.697-2.853 2.277-4.55-.891-.929-2.283-1.356-4.096-1.364-.938.125-.43,1.694-1.364,1.82-1.792.728-.16-1.965-1.366-1.82-2.035,2.063 2.256,1.666 1.82,3.639 .264,1.83-1.348-.226-2.731.455-1.487,1.394-.845,4.918-3.183,5.461 .702.66.399,2.329.454,3.639-1.733.542-3.297,1.255-4.096,2.73 .717,1.104 1.696,1.944 1.364,4.094-1.641-.027-2.425-.911-2.273-2.73-1.762-.245-1.874,1.161-3.187,1.366-.339,1.402 1.569.554.91,2.275-3.05.25-5.28-4.07-6.37-7.28-2.115.863-4.727,3.33-6.824,2.73 .496-2.994 4.377-2.601 5.915-4.553zm-17.744-50.959c1.979.311 2.517-.818 3.184-1.819-1.679-.011-3.133.202-3.184,1.819zm-5.916,2.275c1.429-.087 2.187-.845 2.275-2.275-1.316.2-2.075.96-2.275,2.275zm9.1,1.82c1.959.139 3.673.032 3.641-1.82-2.169-.349-2.998.643-3.641,1.82zm-5.46,2.276c1.14.041 2.223-2.28 1.365-2.73-.656.707-1.833.896-1.365,2.73zm15.47.454c1.737-.235 3.411-.534 4.096-1.821-2.312-.34-3.49.456-4.096,1.821zm-6.824,2.275c-1.876.359-.856-2.179-2.732-1.82-1.166.652-2.031,1.606-3.183,2.275-1.098.186-.99-.832-2.276-.455-3.834,2.837-9.24,4.105-12.284,7.735 .376,1.487 1.595-2.249 2.275-.456 .346,3.985-6.087,5.537-2.73,9.556-.057-1.573.889-2.145 1.364-3.185 5.242-2.199 9.763-8.025 16.38-8.645 6.783-.636 8.845,4.175 14.561,6.37 1.93,3.227 4.484,5.828 7.735,7.735-.18-6.199-.36-10.403 2.729-14.104-1.634.033-3.704-.37-4.096.91 .187-1.096-.83-.99-.454-2.275-2.091-.185-4.036-.513-5.006-1.82-.397-1.46 1.182-.943 1.366-1.819-2.733-1.067-3.527,1.385-4.551,1.364-.86-.017-1.754-2.621-4.094-1.364-.629-.587-.452-1.977-.455-3.186-3.688-1.112-2.157,2.998-4.549,3.184zm-14.106,0c1.452.641 1.149-2.724.455-2.729 .011,1.07-.783,1.339-.455,2.729zm32.305.91c-2.913-.526-.998,1.39 0,0zm5.916,9.099c2.389.267 2.895-1.353 3.185-3.185h-3.641c-.239,1.718-.638,2.137.456,3.185zm-27.301,6.826c2.729.451 3.656-.894 4.55-2.275-2.146.328-1.995-1.644-2.273-3.185h-2.276c-.876,2.8 1.113,3.178-.001,5.46zm25.48-3.639c.527.38 1.219.6 2.275.455 .438-1.673-2.236-1.81-2.275-.455zm-43.224,4.548c-.072,3.567-3.229,4.052-3.641,7.28 1.434-.51 1.03-.041 2.731,0 .822,1.148 1.56,2.383 1.364,4.551 4.127-.826-1.715-5.999 1.364-8.19 3.783.014 8.097,1.906 11.376.909-1.881-1.91-3.608-3.974-3.185-8.19-.102-.355-.383-.529-.911-.455-2.688,1.71-4.094,4.702-9.098,4.095zm14.56,5.916c-.142,1.063-.892,1.879 0,2.73 1.689.174 1.188-1.844 3.184-1.366 .75,1.325 2.248,2.402 3.187,2.275-.13,1.19.165,1.958 1.363,1.82 .102-2.479 3.695-1.462 4.096-3.641-1.424.211-2.03-.395-1.82-1.819 3.246-1.91 9.949-.364 13.195-2.275-4.814-1.405-6.755-5.683-10.92-7.735 .332,7.34-5.162,13.093-12.285,10.011zm33.215-8.646c1.222.314.879-.939 1.364-1.364h-1.364v1.364zm-6.37,5.46c.859-.101 1.003.513 1.819.457 .543-2.386.743-2.836.909-5.005-2.106.32-2.234,2.617-2.728,4.548zm-45.046-.909c1.278.066 1.313-1.114 1.365-2.275h-1.365v2.275zm50.506-.455c1.326.668 1.326-2.034 0-1.366v1.366zm2.274,1.821h1.365c.128-1.191-.166-1.958-1.365-1.821v1.821zm-45.5,6.369c2.148.025 2.586-1.661 3.64-2.73-1.819-.001-2.73-.91-4.549-.91 .07,1.447 1.03,2.001.909,3.64zm47.321-1.366c1.656.291 1.789-.941 1.82-2.274h-1.82v2.274zm-25.48,3.641c2.463-.57 3.844-2.223 5.46-3.641-1.74.643-3.314-1.188-4.096,0 1.507,1.389-1.239,2.377-1.364,3.641zm22.749-.455c.263-.276 1.064-2.158 0-2.275-.177.834-.722,1.541 0,2.275zm-31.394.455c.108-.649.748-.768.909-1.366-.614-.142-.868-.647-1.819-.455-.126,1.038.109,1.711.91,1.821zm28.665-.455c-.583-.025-.63-.584-1.366-.456-.707,1.121 1.545,1.339 1.366.456zm-33.216,3.185c1.099-.42 1.856-1.178 2.276-2.275-1.144.373-2.437.595-2.276,2.275zm5.46-1.82c.063.848.3,1.521.911,1.821 .186-.572.586-.93 1.365-.911 .32-1.575-1.595-1.632-2.276-.91zm5.46.909h.911v-.91h-.911v.91zm19.111,3.186c2.015-.019 2.286-2.874.454-3.186-.426.907-1.48,2.166-.454,3.186zm-35.946-2.73c-1.401,2.725 1.683,2.228 0,0zm40.496,1.819h.91v-1.819h-.91v1.819zm-6.37,4.551c.525-.684 1.596-1.916 0-2.275-.527.683-1.597,1.917 0,2.275zm4.094-.455c1.152.479 2.018-1.535.911-1.82-.197.715-1.433.388-.911,1.82zm-10.92,3.185c.238-.434 2.043-1.51.911-1.821-.138.537-2.409,1.144-.911,1.821zm1.366,2.73c1.905-.521 3.438-1.415 3.639-3.64-.581-.025-.628-.584-1.364-.455-.288,1.835-2.858,1.388-2.275,4.095zm7.28-.455c-.294-1.811 1.203-1.83.909-3.639-2.813-.444-2.398,2.753-.909,3.639zm-5.46,3.639c2.081-.193 3.559-.99 3.64-3.185-1.596-.905-3.473,1.213-3.64,3.185z" fill-rule="evenodd"/>
 <path d="m84.63,146.814c.97-.213.866.649.91,1.364 1.398.068 2.046-1.601 3.186-.455-1.584,3.76-5.639,9.271-9.556,7.735-1.499,1.08-2.188,2.968-5.004,2.73 0-2.122 1.799-2.447 3.185-3.185 .947-3.906 4.801-4.908 6.37-8.19l.909.001zm-4.55,7.279c2.656-1.135 3.957-3.627 5.916-5.46-2.942.872-3.936,2.826-5.916,5.46z" fill-rule="evenodd"/>
 <path d="m27.299,161.828c5.597-1.047 7.513,1.588 9.556,4.096-.174,4.675-4.27,5.168-5.005,8.645-1.34,6.332 6.32,10.372 2.275,15.925-3.371.187-3.624-2.745-6.825-2.729-3.77-4.268-8.157-7.918-8.19-15.925 2.679-2.932 4.949-6.275 9.555-7.281-.657-.708-1.832-.897-1.366-2.731zm-1.82,14.107c.572-5.193 7.026-4.502 7.28-10.011-.1-.355-.38-.529-.91-.455-2.325,2.986-7.56,5.479-6.37,10.466z" fill-rule="evenodd"/>
 <path d="m137.41,191.404c1.361-.458.897-2.742 1.364-4.096 3.155,1.272-1.339,8.585 2.73,9.556 1.163-1.653-.191-2.998 1.365-4.096 2.634-.358 1.603,2.948 1.819,5.006 .117.943 1.999.124 2.275.909-.602,1.354-.466,2.309.456,3.185 1.206.146-.426-2.549 1.364-1.819 2.163.253-1.541,5.959 2.729,5.006 .488,2.37.772,5.351 3.64,4.094-.167,3.505 3.12,3.555 5.005,5.005 .708,1.617-1.544.275-1.363,1.366 2.791,1.872 4.357,4.13 8.645,3.64 3.569-.409 8.606-4.693 9.554-9.1 .505-2.343.868-5.632.911-8.191 .074-4.478-2.247-8.043-1.82-11.829 7.14,4.517 7.449,23.317 0,27.754 1.759,3.74-4.164,6.282-7.734,6.371-8.409.208-15.915-7.899-19.565-12.285-1.531-.288-2.334-1.307-4.551-.91 3.297,1.817 6.355,5.224 5.915,10.011-.217,2.358-1.974,3.661-2.273,5.914-3.799,1.871-7.098,5.456-12.286,5.46-2.803.002-4.994-1.883-8.189-1.82-3.371-2.998-7.75-4.989-10.92-8.189-1.81.141-2.286-1.05-4.096-.909-3.195-4.994-11.43-4.95-15.925-8.646 .074-.528-.101-.81-.455-.91-.737-5.229 1.226-8.464 3.185-11.83 1.232-2.115 3.201-5.386 5.916-6.37-1.585,5.991-7.993,11.865-4.095,19.11 4.92-1.291 7.965-1.838 11.375,1.819 .618-.141.378-1.139.456-1.819-1.835,1.117.161-4.582-.456-7.734 2.226,1.451 2.229-3.913 4.55-2.275 .116,2.217-2.449,4.222-2.73,7.28-.189,2.059 1.564,3.955.455,5.915 .299.61.972.848 1.82.909-.279-2.823.237-6.857.909-9.555 .618-2.48-.052-5.76 2.275-6.37 .335,1.884 2.327,4.006.455,5.46 2.378-.201.642-4.515 2.73-5.006 3.233,2.705.19,9.52.91,14.106 2.253-2.953-1.171-12.174 2.731-14.561 1.895,4.757-.189,11.031-.455,16.38 5.649-2.098 1.443-12.562 2.729-17.744 4.636,2.796 1.711,13.152 8.191,14.104 4.111-1.562 6.098-9.719 3.183-14.104-1.73-.67-.088,2.033-1.818,1.364 .009-5.015-3.22-6.791-2.73-12.286-.134-.925-.911-1.211-1.365-1.818-.104-3.897.615-6.97 3.186-8.19 .941,1.273-.577,3.128-.909,4.549 .41.514 1.017-.028 1.819.911-1.026,1.705.16,5.621-.912,7.278zm-18.2,20.929c-.18,1.887-.29,4.694.909,5.46 2.045-1.291.361-6.312.911-9.1-.101-.354-.381-.528-.911-.454-.17,1.204-.781,2.741-.909,4.094zm4.095,5.916c1.151.479 2.017-1.534.91-1.82-.007.905-1.242.578-.91,1.82zm4.549,3.64c-.366,2.755 2.086.303 0,0z" fill-rule="evenodd"/>
 <path d="m35.035,215.063c.555-1.417 1.059-2.884.91-5.004 2.903-.435 2.372-4.303 4.095-5.916 1.914,4.206-3.592,8.785-2.275,14.105 1.879.21.132-3.205 1.82-3.186 .384,5.847-4.612,10.25-4.55,17.29 2.574-.246 2.235-6.28 4.55-8.189 1.769,6.322-3.294,9.747-3.64,15.471 .208,1.155.887,1.842 1.82,2.274 1-2.185.907-5.464 2.73-6.825 1.627,2.767-1.407,7.789-1.365,12.285 .011,1.165.644,1.989.456,3.185 .078,1.141-1.019,1.104-1.365,1.819 .75,1.677.417,4.436 1.819,5.462 1.102-1.175-.083-4.635.91-5.917 3.303,2.735-.561,7.341 2.274,10.011 .34,1.402-1.568.554-.909,2.275 2.184,6.915 7.682,10.517 13.65,13.649 1.392.33 1.338-.784 2.73-.455 6.894,3.749 7.92,14.288 7.735,22.75-4.825-3.972-3.05-14.542-7.28-19.11-7.153.177-10.278-3.674-15.47-5.46-9.638-11.821-12.581-30.938-13.195-50.505 1.085-.451.898-3.625 1.82-5.46-1.821-.287-3.438.695-5.46.455-3.568-.423-5.332-3.302-7.735-4.549-.054-.843.01-1.23-.455-2.275-.739-1.664-2.322-4.593-2.73-7.735-.205-1.574.106-3.42 0-5.005-.789-11.678-4.836-23.136-7.735-32.305-.396-.667-.682-1.443-1.82-1.366-.764-3.938-3.879-5.525-4.096-10.01-.037-.706-2.169-3.251-2.274-4.094-.01-.078.796-1.536.909-2.275 .176-1.148-.161-2.919 0-3.639 2.131-9.496 12.479-18.887 23.206-14.106-2.461-5.857 2.848-10.479-.455-16.379 4.258.85 5.779,7.417 3.185,10.01-.131,6.197 3.067,9.066 6.37,11.829 2.067-1.335 2.166-3.634 3.64-5.46 1.208-1.497 4.566-2.526 3.64-5.915-2.279,1.058-2.837,3.837-5.005,5.005-.357,1.918-.563,3.987-3.185,3.64 .324-5.743 4.681-7.453 7.28-10.92-.074-.529.1-.81.455-.91-2.244-13.22 9.376-16.367 10.92-27.3-1.498-1.444-.917,1.757-2.73,1.365-1.782-4.087.688-7.765 1.82-10.464 1.375-3.282 2.729-7.809 4.096-9.556 1.402-1.793 4.134-2.562 5.915-4.095 .962-.828 1.713-2.343 2.73-3.185 4.63-3.832 10.202-7.156 15.47-7.28-.279,1.996-2.792,2.043-4.095,2.73-4.449,2.347-8.599,5.964-12.286,9.556 2.328-1.464 6.047-1.537 6.826-4.551 5.596-1.078 9.974-5.796 16.834-4.095-.739,1.108-2.599,1.532-3.64,1.82-4.442,1.23-7.529,1.742-11.375,3.64-3.958,3.473-9.573,5.291-12.741,9.555h-1.819c-1.479,3.526-3.206,6.805-4.551,10.465-.173,2.448 2.351,2.199 2.275,4.55 3.199-1.958 5.331-4.983 9.555-5.916-.064,3.072-3.905,3.098-5.46,4.551-1.694,1.583-1.638,4.321-4.095,5.004-2.822,8.705-11.524,11.529-12.74,21.84 2.625-2.831 7.532-7.958 8.645-12.739 .579-2.488-.032.434.455.91 .947.923 8.843-10.847 11.83-10.011-.1,2.573-2.63,3.637-4.095,5.005-1.579,1.476-3.203,2.815-4.095,5.005-1.253.87-2.228,2.02-3.64,2.73 .21,1.781-1.12,3.05-1.82,4.55-.688,1.475-1.043,3.319-1.82,4.549-1.101,1.745-3.112,2.817-4.095,4.55-1.098,1.934-1.087,4.462-2.275,6.371-.878,1.412-2.597,2.383-3.64,3.639-.358,1.917-1.112,3.438-2.275,4.551-3.478-1.229-6.597-5.239-11.375-5.916-2.811-.398-6.823-.515-9.555.911-3.642,1.899-3.119,6.155-6.825,8.19 .675,3.513-1.522,2.919-.456,6.824-.387.083-.43-.177-.455-.455-.544,2.964 2.123,8.16 4.095,10.92 1.311,1.836 2.909,6.005 4.095,9.101 1.352,3.529 2.411,8.796 4.55,13.195-.703,2.199.917,4.233 1.365,6.824 .632,3.643.362,8.038.911,11.831 .038.264.264,1.308.456,1.818 .462,1.244.872,2.308 1.365,4.551 .152.693-.242,1.612 0,2.275 .801,2.201 3.341,5.14 5.46,5.46 3.417.519 3.727-1.87 7.28-1.818zm0,3.186c1.352.542 1.955-1.918.91-2.274 .389,1.45-.716,1.406-.91,2.274z" fill-rule="evenodd"/>
 <path d="m105.559,252.829c2.29.46 5.363-2.215 7.735-3.186 .971-.212.867.65.91,1.365 6.287-4.634 12.21-9.63 13.649-19.109 2.653.848 1.522,4.744.91,6.824 1.986,5.901 7.578,8.194 10.465,13.194 3.455,1.553 8.752,1.259 10.011,5.006-4.38-.322-8.147-1.256-11.83-2.275-1.376.748-2.447,1.8-5.005,1.365-.039-1.175-1.948-.479-1.365-2.274-1.011.354-1.773.955-3.186.909-.887-.652-4.749-1.49-7.279-1.364-3.653.182-6.217,2.885-9.1,2.275-1.867.208.185-.973-.456-2.275-2.75,2.103-6.009,3.696-9.555,5.005-.79-.415-1.176-1.595-.455-2.275-3.06.897-6.891,2.893-10.01,2.275v-2.275c8.601-.955 13.479-5.632 20.02-8.645 1.456-.928 1.296-4.488 3.641-3.186-.844,5.072-5.224,6.606-9.1,8.646zm15.471-1.82c.859-.202 2.742.619 2.275-.909-1.129-.069-2.208-.086-2.275.909zm10.92,1.364c1.158-.056 1.764-.661 1.819-1.819-1.157.055-1.764.662-1.819,1.819zm-5.459-.455h1.363c.059-.816-.451-1.063-1.363-.909v.909z" fill-rule="evenodd"/>
 <path d="m103.285,260.108c5.444-.504 9.376,2.181 15.015,2.729 5.725-2.783 16.334-.285 22.75-.909-.312,2.568-3.219,2.544-3.185,5.46-1.789.791-2.476,2.681-4.551,3.185 .04-.646.076-1.288-.454-1.364-4.282-.034-4.563,3.93-9.101,3.64 .021-1.495 1.944-1.088 1.82-2.73-2.228.654-3.389,2.375-5.46,3.185-3.882-1.673-5.779,1.121-9.1,1.366 1.251-1.211-.365-1.16-.909-1.82-.008-1.827 2.375-1.265 4.095-1.364 .015-1.38-1.596-1.134-2.73-1.366-1.919.509-2.415,2.439-5.46,1.821-.121-2.093 2.022-1.922 2.73-3.186-1.759-1.58-3.092,1.136-5.46.455 .952-3.142 4.588-3.602 7.28-5.005-4.361-2.582-6.456,4.273-11.375,4.094 .395-4.004 5.113-3.684 6.826-6.369-.468-1.051-3.048.011-2.731-1.822zm20.929,5.916c-.077-.987 1.614-.207 2.276-.456 .487-2.039-4.01-.143-2.276.456zm3.186,1.82c.858-.202 2.741.618 2.273-.91-1.127-.067-2.207-.085-2.273.91zm-10.465.454c-.662.25-2.352-.53-2.275.456 .661-.249 2.351.531 2.275-.456z" fill-rule="evenodd"/>
</svg>
