<?xml version="1.0" encoding="iso-8859-1"?>
<!-- Generator: Adobe Illustrator 19.0.0, SVG Export Plug-In . SVG Version: 6.00 Build 0)  -->
<svg version="1.1" id="Capa_1" xmlns="http://www.w3.org/2000/svg" xmlns:xlink="http://www.w3.org/1999/xlink" x="0px" y="0px"
	 viewBox="0 0 512.001 512.001" style="enable-background:new 0 0 512.001 512.001;" xml:space="preserve">
<g>
	<g>
		<path d="M435.576,284.317H394.48l-0.206-63.187h32.158c8.077,0,15.028-6.207,15.408-14.276
			c0.406-8.614-6.458-15.726-14.984-15.726h-40.94l1.611-15.322h-75.043v-30.002h78.197l10.116-96.196
			c1.329-12.639-2.786-25.303-11.289-34.748C381.004,5.416,368.839,0,356.132,0H155.873C143.165,0,131,5.416,122.496,14.861
			c-8.502,9.445-12.618,22.109-11.289,34.748l10.116,96.196h78.197v30.002h-75.042l1.611,15.322H85.572
			c-8.077,0-15.028,6.207-15.408,14.276c-0.406,8.615,6.458,15.726,14.984,15.726h32.322v63.187H76.426
			c-9.442,0-14.322,11.18-7.991,18.187c12.233,13.542,27.389,23.993,44.19,30.641l-5.534,31.305
			c-6.768,38.286,11.323,77.042,45.017,96.441l75.763,43.618c8.675,4.995,18.403,7.492,28.13,7.492
			c9.728,0,19.455-2.497,28.13-7.492l75.763-43.618c33.694-19.399,51.785-58.155,45.016-96.441l-5.534-31.305
			c16.801-6.647,31.958-17.099,44.19-30.641C449.896,295.497,445.018,284.317,435.576,284.317z M229.523,134.208h52.959v53.609
			h-52.959V134.208z M332.1,284.317h-0.976c-16.476,0-29.694,13.954-28.479,30.689c1.089,15.007,13.997,26.423,29.044,26.423h0.354
			c-0.802,41.26-34.593,74.584-76.042,74.584c-41.449,0-75.239-33.324-76.042-74.584h0.354c15.047,0,27.953-11.417,29.044-26.423
			c1.215-16.735-12.003-30.689-28.479-30.689h-0.976h-32.431V221.13h0.001h216.799l0.206,63.187H332.1z"/>
	</g>
</g>
<g>
	<g>
		<circle cx="197.352" cy="255.573" r="16.913"/>
	</g>
</g>
<g>
	<g>
		<circle cx="315.458" cy="255.573" r="16.913"/>
	</g>
</g>
<g>
	<g>
		<path d="M293.007,331.969c-7.76-1.982-15.657,2.698-17.641,10.457c-2.236,8.745-10.117,14.852-19.163,14.852
			c-8.969,0-16.831-6.042-19.121-14.693c-2.049-7.741-9.988-12.357-17.729-10.307c-7.741,2.049-12.356,9.987-10.307,17.729
			c5.653,21.356,25.045,36.272,47.156,36.272c22.305,0,41.739-15.078,47.26-36.669C305.447,341.851,300.767,333.953,293.007,331.969
			z"/>
	</g>
</g>
<g>
</g>
<g>
</g>
<g>
</g>
<g>
</g>
<g>
</g>
<g>
</g>
<g>
</g>
<g>
</g>
<g>
</g>
<g>
</g>
<g>
</g>
<g>
</g>
<g>
</g>
<g>
</g>
<g>
</g>
</svg>
