<?xml version='1.0' encoding='utf-8'?>
<svg xmlns="http://www.w3.org/2000/svg" version="1.1" width="600px" height="976px" viewBox="0 0 600 976"> <g id="layer1"> <g style="fill:rgb(70,141,92); fill-opacity:1.0; stroke-linejoin: miter"> <path d="M-9.256073,712.99316L152.76236,631.32764L171.96452,572.4804L422.7931,596.49963L462.3976,663.7538Q508.62723,677.583,530.7562,687.48004Q557.96704,698.9478,575.86523,716.2167Q601.609,742.8073,617.2152,794.6587L5.145524,795.85974L-9.256073,712.99316"/> </g> <g style="fill:rgb(20,79,64); fill-opacity:1.0; stroke-linejoin: miter"> <path d="M180.66579,507.71536L194.59322,536.9386Q92.55725,518.26917,58.727665,486.0519Q11.115519,441.95496,14.96939,394.83142Q19.66691,370.1928,50.22167,361.6013Q66.90492,353.5923,151.66254,351.4679L195.76266,227.39294Q211.38995,203.931,233.06665,195.13779Q261.66592,183.3521,325.60297,190.36246Q390.19235,197.6423,422.85376,215.67307Q437.3024,224.05699,447.8355,232.91588L468.91672,351.0542Q517.32635,357.70947,553.6032,367.79175Q579.69617,377.3625,580.7806,380.44437Q587.21844,385.40234,589.1628,391.62958Q593.3104,410.7873,557.16565,441.32654Q529.4102,466.1076,451.77008,518.5326L180.66579,507.71536"/> </g> <g style="fill:rgb(249,169,136); fill-opacity:1.0; stroke-linejoin: miter"> <path d="M223.72884,692.15576L230.25647,701.43396Q267.3222,753.2731,287.9992,793.72266L390.31152,795.22284Q412.28378,736.3671,416.2386,705.6095Q417.69888,692.1136,415.96722,681.8406Q414.41968,670.44006,405.99036,649.48425Q405.36374,648.1763,405.70752,643.80347Q415.75674,623.86774,418.34454,613.52454Q422.82455,599.7798,433.72513,547.4032Q446.33344,546.29443,450.2812,521.85333Q453.68997,498.76944,452.42227,424.49936Q451.11395,399.14697,444.8107,392.1114Q440.35248,384.5101,422.45703,379.2346L172.82925,395.75327L170.35446,412.3081Q163.3814,413.7545,161.2383,433.86002Q158.7549,474.3845,163.62085,508.74057Q168.20929,543.5326,188.69528,530.15735L193.2742,588.2916L185.5975,612.04895L223.72884,692.15576"/> </g> <g style="fill:rgb(255,0,33); fill-opacity:0.21568628; stroke-linejoin: miter"> <path d="M307.94168,512.4623L335.15097,537.91034L358.3342,513.99414L335.08862,525.19904L307.94168,512.4623"/> </g> <g style="fill:rgb(255,0,33); fill-opacity:0.07450981; stroke-linejoin: miter"> <path d="M195.67215,589.35236L201.91501,598.20984Q236.09778,647.71423,260.1198,667.51953Q277.1693,680.51746,281.88632,681.8551Q291.75922,687.2354,309.7592,690.25073Q338.516,693.92456,363.42987,680.237Q387.6191,665.7858,409.8712,630.4415L318.7271,773.85004L195.67215,589.35236"/> </g> <g style="fill:rgb(255,255,255); fill-opacity:1.0; stroke-linejoin: miter"> <path d="M379.1252,437.6106L381.21964,437.83914Q400.21097,439.77603,406.3999,441.98676Q407.86655,442.49942,408.96616,443.07944Q409.69528,443.33652,411.6061,444.94037Q413.35843,446.57327,414.4575,449.88977Q403.78687,452.17474,398.29355,452.8387Q391.2778,453.70496,386.7752,453.15378Q384.58728,452.92252,382.04898,452.26575Q381.34485,452.14133,378.18872,451.0116Q375.62985,450.15506,368.7703,446.4477L379.1252,437.6106"/> </g> <g style="fill:rgb(0,0,0); fill-opacity:1.0; stroke-linejoin: miter"> <path d="M396.4802,448.96497L395.97748,449.87738Q394.19928,452.51392,391.2173,453.20123Q388.2208,453.8801,385.3882,452.1666Q382.75165,450.3885,382.06436,447.40643Q381.84705,446.44476,381.88162,445.44635L381.9836,444.45096Q382.1508,443.4524,382.5964,442.48987Q384.04657,439.57477,386.91895,438.52954Q389.79132,437.48422,392.77588,438.78555Q395.6911,440.23578,396.73633,443.1081Q397.78156,445.98038,396.4802,448.96497"/> </g> <g style="fill:rgb(255,255,255); fill-opacity:1.0; stroke-linejoin: miter"> <path d="M288.93417,429.94022L286.82993,429.83676Q267.77014,428.76474,261.3107,429.97525Q259.7817,430.25107,258.60458,430.65103Q257.84412,430.7903,255.70496,432.07394Q253.71777,433.41116,252.11115,436.5137Q262.29,440.44733,267.6107,441.96643Q274.40314,443.92453,278.9364,444.08786Q281.13348,444.20334,283.74347,443.9537Q284.4584,443.9415,287.75287,443.32187Q290.41455,442.87814,297.77155,440.29498L288.93417,429.94022"/> </g> <g style="fill:rgb(0,0,0); fill-opacity:1.0; stroke-linejoin: miter"> <path d="M270.01038,438.42584L270.36346,439.40594Q271.70514,442.28912,274.54208,443.4366Q277.39462,444.57797,280.4613,443.33096Q283.34457,441.98935,284.49203,439.15244Q284.85776,438.23685,284.9805,437.24533L285.03625,436.2463Q285.02808,435.23386,284.73932,434.2133Q283.76532,431.10654,281.09293,429.62286Q278.4205,428.13904,275.2685,428.95508Q272.1616,429.92914,270.67795,432.6015Q269.19427,435.27374,270.01038,438.42584"/> </g> <g style="fill:rgb(155,145,145); fill-opacity:1.0; stroke-linejoin: miter"> <path d="M367.17316,424.514L389.5389,419.63828L411.90463,414.76254L426.90192,432.64325L367.17316,424.514"/> </g> <g style="fill:rgb(155,145,145); fill-opacity:1.0; stroke-linejoin: miter"> <path d="M311.8564,416.6861L290.53494,408.35577L269.2136,400.02548L251.5923,415.32675L311.8564,416.6861"/> </g> <g style="fill:rgb(255,255,255); fill-opacity:1.0; stroke-linejoin: miter"> <path d="M294.93597,559.6928L297.92673,563.23047Q306.8985,574.21814,315.8748,581.8341Q318.86707,584.24786,321.86035,585.91235L324.85394,587.3427L327.84818,588.3048L330.8431,588.7517Q331.23416,588.77435,331.62518,588.7781L334.69925,588.5265L337.61755,587.79834L340.53647,586.63763Q343.45563,585.2606,346.3758,583.1915Q353.67584,578.1918,366.82312,563.86304L294.93597,559.6928"/> </g> <g style="fill:rgb(155,145,145); fill-opacity:1.0; stroke-linejoin: miter"> <path d="M205.26396,392.78604L205.04819,394.33923Q203.63971,403.80414,202.72865,417.24344Q201.91428,428.6989,200.41121,465.14063Q192.5505,446.48596,187.26823,438.55023Q182.22719,430.36618,169.44115,416.781L170.54292,395.65808L205.26396,392.78604"/> </g> <g style="fill:rgb(155,145,145); fill-opacity:1.0; stroke-linejoin: miter"> <path d="M436.3078,386.21982L436.81604,388.89948Q440.04214,406.30463,443.12106,418.4927Q445.79767,429.31674,452.81207,451.2368L451.85526,438.03336Q452.528,420.92505,452.1686,414.86133Q451.90482,408.61032,450.9586,403.6959Q450.425,400.22922,447.9031,391.63287L436.3078,386.21982"/> </g> </g> </svg>