<?xml version="1.0" encoding="UTF-8"?>
<svg width="1106" height="1279" enable-background="new 0 0 313.056 371.719" version="1.1" viewBox="0 0 1106.0156 1279.0327" xml:space="preserve" xmlns="http://www.w3.org/2000/svg">
<g transform="translate(373.29 -241.72)"><g transform="matrix(1.1025 0 0 1.1025 -447.15 -61.406)"><g fill-rule="evenodd"><path d="m118.38 1155.5c-37.285-3.0525-62.672-46.385-46.335-80.278 67.572-117.31 375.98-647.15 450.07-777.1 21.286-30.763 71.506-31.083 92.69 0.0117 67.811 117.18 374.91 646.55 450.41 775.69 15.999 33.816-8.8343 77.468-46.355 80.266-135.38 0.1381-750.9 0.5939-900.48 1.4035z" fill="#f00" stroke-width="3pt"/><path d="m218.33 1053.2 710.51-2.0558l-357.09-627.28-353.42 629.34z" fill="#fb0"/></g></g><path transform="translate(4.7832e-6 680.64)" d="m667.15 595.93v205.91c0 15.658-21.539 28.264-48.295 28.264h-881.73c-26.755 0-48.295-12.606-48.295-28.264v-205.91c0-15.658 21.539-28.263 48.295-28.263h881.73c26.755 0 48.295 12.605 48.295 28.263z" fill="#fb0" stroke="#000" stroke-linejoin="round" stroke-width="20.002"/><g transform="translate(4.7832e-6 680.64)"><path d="m13.495 778.56c-11.269 5.4781-22.969 9.5866-35.099 12.326-12.13 2.739-24.651 4.1086-37.564 4.1086-29.19 0-52.316-8.1388-69.376-24.417-17.06-16.356-25.59-38.503-25.59-66.441-1e-5 -28.251 8.6866-50.476 26.06-66.676 17.373-16.199 41.164-24.299 71.371-24.299 11.66 1.7e-4 22.812 1.0958 33.455 3.2868 10.721 2.1914 20.817 5.4391 30.286 9.7431v36.273c-9.7824-5.5562-19.526-9.7039-29.229-12.443-9.6259-2.7389-19.291-4.1084-28.995-4.1086-17.999 1.5e-4 -31.89 5.0478-41.672 15.143-9.7041 10.017-14.556 24.378-14.556 43.081-6e-5 18.547 4.6954 32.868 14.086 42.964 9.3909 10.095 22.734 15.143 40.029 15.143 4.6954 3e-5 9.0387-0.27387 13.03-0.82171 4.0693-0.62603 7.7083-1.5651 10.917-2.8173v-34.042h-27.586v-30.286h70.432v84.284"/><path d="m42.373 616.33h121.97v34.16h-76.771v32.634h72.193v34.16h-72.193v40.146h79.354v34.16h-124.55v-175.26"/><path d="m194.51 616.33h121.97v34.16h-76.771v32.634h72.193v34.16h-72.193v40.146h79.354v34.16h-124.55v-175.26"/><path d="m346.64 616.33h45.194v63.976l65.15-63.976h52.472l-84.401 82.993 93.088 92.266h-56.581l-69.728-69.024v69.024h-45.194v-175.26"/></g></g><g transform="translate(373.29 438.92)"><path transform="translate(-373.29 -605.01)" d="m566.09 589.94c-23.937 0.61568-34.668 21.85-35.5 36.75-0.14688 2.629 1.6986 7.6968 4.6875 10.688 1.4945 1.4953 3.7613 4.9993 5.7812 5.6562s4.7765 3.705 6.1875 4.8438c2.8221 2.2774 3.9053 2.2241 5.4062 5.125s1.949 10.878 4.75 14.312c1.3694 1.679 4.5111-2.333 6.7812-0.59375 5.8312 4.4676 3.9137 1.7845 5.4062 3.4688 2.9852 3.3684 2.5035 2.3485 6.625 3.2812 7.4724 0.72782 9.3596-8.9614 17.062-11.156 1.4698 1.3832 2.3527 2.8964 2.9375 4.4688-0.45435 9.1838-3.8229 20.827 0 25.875 7.2404 36.764 3.1844 24.491 6.5 47.938-17.606 3.8193-30.352 11.187-47.094 2.2812-13.298-7.0745-12.168-17.69-28.031-8.1875-2.8452 1.7053-8.7065 3.176-5.8438 7 4.5785 0.52559 17.469-1.4203 17.531 7.0312-17.287 0.0596-22.462-2.7677-42.062-2.3438-2.1152 2.1666-0.18991 8.3697-3.5 9.3438-23.092 2.461-28.978-12.294-42.062-19.844 0.76854-8.1864-1.5222-19.475 1.1875-25.719 2.9609 4.8273 2.4356 13.154 5.8438 17.531 6.3188 1.2556 6.9536-3.1742 12.844-2.3438-9.1524-45.056-18.516-92.638-31.531-131.97-2.3769-1.5254-7.7596 1.7656-11.688 2.3438 9.9665 41.771 16.808 86.02 15.188 137.81-2.9632 9.4934-15.328 9.6188-16.375 21.031-23.357-0.77672-4.4025 0.63944-27.812-0.1875v18.688h17.656c-0.0208 66.973-0.80212 157.83-0.0312 226.75 5.694-0.53611 13.056 0 18.844 0 0-58.505-2e-3 -163.97 0.6875-225.41h135.5c4.8156 0.92155 2.1867-5.6067 7-4.6875 9.435 5.3634 25.927 3.6856 33.875 10.531v9.3438c-27.867 8.4703-55.336 19.215-80.594 30.375-7.5674 3.344-20.797 7.5995-24.531 12.844-5.0761 7.1353-2.0949 15.668-3.5 25.688-7.0236 27.873-32.125 92.156-32.125 92.156l4.9688 2.625 4.9688 2.625s-11.655 10.087-23.062 13.906c-10.262 3.4363-21.46 13.017-13.219 13.594 15.722 1.1005 35.624 0.92868 50.562-4.8438 1.6177 3.0543-1.3577 3.5292 2 4.8438s16.255 0.13666 21.062 0c2.3921-10.031-1.4404-13.573-1.125-22.125 0.41113-11.073 7.3721-23.112 10.5-35.031 3.2645-12.434 5.9142-24.344 10.531-35.031l-1.0938-5.7188c4.3484 21.422 8.2096 42.951 12.156 64.438 7.8197 2.628 15.2 1.1248 23.094 4.4688 0.14834 3.2984 2.4687 6.2209 2.3438 9.5625-13.541 19.044-23.531 21.531-23.531 21.531 9.9922-2.475-5.3746 0.80919-4.6562 7.5625 0.71832 6.7533 24.656-2.3438 24.656-2.3438 4.4033-4.4687 9.3309-4.0147 13.688-8.9062 1.9564 4.1574 0.98556 3.3413 4.0312 2.5625 3.0457-0.77875 10.13-1.5432 12.594-2.8438 1.3196-13.641-0.81445-20.915-6.0938-32.219l3.3125-0.0625c-9.1347-29.879-18.442-60.704-25.562-91.719 0 0 45.944-3.4524 59.625-0.78125-1.5668 22.965 0 55.017 0 80-1.3278 24.162 0.56418 40.399-11.125 41.781-9.8695 1.1666-33.413 9.2954-42.531 11.562 0.3282 3.956 0.56645 4.7454-0.125 9.7188h11.281c3.283-3e-5 2.7515-3.3374 5.6875-7.1875 6.8118-2.8061 31.139-4.9598 42.844-5.7188 18.846-3.0414 38.252 2.7392 67.031 5.7812 3.1034 0.97878 5.625 7.125 5.625 7.125l11.781-0.125s0.88777-4.9486 0.5625-9.4688c-19.767-5.5386-44.938-5.6294-64.219-11.656-12.161-0.0227-12.188-7.9865-12.188-39.562v-35.969c0.73233-14.064 0.0169-30.443 0.59375-44.531 12.355-0.10278 27.04 4.6361 36.219-1.1562 12.539-7.9127 11.02-9.6524 13.625-28.656 2.6052-19.004 6.5436-58.553 8.5625-77.656 0.70313-6.647 4.6408-37.355 5.5938-44.594-1.1204-0.16098-2.2974-0.4976-4.4375-0.9375-5.8009 31.545-8.6659 73.621-13.219 106.59-2.649 19.192-4.583 41.869-24.156 37.062 13.879-14.897 19.706-42.444 17.562-71.656 2.3258-27.236-3.5669-40.08-8.3125-69.781-1.6352-10.242-18.822-37.728-24.281-44.25-3.1971-3.823-17.756-15.065-23.781-19.625l0.6875-0.875c-8.5998-2.5524-15.493-6.5154-22.656-9.6562-2.9818-20.579-17.691-33.925-29.688-41.438-5.3585-1.4716-10.255-2.0515-14.688-1.9375z" fill-rule="evenodd"/></g></svg>
